<?xml version="1.0" encoding="utf-8"?>
<!-- Generator: Adobe Illustrator 15.0.0, SVG Export Plug-In . SVG Version: 6.00 Build 0)  -->
<!DOCTYPE svg PUBLIC "-//W3C//DTD SVG 1.1//EN" "http://www.w3.org/Graphics/SVG/1.1/DTD/svg11.dtd">
<svg version="1.1" id="Warstwa_1" xmlns="http://www.w3.org/2000/svg" xmlns:xlink="http://www.w3.org/1999/xlink" x="0px" y="0px"
	 width="320px" height="280px" viewBox="0 0 320 280" enable-background="new 0 0 320 280" xml:space="preserve">
<g>
	<defs>
		<rect id="SVGID_1_" x="964" y="413" width="320" height="281"/>
	</defs>
	<clipPath id="SVGID_2_">
		<use xlink:href="#SVGID_1_"  overflow="visible"/>
	</clipPath>
	<linearGradient id="SVGID_3_" gradientUnits="userSpaceOnUse" x1="1124" y1="708" x2="1124" y2="410">
		<stop  offset="0" style="stop-color:#F9D7DD"/>
		<stop  offset="0.3262" style="stop-color:#FCEAED"/>
		<stop  offset="0.6998" style="stop-color:#FEFAFA"/>
		<stop  offset="1" style="stop-color:#FFFFFF"/>
	</linearGradient>
	<rect x="922" y="410" clip-path="url(#SVGID_2_)" fill="url(#SVGID_3_)" fill-opacity="0.55" width="404" height="298"/>
	<g clip-path="url(#SVGID_2_)">
		<g opacity="0.14">
			<path fill="#F06B95" d="M1018.059,618l20.565,36l-20.506,36h-40.687l-20.535-36l20.535-36H1018 M1043,575h-90.458l-45.234,79
				l45.234,79h90.466l45.23-79L1043,575.125V575z"/>
		</g>
		<g>
			<polyline fill="none" stroke="#F9D7DD" stroke-width="3" stroke-linecap="round" stroke-linejoin="round" points="947.254,742.5 
				946.754,742.5 946.505,742.066 			"/>
			
				<line fill="none" stroke="#F9D7DD" stroke-width="3" stroke-linecap="round" stroke-linejoin="round" stroke-dasharray="1.0342,10.3418" x1="941.354" y1="733.099" x2="898.6" y2="658.667"/>
			<polyline fill="none" stroke="#F9D7DD" stroke-width="3" stroke-linecap="round" stroke-linejoin="round" points="
				896.024,654.184 895.775,653.75 896.024,653.316 			"/>
			
				<line fill="none" stroke="#F9D7DD" stroke-width="3" stroke-linecap="round" stroke-linejoin="round" stroke-dasharray="1.0342,10.3418" x1="901.176" y1="644.349" x2="943.93" y2="569.917"/>
			<polyline fill="none" stroke="#F9D7DD" stroke-width="3" stroke-linecap="round" stroke-linejoin="round" points="
				946.505,565.434 946.754,565 947.254,565 			"/>
			
				<line fill="none" stroke="#F9D7DD" stroke-width="3" stroke-linecap="round" stroke-linejoin="round" stroke-dasharray="1,10" x1="958" y1="565.5" x2="1043" y2="565.5"/>
			<polyline fill="none" stroke="#F9D7DD" stroke-width="3" stroke-linecap="round" stroke-linejoin="round" points="1048.296,565 
				1048.796,565 1049.045,565.434 			"/>
			
				<line fill="none" stroke="#F9D7DD" stroke-width="3" stroke-linecap="round" stroke-linejoin="round" stroke-dasharray="1.0342,10.3418" x1="1054.196" y1="574.401" x2="1096.95" y2="648.833"/>
			<polyline fill="none" stroke="#F9D7DD" stroke-width="3" stroke-linecap="round" stroke-linejoin="round" points="
				1099.525,653.316 1099.774,653.75 1099.525,654.184 			"/>
			
				<line fill="none" stroke="#F9D7DD" stroke-width="3" stroke-linecap="round" stroke-linejoin="round" stroke-dasharray="1.0342,10.3418" x1="1094.374" y1="663.151" x2="1051.62" y2="737.583"/>
			<polyline fill="none" stroke="#F9D7DD" stroke-width="3" stroke-linecap="round" stroke-linejoin="round" points="
				1049.045,742.066 1048.796,742.5 1048.296,742.5 			"/>
			
				<line fill="none" stroke="#F9D7DD" stroke-width="3" stroke-linecap="round" stroke-linejoin="round" stroke-dasharray="1,10" x1="1038" y1="742.5" x2="952" y2="742.5"/>
		</g>
		<polygon fill="none" stroke="#F9D7DD" stroke-width="49" stroke-miterlimit="10" stroke-dasharray="1,10" points="923.601,782.5 
			849.646,654 923.601,525.5 1071.949,525.5 1145.903,654 1071.949,782.5 		"/>
	</g>
	<g clip-path="url(#SVGID_2_)">
		<polygon opacity="0.14" fill="#F06B95" points="1253.754,563.164 1216.426,586.667 1217.921,630.753 1256.743,651.335 
			1294.072,627.833 1292.576,583.746 1253.754,563.164 		"/>
		<g>
			<polyline fill="none" stroke="#F9D7DD" stroke-width="3" stroke-linecap="round" stroke-linejoin="round" points="
				1208.564,637.111 1208.123,636.877 1208.106,636.377 			"/>
			
				<line fill="none" stroke="#F9D7DD" stroke-width="3" stroke-linecap="round" stroke-linejoin="round" stroke-dasharray="1.0119,10.1191" x1="1207.764" y1="626.264" x2="1206.426" y2="586.822"/>
			<polyline fill="none" stroke="#F9D7DD" stroke-width="3" stroke-linecap="round" stroke-linejoin="round" points="
				1206.254,581.766 1206.237,581.266 1206.66,580.999 			"/>
			
				<line fill="none" stroke="#F9D7DD" stroke-width="3" stroke-linecap="round" stroke-linejoin="round" stroke-dasharray="1.0119,10.1191" x1="1215.224" y1="575.607" x2="1248.619" y2="554.58"/>
			<polyline fill="none" stroke="#F9D7DD" stroke-width="3" stroke-linecap="round" stroke-linejoin="round" points="
				1252.901,551.885 1253.324,551.618 1253.766,551.853 			"/>
			
				<line fill="none" stroke="#F9D7DD" stroke-width="3" stroke-linecap="round" stroke-linejoin="round" stroke-dasharray="1.0096,10.0957" x1="1262.686" y1="556.581" x2="1297.473" y2="575.023"/>
			<polyline fill="none" stroke="#F9D7DD" stroke-width="3" stroke-linecap="round" stroke-linejoin="round" points="
				1301.933,577.388 1302.374,577.622 1302.391,578.122 			"/>
			
				<line fill="none" stroke="#F9D7DD" stroke-width="3" stroke-linecap="round" stroke-linejoin="round" stroke-dasharray="1.012,10.1195" x1="1302.734" y1="588.235" x2="1304.073" y2="627.679"/>
			<polyline fill="none" stroke="#F9D7DD" stroke-width="3" stroke-linecap="round" stroke-linejoin="round" points="
				1304.245,632.735 1304.262,633.235 1303.839,633.502 			"/>
			
				<line fill="none" stroke="#F9D7DD" stroke-width="3" stroke-linecap="round" stroke-linejoin="round" stroke-dasharray="1.0119,10.1192" x1="1295.275" y1="638.893" x2="1261.878" y2="659.919"/>
			<polyline fill="none" stroke="#F9D7DD" stroke-width="3" stroke-linecap="round" stroke-linejoin="round" points="
				1257.596,662.614 1257.173,662.881 1256.731,662.646 			"/>
			
				<line fill="none" stroke="#F9D7DD" stroke-width="3" stroke-linecap="round" stroke-linejoin="round" stroke-dasharray="1.0096,10.0957" x1="1247.812" y1="657.918" x2="1213.024" y2="639.476"/>
		</g>
		<polygon fill="none" stroke="#F9D7DD" stroke-width="49" stroke-miterlimit="10" stroke-dasharray="1,10" points="
			1168.931,661.372 1165.481,559.658 1251.604,505.433 1341.565,553.126 1345.018,654.843 1258.892,709.066 		"/>
	</g>
	<g opacity="0.54" clip-path="url(#SVGID_2_)">
		<polygon opacity="0.14" fill="#F06B95" points="1122.754,519.164 1085.426,542.667 1086.921,586.753 1125.743,607.335 
			1163.072,583.833 1161.576,539.746 1122.754,519.164 		"/>
		<g>
			<polyline fill="none" stroke="#F9D7DD" stroke-width="3" stroke-linecap="round" stroke-linejoin="round" points="
				1077.564,593.111 1077.123,592.877 1077.106,592.377 			"/>
			
				<line fill="none" stroke="#F9D7DD" stroke-width="3" stroke-linecap="round" stroke-linejoin="round" stroke-dasharray="1.0119,10.1191" x1="1076.764" y1="582.264" x2="1075.426" y2="542.822"/>
			<polyline fill="none" stroke="#F9D7DD" stroke-width="3" stroke-linecap="round" stroke-linejoin="round" points="
				1075.254,537.766 1075.237,537.266 1075.66,536.999 			"/>
			
				<line fill="none" stroke="#F9D7DD" stroke-width="3" stroke-linecap="round" stroke-linejoin="round" stroke-dasharray="1.0119,10.1191" x1="1084.224" y1="531.607" x2="1117.619" y2="510.58"/>
			<polyline fill="none" stroke="#F9D7DD" stroke-width="3" stroke-linecap="round" stroke-linejoin="round" points="
				1121.901,507.885 1122.324,507.618 1122.766,507.853 			"/>
			
				<line fill="none" stroke="#F9D7DD" stroke-width="3" stroke-linecap="round" stroke-linejoin="round" stroke-dasharray="1.0096,10.0957" x1="1131.686" y1="512.581" x2="1166.473" y2="531.023"/>
			<polyline fill="none" stroke="#F9D7DD" stroke-width="3" stroke-linecap="round" stroke-linejoin="round" points="
				1170.933,533.388 1171.374,533.622 1171.391,534.122 			"/>
			
				<line fill="none" stroke="#F9D7DD" stroke-width="3" stroke-linecap="round" stroke-linejoin="round" stroke-dasharray="1.012,10.1195" x1="1171.734" y1="544.235" x2="1173.073" y2="583.679"/>
			<polyline fill="none" stroke="#F9D7DD" stroke-width="3" stroke-linecap="round" stroke-linejoin="round" points="
				1173.245,588.735 1173.262,589.235 1172.839,589.502 			"/>
			
				<line fill="none" stroke="#F9D7DD" stroke-width="3" stroke-linecap="round" stroke-linejoin="round" stroke-dasharray="1.0119,10.1192" x1="1164.275" y1="594.893" x2="1130.878" y2="615.919"/>
			<polyline fill="none" stroke="#F9D7DD" stroke-width="3" stroke-linecap="round" stroke-linejoin="round" points="
				1126.596,618.614 1126.173,618.881 1125.731,618.646 			"/>
			
				<line fill="none" stroke="#F9D7DD" stroke-width="3" stroke-linecap="round" stroke-linejoin="round" stroke-dasharray="1.0096,10.0957" x1="1116.812" y1="613.918" x2="1082.024" y2="595.476"/>
		</g>
		<polygon fill="none" stroke="#F9D7DD" stroke-width="49" stroke-miterlimit="10" stroke-dasharray="1,10" points="
			1037.931,617.372 1034.481,515.658 1120.604,461.433 1210.565,509.126 1214.018,610.843 1127.892,665.066 		"/>
	</g>
</g>
<g>
	<defs>
		<rect id="SVGID_4_" y="-1" width="320" height="281"/>
	</defs>
	<clipPath id="SVGID_5_">
		<use xlink:href="#SVGID_4_"  overflow="visible"/>
	</clipPath>
	<linearGradient id="SVGID_6_" gradientUnits="userSpaceOnUse" x1="160.0005" y1="294" x2="160.0005" y2="-3.9995">
		<stop  offset="0" style="stop-color:#F9D7DD"/>
		<stop  offset="0.3262" style="stop-color:#FCEAED"/>
		<stop  offset="0.6998" style="stop-color:#FEFAFA"/>
		<stop  offset="1" style="stop-color:#FFFFFF"/>
	</linearGradient>
	<rect x="-42" y="-4" clip-path="url(#SVGID_5_)" fill="url(#SVGID_6_)" fill-opacity="0.55" width="404" height="298"/>
	<g clip-path="url(#SVGID_5_)">
		<g opacity="0.14">
			<g>
				<path fill="#F06B95" d="M54.059,204l20.565,36l-20.506,36H13.432l-20.535-36l20.535-36H54 M79,161h-90.458l-45.234,79l45.234,79
					h90.466l45.23-79L79,161.125V161z"/>
			</g>
		</g>
		<g>
			<g>
				<path fill="#F9D7DD" d="M-16.746,330h-0.5c-0.537,0-1.033-0.287-1.301-0.753l-0.249-0.434c-0.413-0.719-0.165-1.635,0.554-2.048
					c0.616-0.352,1.376-0.223,1.841,0.274c0.662,0.156,1.155,0.75,1.155,1.46C-15.246,329.328-15.917,330-16.746,330z"/>
			</g>
			<g>
				<path fill="#F9D7DD" d="M-22.645,320.599c-0.52,0-1.024-0.27-1.302-0.753l-0.515-0.896c-0.413-0.718-0.165-1.635,0.553-2.048
					c0.719-0.41,1.635-0.165,2.048,0.554l0.515,0.896c0.413,0.718,0.165,1.635-0.553,2.048
					C-22.134,320.534-22.391,320.599-22.645,320.599z M-28.311,310.734c-0.52,0-1.024-0.27-1.302-0.753l-0.515-0.896
					c-0.413-0.718-0.165-1.635,0.553-2.048c0.72-0.411,1.635-0.165,2.048,0.554l0.515,0.896c0.413,0.718,0.165,1.635-0.553,2.048
					C-27.8,310.67-28.057,310.734-28.311,310.734z M-33.977,300.87c-0.52,0-1.025-0.271-1.302-0.753l-0.515-0.897
					c-0.413-0.719-0.165-1.636,0.554-2.048c0.719-0.413,1.635-0.164,2.047,0.554l0.515,0.897c0.413,0.719,0.165,1.636-0.554,2.048
					C-33.467,300.806-33.724,300.87-33.977,300.87z M-39.643,291.006c-0.52,0-1.025-0.271-1.302-0.753l-0.515-0.897
					c-0.413-0.719-0.165-1.636,0.554-2.048c0.718-0.412,1.635-0.164,2.047,0.554l0.515,0.897c0.413,0.719,0.165,1.636-0.554,2.048
					C-39.133,290.941-39.39,291.006-39.643,291.006z M-45.309,281.141c-0.52,0-1.024-0.27-1.302-0.753l-0.515-0.896
					c-0.413-0.718-0.165-1.635,0.553-2.048c0.719-0.412,1.635-0.165,2.048,0.554l0.515,0.896c0.413,0.718,0.165,1.635-0.553,2.048
					C-44.799,281.076-45.056,281.141-45.309,281.141z M-50.976,271.276c-0.52,0-1.025-0.271-1.302-0.753l-0.515-0.896
					c-0.413-0.719-0.165-1.636,0.554-2.048s1.634-0.164,2.047,0.554l0.515,0.896c0.413,0.719,0.165,1.636-0.554,2.048
					C-50.466,271.212-50.722,271.276-50.976,271.276z M-56.642,261.412c-0.52,0-1.024-0.27-1.302-0.753l-0.515-0.896
					c-0.413-0.718-0.165-1.635,0.553-2.048c0.72-0.41,1.635-0.166,2.048,0.554l0.515,0.896c0.413,0.718,0.165,1.635-0.553,2.048
					C-56.131,261.348-56.388,261.412-56.642,261.412z M-62.308,251.548c-0.52,0-1.024-0.27-1.302-0.753l-0.515-0.896
					c-0.413-0.718-0.165-1.635,0.553-2.048c0.719-0.411,1.635-0.165,2.048,0.554l0.515,0.896c0.413,0.718,0.165,1.635-0.553,2.048
					C-61.797,251.483-62.054,251.548-62.308,251.548z"/>
			</g>
			<g>
				<path fill="#F9D7DD" d="M-67.974,241.684c-0.52,0-1.025-0.271-1.302-0.753l-0.249-0.434c-0.266-0.463-0.266-1.031,0-1.494
					l0.249-0.434c0.413-0.718,1.33-0.964,2.048-0.554c0.617,0.354,0.887,1.081,0.689,1.734c0.198,0.653-0.072,1.38-0.689,1.734
					C-67.464,241.619-67.721,241.684-67.974,241.684z"/>
			</g>
			<g>
				<path fill="#F9D7DD" d="M-62.826,231.849c-0.253,0-0.51-0.064-0.746-0.199c-0.718-0.413-0.966-1.33-0.553-2.048l0.515-0.896
					c0.414-0.719,1.329-0.965,2.048-0.554c0.718,0.413,0.966,1.33,0.553,2.048l-0.515,0.896
					C-61.802,231.579-62.307,231.849-62.826,231.849z M-57.16,221.984c-0.253,0-0.51-0.064-0.746-0.199
					c-0.718-0.413-0.966-1.33-0.553-2.048l0.515-0.896c0.413-0.72,1.329-0.965,2.048-0.554c0.718,0.413,0.966,1.33,0.553,2.048
					l-0.515,0.896C-56.136,221.715-56.641,221.984-57.16,221.984z M-51.494,212.12c-0.253,0-0.51-0.063-0.745-0.199
					c-0.719-0.412-0.967-1.329-0.554-2.048l0.515-0.897c0.413-0.718,1.329-0.968,2.047-0.554c0.719,0.412,0.967,1.329,0.554,2.048
					l-0.515,0.897C-50.469,211.85-50.974,212.12-51.494,212.12z M-45.828,202.256c-0.253,0-0.51-0.063-0.745-0.199
					c-0.719-0.412-0.967-1.329-0.554-2.048l0.515-0.897c0.413-0.717,1.329-0.968,2.047-0.554c0.719,0.412,0.967,1.329,0.554,2.048
					l-0.515,0.897C-44.803,201.985-45.308,202.256-45.828,202.256z M-40.162,192.391c-0.253,0-0.51-0.064-0.746-0.199
					c-0.718-0.413-0.966-1.33-0.553-2.048l0.515-0.896c0.413-0.719,1.329-0.965,2.048-0.554c0.718,0.413,0.966,1.33,0.553,2.048
					l-0.515,0.896C-39.137,192.121-39.642,192.391-40.162,192.391z M-34.495,182.526c-0.253,0-0.51-0.063-0.745-0.199
					c-0.719-0.412-0.967-1.329-0.554-2.048l0.515-0.896c0.413-0.718,1.33-0.967,2.047-0.554c0.719,0.412,0.967,1.329,0.554,2.048
					l-0.515,0.896C-33.47,182.256-33.976,182.526-34.495,182.526z M-28.829,172.662c-0.253,0-0.51-0.064-0.746-0.199
					c-0.718-0.413-0.966-1.33-0.553-2.048l0.515-0.896c0.413-0.72,1.329-0.965,2.048-0.554c0.718,0.413,0.966,1.33,0.553,2.048
					l-0.515,0.896C-27.805,172.393-28.31,172.662-28.829,172.662z M-23.163,162.798c-0.253,0-0.51-0.064-0.746-0.199
					c-0.718-0.413-0.966-1.33-0.553-2.048l0.515-0.896c0.414-0.719,1.33-0.964,2.048-0.554c0.718,0.413,0.966,1.33,0.553,2.048
					l-0.515,0.896C-22.139,162.528-22.644,162.798-23.163,162.798z"/>
			</g>
			<g>
				<path fill="#F9D7DD" d="M-17.497,152.934c-0.253,0-0.51-0.064-0.746-0.199c-0.718-0.413-0.966-1.329-0.554-2.048l0.249-0.184
					c0.268-0.466,0.764-0.503,1.301-0.503h0.5c0.829,0,1.5,0.422,1.5,1.25c0,0.71-0.493,1.179-1.155,1.335
					C-16.688,152.892-17.088,152.934-17.497,152.934z"/>
			</g>
			<g>
				<path fill="#F9D7DD" d="M72,153h-1c-0.829,0-1.5-0.672-1.5-1.5s0.671-1.5,1.5-1.5h1c0.829,0,1.5,0.672,1.5,1.5
					S72.829,153,72,153z M61,153h-1c-0.829,0-1.5-0.672-1.5-1.5s0.671-1.5,1.5-1.5h1c0.829,0,1.5,0.672,1.5,1.5S61.829,153,61,153z
					 M50,153h-1c-0.829,0-1.5-0.672-1.5-1.5s0.671-1.5,1.5-1.5h1c0.829,0,1.5,0.672,1.5,1.5S50.829,153,50,153z M39,153h-1
					c-0.829,0-1.5-0.672-1.5-1.5s0.671-1.5,1.5-1.5h1c0.829,0,1.5,0.672,1.5,1.5S39.829,153,39,153z M28,153h-1
					c-0.829,0-1.5-0.672-1.5-1.5s0.671-1.5,1.5-1.5h1c0.829,0,1.5,0.672,1.5,1.5S28.829,153,28,153z M17,153h-1
					c-0.829,0-1.5-0.672-1.5-1.5s0.671-1.5,1.5-1.5h1c0.829,0,1.5,0.672,1.5,1.5S17.829,153,17,153z M6,153H5
					c-0.829,0-1.5-0.672-1.5-1.5S4.171,150,5,150h1c0.829,0,1.5,0.672,1.5,1.5S6.829,153,6,153z M-5,153h-1
					c-0.829,0-1.5-0.672-1.5-1.5S-6.829,150-6,150h1c0.829,0,1.5,0.672,1.5,1.5S-4.171,153-5,153z"/>
			</g>
			<g>
				<path fill="#F9D7DD" d="M85.046,152.934c-0.409,0-0.809-0.167-1.096-0.474c-0.662-0.156-1.155-0.5-1.155-1.21
					c0-0.828,0.671-1.25,1.5-1.25h0.5c0.537,0,1.033,0.037,1.301,0.503l0.249,0.309c0.413,0.719,0.165,1.572-0.554,1.985
					C85.557,152.932,85.3,152.934,85.046,152.934z"/>
			</g>
			<g>
				<path fill="#F9D7DD" d="M130.375,231.849c-0.52,0-1.024-0.27-1.302-0.753l-0.515-0.896c-0.413-0.718-0.165-1.635,0.553-2.048
					c0.719-0.411,1.635-0.165,2.048,0.554l0.515,0.896c0.413,0.718,0.165,1.635-0.553,2.048
					C130.886,231.784,130.629,231.849,130.375,231.849z M124.709,221.984c-0.52,0-1.024-0.27-1.302-0.753l-0.515-0.896
					c-0.413-0.718-0.165-1.635,0.553-2.048c0.72-0.411,1.635-0.166,2.048,0.554l0.515,0.896c0.413,0.718,0.165,1.635-0.553,2.048
					C125.22,221.92,124.963,221.984,124.709,221.984z M119.043,212.12c-0.52,0-1.025-0.271-1.302-0.753l-0.515-0.896
					c-0.413-0.719-0.165-1.636,0.554-2.048c0.718-0.411,1.635-0.163,2.047,0.554l0.515,0.896c0.413,0.719,0.165,1.636-0.554,2.048
					C119.553,212.056,119.296,212.12,119.043,212.12z M113.377,202.256c-0.52,0-1.024-0.27-1.302-0.753l-0.515-0.896
					c-0.413-0.718-0.165-1.635,0.553-2.048c0.719-0.411,1.635-0.166,2.048,0.554l0.515,0.896c0.413,0.718,0.165,1.635-0.553,2.048
					C113.887,202.191,113.63,202.256,113.377,202.256z M107.711,192.392c-0.52,0-1.025-0.271-1.302-0.753l-0.515-0.897
					c-0.413-0.719-0.165-1.636,0.554-2.048c0.718-0.413,1.635-0.164,2.047,0.554l0.515,0.897c0.413,0.719,0.165,1.636-0.554,2.048
					C108.221,192.327,107.964,192.392,107.711,192.392z M102.045,182.527c-0.52,0-1.025-0.271-1.302-0.753l-0.515-0.897
					c-0.413-0.719-0.165-1.636,0.554-2.048c0.718-0.412,1.635-0.164,2.047,0.554l0.515,0.897c0.413,0.719,0.165,1.636-0.554,2.048
					C102.555,182.463,102.298,182.527,102.045,182.527z M96.378,172.662c-0.52,0-1.024-0.27-1.302-0.753l-0.515-0.896
					c-0.413-0.718-0.165-1.635,0.553-2.048c0.72-0.411,1.635-0.166,2.048,0.554l0.515,0.896c0.413,0.718,0.165,1.635-0.553,2.048
					C96.889,172.598,96.632,172.662,96.378,172.662z M90.712,162.798c-0.52,0-1.024-0.27-1.302-0.753l-0.515-0.896
					c-0.413-0.718-0.165-1.635,0.553-2.048c0.719-0.41,1.635-0.165,2.048,0.554l0.515,0.896c0.413,0.718,0.165,1.635-0.553,2.048
					C91.223,162.733,90.966,162.798,90.712,162.798z"/>
			</g>
			<g>
				<path fill="#F9D7DD" d="M135.524,241.684c-0.253,0-0.51-0.064-0.746-0.199c-0.617-0.354-0.887-1.081-0.689-1.734
					c-0.198-0.653,0.072-1.38,0.689-1.734c0.717-0.41,1.635-0.164,2.048,0.554l0.249,0.434c0.266,0.463,0.266,1.031,0,1.494
					l-0.249,0.434C136.549,241.413,136.043,241.684,135.524,241.684z"/>
			</g>
			<g>
				<path fill="#F9D7DD" d="M90.195,320.599c-0.253,0-0.51-0.064-0.746-0.199c-0.718-0.413-0.966-1.33-0.553-2.048l0.515-0.896
					c0.414-0.719,1.329-0.964,2.048-0.554c0.718,0.413,0.966,1.33,0.553,2.048l-0.515,0.896
					C91.219,320.329,90.714,320.599,90.195,320.599z M95.861,310.734c-0.253,0-0.51-0.064-0.746-0.199
					c-0.718-0.413-0.966-1.33-0.553-2.048l0.515-0.896c0.414-0.719,1.329-0.965,2.048-0.554c0.718,0.413,0.966,1.33,0.553,2.048
					l-0.515,0.896C96.885,310.465,96.38,310.734,95.861,310.734z M101.527,300.87c-0.253,0-0.51-0.063-0.745-0.199
					c-0.719-0.412-0.967-1.329-0.554-2.048l0.515-0.896c0.413-0.718,1.33-0.968,2.047-0.554c0.719,0.412,0.967,1.329,0.554,2.048
					l-0.515,0.896C102.552,300.6,102.047,300.87,101.527,300.87z M107.193,291.006c-0.253,0-0.51-0.064-0.746-0.199
					c-0.718-0.413-0.966-1.33-0.553-2.048l0.515-0.896c0.413-0.719,1.329-0.964,2.048-0.554c0.718,0.413,0.966,1.33,0.553,2.048
					l-0.515,0.896C108.218,290.736,107.713,291.006,107.193,291.006z M112.859,281.142c-0.253,0-0.51-0.063-0.745-0.199
					c-0.719-0.412-0.967-1.329-0.554-2.048l0.515-0.897c0.413-0.718,1.329-0.968,2.047-0.554c0.719,0.412,0.967,1.329,0.554,2.048
					l-0.515,0.897C113.884,280.871,113.379,281.142,112.859,281.142z M118.525,271.277c-0.253,0-0.51-0.063-0.745-0.199
					c-0.719-0.412-0.967-1.329-0.554-2.048l0.515-0.897c0.413-0.718,1.329-0.969,2.047-0.554c0.719,0.412,0.967,1.329,0.554,2.048
					l-0.515,0.897C119.55,271.007,119.045,271.277,118.525,271.277z M124.192,261.412c-0.253,0-0.51-0.064-0.746-0.199
					c-0.718-0.413-0.966-1.33-0.553-2.048l0.515-0.896c0.413-0.72,1.329-0.964,2.048-0.554c0.718,0.413,0.966,1.33,0.553,2.048
					l-0.515,0.896C125.216,261.143,124.711,261.412,124.192,261.412z M129.858,251.548c-0.253,0-0.51-0.064-0.746-0.199
					c-0.718-0.413-0.966-1.33-0.553-2.048l0.515-0.896c0.414-0.719,1.329-0.965,2.048-0.554c0.718,0.413,0.966,1.33,0.553,2.048
					l-0.515,0.896C130.882,251.278,130.377,251.548,129.858,251.548z"/>
			</g>
			<g>
				<path fill="#F9D7DD" d="M84.796,330h-0.5c-0.829,0-1.5-0.672-1.5-1.5c0-0.71,0.493-1.304,1.155-1.46
					c0.465-0.497,1.227-0.626,1.841-0.274c0.718,0.413,0.966,1.329,0.554,2.048l-0.249,0.434C85.829,329.713,85.333,330,84.796,330z
					"/>
			</g>
			<g>
				<path fill="#F9D7DD" d="M74,330h-1c-0.829,0-1.5-0.672-1.5-1.5s0.671-1.5,1.5-1.5h1c0.829,0,1.5,0.672,1.5,1.5
					S74.829,330,74,330z M63,330h-1c-0.829,0-1.5-0.672-1.5-1.5s0.671-1.5,1.5-1.5h1c0.829,0,1.5,0.672,1.5,1.5S63.829,330,63,330z
					 M52,330h-1c-0.829,0-1.5-0.672-1.5-1.5s0.671-1.5,1.5-1.5h1c0.829,0,1.5,0.672,1.5,1.5S52.829,330,52,330z M41,330h-1
					c-0.829,0-1.5-0.672-1.5-1.5s0.671-1.5,1.5-1.5h1c0.829,0,1.5,0.672,1.5,1.5S41.829,330,41,330z M30,330h-1
					c-0.829,0-1.5-0.672-1.5-1.5s0.671-1.5,1.5-1.5h1c0.829,0,1.5,0.672,1.5,1.5S30.829,330,30,330z M19,330h-1
					c-0.829,0-1.5-0.672-1.5-1.5s0.671-1.5,1.5-1.5h1c0.829,0,1.5,0.672,1.5,1.5S19.829,330,19,330z M8,330H7
					c-0.829,0-1.5-0.672-1.5-1.5S6.171,327,7,327h1c0.829,0,1.5,0.672,1.5,1.5S8.829,330,8,330z M-3,330h-1
					c-0.829,0-1.5-0.672-1.5-1.5S-4.829,327-4,327h1c0.829,0,1.5,0.672,1.5,1.5S-2.171,330-3,330z"/>
			</g>
		</g>
		<g>
			<path fill="#F9D7DD" d="M101,393h-1v-32.793l-10-5.755V393h-1v-39.123l-0.765-0.539l0.413-0.867L89,352.723V344h1v9.298l10,5.755
				v-11.547l-6.271-3.713l0.413-0.866l5.859,3.425V344h1v2.928l35.686,20.46l-0.585,0.866L101,348.082v11.546l30.204,17.282
				l-0.584,0.867L101,360.782V393z M79,393h-1v-49h1V393z M68,393h-1v-49h1V393z M57,393h-1v-49h1V393z M46,393h-1v-49h1V393z
				 M35,393h-1v-49h1V393z M24,393h-1v-49h1V393z M13,393h-1v-49h1V393z M2,393H1v-49h1V393z M-9,393h-1v-49h1V393z M-20,393h-1
				v-35.861l-10,5.754V393h-1v-29.531l-29.807,17.251l-0.585-0.867L-32,362.314v-11.547l-35.287,20.429l-0.585-0.866L-32,349.614
				V344h1v5.038l5.672-3.169l0.413,0.866L-31,350.191v11.547l10-5.754V344h1v11.427l0.492,0.854L-20,356.563V393z M-72.608,361.652
				l-0.499-0.867l42.47-24.439l0.499,0.867L-72.608,361.652z M141.851,358.71l-42.47-24.439l0.5-0.867l42.47,24.439L141.851,358.71z
				 M-78.095,352.119l-0.499-0.866l42.469-24.441l0.499,0.866L-78.095,352.119z M147.344,349.167l-42.48-24.422l0.499-0.867
				l42.48,24.422L147.344,349.167z M-83.582,342.585l-0.499-0.866l42.469-24.441l0.499,0.866L-83.582,342.585z M152.825,339.643
				l-42.469-24.441l0.499-0.866l42.469,24.441L152.825,339.643z M-89.069,333.051l-0.499-0.867l42.47-24.439l0.499,0.867
				L-89.069,333.051z M158.312,330.108l-42.47-24.439l0.499-0.867l42.47,24.439L158.312,330.108z M-94.55,323.527l-0.499-0.866
				l42.458-24.461l0.499,0.866L-94.55,323.527z M163.793,320.585l-42.458-24.461l0.499-0.866l42.458,24.461L163.793,320.585z
				 M-100.048,313.975l-0.499-0.867l42.48-24.422l0.499,0.867L-100.048,313.975z M169.28,311.051l-42.458-24.461l0.499-0.866
				l42.458,24.461L169.28,311.051z M-105.535,304.44l-0.499-0.867l42.48-24.422l0.499,0.867L-105.535,304.44z M174.772,301.507
				l-42.47-24.439l0.499-0.867l42.47,24.439L174.772,301.507z M-111.011,294.926l-0.499-0.866l42.458-24.461l0.499,0.866
				L-111.011,294.926z M180.259,291.974l-42.468-24.441l0.499-0.866l42.469,24.441L180.259,291.974z M-116.503,285.382l-0.499-0.867
				l42.47-24.439l0.499,0.867L-116.503,285.382z M185.741,282.449l-42.458-24.461l0.499-0.866l42.458,24.461L185.741,282.449z
				 M-121.984,275.858l-0.499-0.866l42.458-24.461l0.499,0.866L-121.984,275.858z M191.233,272.905l-42.47-24.439l0.499-0.867
				l42.47,24.439L191.233,272.905z M-127.477,266.314l-0.499-0.866l34.663-19.949l-10.014-5.769l-29.643,17.041l-0.499-0.867
				l29.139-16.752l-28.391-16.356l0.499-0.866l28.895,16.646l10.034-5.769l-33.946-19.534l0.499-0.867l34.451,19.825l1.302-0.749
				l0.499,0.867l-0.797,0.459l7.016,4.037l-0.499,0.867l-7.521-4.328l-10.034,5.77l10.014,5.769l6.804-3.916l0.499,0.866
				l-6.302,3.626l1.546,0.892l-0.499,0.866l-2.049-1.181L-127.477,266.314z M196.715,263.382l-36.857-21.233l-3.745,2.155
				l-0.499-0.867l3.242-1.865l-4.599-2.65l0.499-0.866l5.102,2.939l10.005-5.757l-10.028-5.76l-9.203,5.303l-0.499-0.866
				l42.458-24.461l0.499,0.866L160.837,228.9l10.028,5.76l27.219-15.663l0.499,0.867l-26.714,15.372l30.847,17.717l-0.498,0.867
				l-31.352-18.007l-10.006,5.759l36.354,20.943L196.715,263.382z M-79.283,228.179l-42.47-24.439l0.499-0.867l42.47,24.439
				L-79.283,228.179z M145.139,225.236l-0.499-0.867l42.47-24.439l0.499,0.867L145.139,225.236z M-73.796,218.646l-42.469-24.441
				l0.499-0.866l42.469,24.441L-73.796,218.646z M139.646,215.693l-0.499-0.867l42.48-24.422l0.499,0.867L139.646,215.693z
				 M-68.304,209.103l-42.48-24.422l0.499-0.867l42.48,24.422L-68.304,209.103z M134.171,206.179l-0.499-0.866l42.458-24.461
				l0.499,0.866L134.171,206.179z M-62.828,199.588l-42.458-24.461l0.499-0.866l42.458,24.461L-62.828,199.588z M128.678,196.635
				l-0.499-0.867l42.47-24.439l0.499,0.867L128.678,196.635z M-57.341,190.054l-42.458-24.461l0.499-0.866l42.458,24.461
				L-57.341,190.054z M123.191,187.101l-0.499-0.867l42.47-24.439l0.499,0.867L123.191,187.101z M-51.843,180.501l-42.48-24.422
				l0.499-0.867l42.48,24.422L-51.843,180.501z M117.705,177.567l-0.499-0.866l42.469-24.441l0.499,0.866L117.705,177.567z
				 M-46.362,170.977l-42.469-24.441l0.499-0.866l42.469,24.441L-46.362,170.977z M112.212,168.024l-0.499-0.867l42.48-24.422
				l0.499,0.867L112.212,168.024z M-40.875,161.442l-42.47-24.439l0.499-0.867l42.47,24.439L-40.875,161.442z M106.731,158.5
				l-0.499-0.866l42.469-24.442l0.499,0.866L106.731,158.5z M-35.391,151.913l-42.464-24.45l0.499-0.867l42.464,24.45
				L-35.391,151.913z M101.247,148.971l-0.499-0.867l42.464-24.45l0.499,0.867L101.247,148.971z M-29.904,142.38l-42.464-24.45
				l0.46-0.867L-40,135.457v-11.543l-26.924-15.509l0.479-0.867L-40,122.761V87h1v36.336l10,5.752V87h1v42.663l4.049,2.307
				l-0.518,0.867l-3.531-2.02V136h-1v-5.759l-10-5.752V136h0.021l9.575,5.513L-29.904,142.38z M95.721,139.437l-0.518-0.867
				l7.797-4.501V122.53l-10,5.758V136h-1v-7.136l-1.766,1.039l-0.519-0.867L92,127.709V87h1v40.134l10-5.758V87h1v33.8
				l28.199-16.214l0.479,0.867L104,121.955v11.539l33.686-19.374l0.48,0.867L104,134.648V136h-1v-0.776L95.721,139.437z M82,136h-1
				V87h1V136z M71,136h-1V87h1V136z M60,136h-1V87h1V136z M49,136h-1V87h1V136z M38,136h-1V87h1V136z M27,136h-1V87h1V136z M16,136
				h-1V87h1V136z M5,136H4V87h1V136z M-6,136h-1V87h1V136z M-17,136h-1V87h1V136z"/>
		</g>
	</g>
	<g clip-path="url(#SVGID_5_)">
		<g opacity="0.14">
			<polygon fill="#F06B95" points="289.754,149.164 252.426,172.667 253.921,216.753 292.743,237.335 330.072,213.833 
				328.576,169.746 289.754,149.164 			"/>
		</g>
		<g>
			<g>
				<path fill="#F9D7DD" d="M244.563,224.611c-0.237,0-0.479-0.056-0.702-0.175l-0.441-0.234c-0.475-0.252-0.778-0.738-0.796-1.275
					l-0.017-0.5c-0.027-0.828,0.621-1.521,1.449-1.549c0.705-0.051,1.32,0.449,1.498,1.106c0.511,0.448,0.667,1.204,0.335,1.83
					C245.62,224.322,245.101,224.611,244.563,224.611z"/>
			</g>
			<g>
				<path fill="#F9D7DD" d="M243.762,214c-0.805,0-1.471-0.757-1.498-1.567l-0.034-1.071c-0.028-0.828,0.62-1.551,1.448-1.579
					c0.832-0.044,1.522,0.605,1.55,1.434l0.034,1.123c0.028,0.828-0.62,1.661-1.448,1.661C243.796,214,243.779,214,243.762,214z
					 M243.385,203c-0.805,0-1.471-0.819-1.498-1.63l-0.034-1.101c-0.028-0.828,0.62-1.567,1.448-1.596
					c0.821-0.043,1.521,0.598,1.55,1.426l0.034,1.181c0.028,0.828-0.62,1.72-1.448,1.72C243.419,203,243.402,203,243.385,203z
					 M243.008,192c-0.805,0-1.471-0.881-1.498-1.691l-0.034-1.134c-0.028-0.828,0.62-1.582,1.448-1.61
					c0.832-0.042,1.522,0.59,1.55,1.418l0.034,1.24c0.028,0.828-0.62,0.777-1.448,1.777C243.042,192,243.025,192,243.008,192z
					 M242.631,180c-0.805,0-1.47-0.443-1.498-1.254l-0.035-0.914c-0.029-0.827,0.619-1.474,1.447-1.502
					c0.823-0.04,1.521,0.644,1.551,1.472l0.035,0.83c0.029,0.827-0.619,1.368-1.447,1.368C242.666,180,242.648,180,242.631,180z"/>
			</g>
			<g>
				<path fill="#F9D7DD" d="M242.253,169c-0.806,0-1.472-0.507-1.498-1.317l-0.017-0.434c-0.018-0.532,0.248-1.001,0.699-1.285
					l0.423-0.25c0.699-0.444,1.627-0.224,2.068,0.478c0.38,0.602,0.278,1.242-0.202,1.727c-0.132,0.671-0.711,1.082-1.423,1.082
					C242.287,169,242.27,169,242.253,169z"/>
			</g>
			<g>
				<path fill="#F9D7DD" d="M251.225,163.107c-0.498,0-0.985-0.248-1.271-0.701c-0.441-0.701-0.23-1.627,0.471-2.068l0.856-0.539
					c0.7-0.44,1.627-0.231,2.068,0.471c0.441,0.701,0.23,1.627-0.471,2.068l-0.856,0.539
					C251.774,163.033,251.498,163.107,251.225,163.107z M260.644,157.177c-0.498,0-0.985-0.248-1.271-0.701
					c-0.441-0.701-0.23-1.627,0.471-2.068l0.856-0.539c0.7-0.44,1.627-0.231,2.068,0.471c0.441,0.701,0.23,1.627-0.471,2.068
					l-0.856,0.539C261.193,157.103,260.917,157.177,260.644,157.177z M270.063,151.246c-0.497,0-0.984-0.248-1.27-0.7
					c-0.442-0.7-0.232-1.627,0.469-2.068l0.856-0.54c0.699-0.442,1.627-0.231,2.068,0.469c0.442,0.7,0.232,1.627-0.469,2.068
					l-0.856,0.54C270.614,151.172,270.337,151.246,270.063,151.246z M279.482,145.314c-0.498,0-0.985-0.248-1.271-0.701
					c-0.441-0.701-0.23-1.627,0.471-2.068l0.856-0.539c0.699-0.441,1.627-0.231,2.068,0.471c0.441,0.701,0.23,1.627-0.471,2.068
					l-0.856,0.539C280.032,145.24,279.756,145.314,279.482,145.314z"/>
			</g>
			<g>
				<path fill="#F9D7DD" d="M288.902,139.384c-0.498,0-0.984-0.248-1.27-0.7c-0.442-0.701-0.232-1.627,0.469-2.069l0.423-0.267
					c0.454-0.285,1.03-0.308,1.503-0.056l0.441,0.234c0.732,0.388,1.01,1.296,0.622,2.028c-0.333,0.626-1.046,0.92-1.704,0.748
					C289.229,139.358,289.065,139.384,288.902,139.384z"/>
			</g>
			<g>
				<path fill="#F9D7DD" d="M329.012,160.159c-0.237,0-0.478-0.056-0.701-0.175l-0.892-0.473c-0.732-0.388-1.011-1.296-0.623-2.027
					c0.389-0.732,1.298-1.012,2.027-0.623l0.892,0.473c0.732,0.388,1.011,1.296,0.623,2.027
					C330.068,159.87,329.549,160.159,329.012,160.159z M319.2,154.957c-0.237,0-0.478-0.056-0.701-0.175l-0.893-0.473
					c-0.732-0.388-1.011-1.295-0.623-2.027c0.388-0.731,1.299-1.012,2.027-0.623l0.893,0.473c0.731,0.388,1.011,1.295,0.623,2.027
					C320.258,154.667,319.737,154.957,319.2,154.957z M309.389,149.756c-0.237,0-0.478-0.056-0.701-0.175l-0.893-0.473
					c-0.731-0.388-1.011-1.295-0.623-2.027s1.299-1.012,2.027-0.623l0.893,0.473c0.731,0.388,1.011,1.295,0.623,2.027
					C310.446,149.466,309.926,149.756,309.389,149.756z M299.576,144.554c-0.237,0-0.478-0.056-0.701-0.175l-0.892-0.473
					c-0.732-0.388-1.011-1.296-0.623-2.027c0.389-0.733,1.298-1.01,2.027-0.623l0.892,0.473c0.732,0.388,1.011,1.296,0.623,2.027
					C300.633,144.265,300.113,144.554,299.576,144.554z"/>
			</g>
			<g>
				<path fill="#F9D7DD" d="M338.39,166c-0.688,0-1.273-0.654-1.447-1.297c-0.511-0.447-0.667-1.298-0.335-1.924
					c0.389-0.731,1.299-1.059,2.028-0.67l0.441,0.211c0.475,0.252,0.778,0.727,0.796,1.264l0.017,0.684
					c0.027,0.828-0.621,1.732-1.449,1.732C338.424,166,338.406,166,338.39,166z"/>
			</g>
			<g>
				<path fill="#F9D7DD" d="M339.9,210c-0.805,0-1.471-0.578-1.498-1.389l-0.034-0.98c-0.028-0.828,0.62-1.507,1.448-1.535
					c0.83-0.034,1.522,0.628,1.55,1.456l0.034,0.955c0.028,0.828-0.62,1.493-1.448,1.493C339.935,210,339.918,210,339.9,210z
					 M339.523,199c-0.805,0-1.47-0.639-1.498-1.449l-0.035-1.013c-0.029-0.827,0.619-1.523,1.447-1.552
					c0.82-0.032,1.521,0.619,1.551,1.447l0.035,1.014c0.029,0.827-0.619,1.553-1.447,1.553C339.559,199,339.541,199,339.523,199z
					 M339.146,188c-0.805,0-1.471-0.703-1.498-1.514l-0.034-1.043c-0.028-0.828,0.62-1.538,1.448-1.566
					c0.831-0.03,1.521,0.612,1.55,1.44l0.034,1.072c0.028,0.828-0.62,1.61-1.448,1.61C339.18,188,339.163,188,339.146,188z
					 M338.768,177c-0.805,0-1.471-0.766-1.498-1.576l-0.034-1.074c-0.028-0.828,0.62-1.554,1.448-1.582
					c0.821-0.052,1.522,0.604,1.55,1.433l0.034,1.131c0.028,0.828-0.62,1.669-1.448,1.669C338.802,177,338.785,177,338.768,177z"/>
			</g>
			<g>
				<path fill="#F9D7DD" d="M339.84,221.002c-0.498,0-0.984-0.248-1.27-0.7c-0.38-0.603-0.278-1.371,0.202-1.855
					c0.132-0.671,0.711-1.187,1.423-1.21c0.823-0.064,1.521,0.622,1.549,1.449l0.017,0.5c0.018,0.532-0.248,1.034-0.699,1.318
					l-0.423,0.267C340.391,220.928,340.113,221.002,339.84,221.002z"/>
			</g>
			<g>
				<path fill="#F9D7DD" d="M302.161,244.723c-0.498,0-0.985-0.248-1.271-0.701c-0.441-0.701-0.23-1.627,0.471-2.068l0.856-0.539
					c0.699-0.44,1.627-0.23,2.068,0.471s0.23,1.627-0.471,2.068l-0.856,0.539C302.711,244.648,302.435,244.723,302.161,244.723z
					 M311.581,238.793c-0.498,0-0.984-0.248-1.271-0.7c-0.441-0.701-0.231-1.627,0.47-2.069l0.855-0.539
					c0.699-0.44,1.626-0.23,2.069,0.47c0.441,0.701,0.231,1.627-0.47,2.069l-0.855,0.539
					C312.132,238.719,311.854,238.793,311.581,238.793z M321,232.862c-0.498,0-0.985-0.248-1.271-0.701
					c-0.441-0.701-0.23-1.627,0.471-2.068l0.856-0.539c0.7-0.44,1.627-0.231,2.068,0.471c0.441,0.701,0.23,1.627-0.471,2.068
					l-0.856,0.539C321.55,232.788,321.273,232.862,321,232.862z M330.42,226.932c-0.498,0-0.985-0.248-1.271-0.701
					c-0.441-0.701-0.23-1.627,0.471-2.068l0.856-0.539c0.7-0.44,1.627-0.23,2.068,0.471s0.23,1.627-0.471,2.068l-0.856,0.539
					C330.97,226.857,330.693,226.932,330.42,226.932z"/>
			</g>
			<g>
				<path fill="#F9D7DD" d="M293.173,250.381c-0.241,0-0.483-0.059-0.703-0.175l-0.441-0.234c-0.732-0.389-1.01-1.297-0.622-2.028
					c0.333-0.627,1.047-0.919,1.704-0.749c0.641-0.218,1.376,0.02,1.754,0.62c0.442,0.7,0.232,1.627-0.469,2.068l-0.423,0.267
					C293.729,250.304,293.451,250.381,293.173,250.381z"/>
			</g>
			<g>
				<path fill="#F9D7DD" d="M283.811,245.418c-0.237,0-0.478-0.056-0.701-0.175l-0.892-0.473c-0.732-0.388-1.011-1.296-0.623-2.027
					c0.389-0.732,1.298-1.011,2.027-0.623l0.892,0.473c0.732,0.388,1.011,1.296,0.623,2.027
					C284.867,245.129,284.348,245.418,283.811,245.418z M273.999,240.217c-0.237,0-0.479-0.056-0.702-0.175l-0.893-0.474
					c-0.731-0.389-1.01-1.297-0.622-2.028c0.389-0.732,1.3-1.011,2.028-0.622l0.893,0.474c0.731,0.389,1.01,1.297,0.622,2.028
					C275.056,239.928,274.536,240.217,273.999,240.217z M264.188,235.015c-0.237,0-0.478-0.056-0.701-0.175l-0.893-0.473
					c-0.731-0.388-1.011-1.295-0.623-2.027s1.299-1.012,2.027-0.623l0.893,0.473c0.731,0.388,1.011,1.295,0.623,2.027
					C265.245,234.725,264.725,235.015,264.188,235.015z M254.376,229.813c-0.237,0-0.479-0.056-0.702-0.175l-0.893-0.474
					c-0.731-0.389-1.01-1.297-0.622-2.028c0.39-0.731,1.3-1.01,2.028-0.622l0.893,0.474c0.731,0.389,1.01,1.297,0.622,2.028
					C255.433,229.524,254.913,229.813,254.376,229.813z"/>
			</g>
		</g>
		<g>
			<path fill="#F9D7DD" d="M309.579,314.771l-18.627-29.544l-14.664,27.707l-0.884-0.468l14.933-28.215l-6.144-9.744l-17.643,33.265
				l-0.884-0.469l17.911-33.771l-0.132-0.21l0.366-0.231l4.813-9.076l0.884,0.469l-4.776,9.006l6.144,9.744l5.399-10.203
				l-3.511-5.575l0.847-0.533l3.204,5.089l1.51-2.853l0.884,0.468l-1.778,3.36l22.292,35.398l-0.847,0.533l-21.985-34.911
				l-5.399,10.202l18.933,30.029L309.579,314.771z M328.169,303.066l-26.078-41.484l0.847-0.532l26.078,41.484L328.169,303.066z
				 M256.832,302.619l-0.884-0.469l22.959-43.289l0.884,0.469L256.832,302.619z M247.113,297.466l-0.884-0.469l22.959-43.288
				l0.884,0.469L247.113,297.466z M337.478,297.206l-26.078-41.484l0.847-0.532l26.078,41.484L337.478,297.206z M237.385,292.309
				l-0.883-0.469l22.979-43.277l0.883,0.469L237.385,292.309z M346.803,291.335l-26.111-41.463l0.847-0.533l26.111,41.463
				L346.803,291.335z M227.685,287.165l-0.883-0.468l22.941-43.297l0.883,0.468L227.685,287.165z M356.106,285.478l-26.1-41.471
				l0.846-0.532l26.1,41.471L356.106,285.478z M217.966,282.013l-0.883-0.468l22.941-43.297l0.883,0.468L217.966,282.013z
				 M365.415,279.617l-26.1-41.471l0.846-0.532l26.1,41.471L365.415,279.617z M208.239,276.856l-0.884-0.469l15.718-29.637
				l-11.527,0.395l-13.025,24.559l-0.884-0.469l12.756-24.05l-29.947,1.024l-0.034-0.999l30.521-1.044l5.399-10.181l-36.261,1.205
				l-0.033-0.999l36.834-1.224l3.724-7.022l0.884,0.469l-3.455,6.516l10.986-0.365l0.031,0.934l1.272-2.4l0.884,0.469l-6.431,12.126
				l4.614-0.158l0.034,0.999l-5.188,0.178L208.239,276.856z M217.484,235.948l-5.398,10.179l11.528-0.395l5.393-10.167
				L217.484,235.948z M374.74,273.746l-26.133-41.449l0.846-0.533l26.133,41.449L374.74,273.746z M384.038,267.893l-16.736-26.577
				l-10.77,0.372l-0.005-0.142l10.687-0.369l-6.171-9.799l-4.854,0.166l-0.034-1l4.271-0.146l-2.499-3.969l0.847-0.533l2.81,4.462
				l11.576-0.396l-5.913-9.401l0.676-0.425l-12.106,0.414l-0.034-0.999l48.971-1.676l0.034,0.999l-36.795,1.259l6.161,9.795
				l30.973-1.059l0.034,1l-30.391,1.039l6.162,9.795l24.567-0.848l0.49,14.223l-12.652,7.959l-13.311-21.161l-11.566,0.398
				l16.426,26.084L384.038,267.893z M362.2,231.339l6.171,9.798l11.566-0.398l-6.161-9.796L362.2,231.339z M179.698,226.198
				l-0.033-0.999l48.973-1.627l0.033,0.999L179.698,226.198z M179.327,215.229l-0.034-0.999l48.971-1.676l0.034,0.999
				L179.327,215.229z M355.442,209.557l-0.034-1l48.971-1.674l0.034,1L355.442,209.557z M178.954,204.234l-0.034-1l48.971-1.674
				l0.034,1L178.954,204.234z M355.069,198.563l-0.034-0.999l48.971-1.676l0.034,0.999L355.069,198.563z M178.58,193.217
				l-0.033-0.999l48.973-1.627l0.033,0.999L178.58,193.217z M354.694,187.546l-0.033-1l48.973-1.627l0.033,1L354.694,187.546z
				 M178.207,182.224l-0.033-1l48.973-1.627l0.033,1L178.207,182.224z M354.321,176.552l-0.033-0.999l48.973-1.627l0.033,0.999
				L354.321,176.552z M177.836,171.254l-0.034-0.999l48.971-1.676l0.034,0.999L177.836,171.254z M353.948,165.559l-0.033-1
				l48.973-1.627l0.033,1L353.948,165.559z M221.502,162.005l-2.004-3.182l-42.035,1.437l-0.034-1l41.452-1.417l-6.163-9.784
				l-35.629,1.184l-0.033-0.999l35.045-1.164l-16.714-26.535l0.846-0.533l17.025,27.028l11.583-0.385l-20.154-31.966l0.846-0.342
				L225.998,147h0.03l0.002-0.141l5.635,8.842l-0.846,0.485l-5.361-8.527l-11.583,0.372l6.162,9.778l6.362-0.221l0.034,0.999
				l-5.779,0.196l1.693,2.688L221.502,162.005z M359.586,157.325l-0.884-0.469l1.328-2.506l-6.455,0.214l-0.033-0.999l7.027-0.233
				l5.391-10.174l-11.541,0.395l-4.57,8.609l-0.883-0.469l4.301-8.101l-0.063,0.002l-0.034-1l0.64-0.021l18.136-34.157l0.883,0.469
				l-17.866,33.648l11.539-0.395l15.144-28.58l0.884,0.468L367.653,142.1l34.486-1.179l0.034,1l-35.061,1.198l-5.392,10.175
				l40.793-1.355l0.033,0.999l-41.365,1.374L359.586,157.325z M240.107,150.289l-26.094-41.474l0.847-0.533l26.094,41.474
				L240.107,150.289z M340.139,147.015l-0.883-0.469l22.961-43.287l0.883,0.468L340.139,147.015z M249.416,144.429l-26.094-41.474
				l0.847-0.533l26.094,41.474L249.416,144.429z M330.42,141.862l-0.883-0.469l22.961-43.287l0.883,0.468L330.42,141.862z
				 M258.725,138.567l-26.094-41.474l0.847-0.533l26.094,41.474L258.725,138.567z M320.703,136.71l-0.884-0.469l22.959-43.288
				l0.884,0.469L320.703,136.71z M268.033,132.706l-26.094-41.474l0.847-0.533l26.094,41.474L268.033,132.706z M310.993,131.562
				l-0.884-0.468l22.941-43.298l0.884,0.468L310.993,131.562z M277.342,126.845l-26.094-41.474l0.847-0.533l26.094,41.474
				L277.342,126.845z M301.274,126.41l-0.884-0.468l22.941-43.298l0.884,0.468L301.274,126.41z M291.547,121.252l-0.884-0.469
				l4.057-7.648l-6.143-9.753l-5.402,10.198l4.322,6.871l-0.847,0.533l-4.017-6.384l-0.797,1.504l-0.884-0.468l1.066-2.012
				l-21.463-34.113l0.847-0.533l21.156,33.626l5.403-10.197l-18.106-28.751l0.847-0.533l17.8,28.265l15.392-29.049l0.884,0.468
				l-15.66,29.557l6.142,9.753l18.362-34.621l0.884,0.469l-18.631,35.128l0.939,1.493l-0.847,0.533l-0.634-1.006L291.547,121.252z"
				/>
		</g>
	</g>
	<g opacity="0.54" clip-path="url(#SVGID_5_)">
		<g opacity="0.14">
			<polygon fill="#F06B95" points="158.754,105.164 121.426,128.667 122.921,172.753 161.743,193.335 199.072,169.833 
				197.576,125.746 158.754,105.164 			"/>
		</g>
		<g>
			<g>
				<path fill="#F9D7DD" d="M113.563,180.611c-0.237,0-0.478-0.056-0.701-0.175l-0.442-0.234c-0.475-0.252-0.778-0.737-0.796-1.274
					l-0.017-0.5c-0.028-0.827,0.62-1.521,1.448-1.55c0.691-0.05,1.321,0.447,1.499,1.104c0.512,0.448,0.669,1.205,0.336,1.832
					C114.621,180.322,114.101,180.611,113.563,180.611z"/>
			</g>
			<g>
				<path fill="#F9D7DD" d="M112.762,170c-0.805,0-1.471-0.757-1.498-1.567l-0.034-1.071c-0.028-0.828,0.621-1.551,1.448-1.579
					c0.84-0.04,1.522,0.606,1.55,1.434l0.034,1.123c0.028,0.828-0.621,1.661-1.448,1.661C112.796,170,112.779,170,112.762,170z
					 M112.385,159c-0.805,0-1.471-0.819-1.498-1.63l-0.034-1.101c-0.028-0.828,0.621-1.567,1.448-1.596
					c0.818-0.052,1.522,0.598,1.55,1.426l0.034,1.181c0.028,0.828-0.621,1.72-1.448,1.72C112.419,159,112.402,159,112.385,159z
					 M112.007,148c-0.805,0-1.471-0.881-1.498-1.691l-0.034-1.134c-0.028-0.828,0.621-1.582,1.448-1.61
					c0.843-0.039,1.522,0.59,1.55,1.418l0.034,1.24c0.028,0.828-0.621,0.777-1.448,1.777C112.042,148,112.024,148,112.007,148z
					 M111.63,136c-0.805,0-1.47-0.443-1.498-1.254l-0.035-0.914c-0.028-0.828,0.62-1.474,1.448-1.502
					c0.831-0.008,1.521,0.644,1.55,1.472l0.035,0.83c0.028,0.828-0.62,1.368-1.448,1.368C111.665,136,111.648,136,111.63,136z"/>
			</g>
			<g>
				<path fill="#F9D7DD" d="M111.253,125c-0.805,0-1.47-0.506-1.498-1.316l-0.017-0.434c-0.019-0.533,0.248-1.003,0.7-1.287
					l0.423-0.25c0.701-0.442,1.628-0.222,2.068,0.478c0.379,0.602,0.278,1.243-0.203,1.728c-0.131,0.669-0.71,1.081-1.421,1.081
					C111.288,125,111.271,125,111.253,125z"/>
			</g>
			<g>
				<path fill="#F9D7DD" d="M120.225,119.107c-0.499,0-0.986-0.248-1.271-0.701c-0.441-0.701-0.23-1.627,0.471-2.068l0.856-0.539
					c0.702-0.441,1.627-0.23,2.068,0.471c0.441,0.701,0.23,1.627-0.471,2.068l-0.856,0.539
					C120.774,119.033,120.498,119.107,120.225,119.107z M129.644,113.176c-0.499,0-0.986-0.248-1.271-0.701
					c-0.441-0.701-0.23-1.627,0.471-2.068l0.856-0.539c0.702-0.441,1.627-0.23,2.068,0.471c0.441,0.701,0.23,1.627-0.471,2.068
					l-0.856,0.539C130.193,113.102,129.917,113.176,129.644,113.176z M139.063,107.246c-0.499,0-0.986-0.248-1.271-0.701
					c-0.441-0.701-0.23-1.627,0.471-2.068l0.856-0.539c0.702-0.441,1.627-0.23,2.068,0.471c0.441,0.701,0.23,1.627-0.471,2.068
					l-0.856,0.539C139.613,107.171,139.336,107.246,139.063,107.246z M148.483,101.315c-0.499,0-0.986-0.248-1.271-0.701
					c-0.441-0.701-0.23-1.627,0.471-2.068l0.856-0.539c0.702-0.44,1.627-0.23,2.068,0.471c0.441,0.701,0.23,1.627-0.471,2.068
					l-0.856,0.539C149.032,101.241,148.756,101.315,148.483,101.315z"/>
			</g>
			<g>
				<path fill="#F9D7DD" d="M157.902,95.384c-0.499,0-0.986-0.248-1.271-0.701c-0.442-0.701-0.231-1.627,0.47-2.068l0.423-0.267
					c0.455-0.287,1.028-0.307,1.502-0.056l0.442,0.234c0.732,0.388,1.011,1.296,0.623,2.028c-0.333,0.627-1.047,0.922-1.704,0.749
					C158.228,95.358,158.064,95.384,157.902,95.384z"/>
			</g>
			<g>
				<path fill="#F9D7DD" d="M198.012,116.159c-0.237,0-0.478-0.057-0.701-0.175l-0.892-0.473c-0.732-0.388-1.011-1.296-0.623-2.028
					c0.39-0.732,1.298-1.008,2.027-0.623l0.892,0.473c0.732,0.388,1.011,1.296,0.623,2.028
					C199.068,115.869,198.549,116.159,198.012,116.159z M188.2,110.958c-0.237,0-0.478-0.056-0.701-0.175l-0.893-0.473
					c-0.732-0.388-1.011-1.295-0.623-2.028c0.388-0.733,1.298-1.01,2.027-0.624l0.893,0.473c0.731,0.388,1.011,1.295,0.623,2.028
					C189.258,110.667,188.737,110.958,188.2,110.958z M178.389,105.756c-0.237,0-0.478-0.057-0.701-0.175l-0.893-0.473
					c-0.732-0.388-1.011-1.296-0.623-2.028c0.389-0.731,1.299-1.008,2.027-0.623l0.893,0.473c0.732,0.388,1.011,1.296,0.623,2.028
					C179.445,105.466,178.926,105.756,178.389,105.756z M168.576,100.554c-0.237,0-0.478-0.057-0.701-0.175l-0.892-0.473
					c-0.732-0.388-1.011-1.296-0.623-2.028c0.389-0.732,1.298-1.009,2.027-0.623l0.892,0.473c0.732,0.388,1.011,1.296,0.623,2.028
					C169.633,100.264,169.113,100.554,168.576,100.554z"/>
			</g>
			<g>
				<path fill="#F9D7DD" d="M207.39,122c-0.688,0-1.273-0.655-1.447-1.296c-0.511-0.448-0.667-1.298-0.335-1.925
					c0.389-0.73,1.299-1.057,2.028-0.668l0.441,0.21c0.475,0.252,0.778,0.727,0.796,1.263l0.017,0.684
					c0.027,0.828-0.621,1.732-1.449,1.732C207.424,122,207.406,122,207.39,122z"/>
			</g>
			<g>
				<path fill="#F9D7DD" d="M208.9,166c-0.805,0-1.471-0.578-1.498-1.389l-0.034-0.98c-0.028-0.828,0.62-1.507,1.448-1.535
					c0.815-0.048,1.522,0.628,1.55,1.456l0.034,0.955c0.028,0.828-0.62,1.493-1.448,1.493C208.935,166,208.918,166,208.9,166z
					 M208.523,155c-0.805,0-1.47-0.639-1.498-1.449l-0.035-1.013c-0.029-0.827,0.619-1.523,1.447-1.552
					c0.829-0.046,1.521,0.619,1.551,1.447l0.035,1.014c0.029,0.827-0.619,1.553-1.447,1.553C208.559,155,208.541,155,208.523,155z
					 M208.146,144c-0.805,0-1.471-0.703-1.498-1.514l-0.034-1.043c-0.028-0.828,0.62-1.538,1.448-1.566
					c0.816-0.022,1.522,0.612,1.55,1.44l0.034,1.072c0.028,0.828-0.62,1.61-1.448,1.61C208.18,144,208.163,144,208.146,144z
					 M207.768,133c-0.805,0-1.471-0.766-1.498-1.576l-0.034-1.074c-0.028-0.828,0.62-1.554,1.448-1.582
					c0.829-0.021,1.521,0.604,1.55,1.432l0.034,1.131c0.028,0.828-0.62,1.669-1.448,1.669C207.802,133,207.785,133,207.768,133z"/>
			</g>
			<g>
				<path fill="#F9D7DD" d="M208.84,177.002c-0.498,0-0.984-0.248-1.27-0.7c-0.38-0.603-0.278-1.371,0.202-1.855
					c0.132-0.671,0.711-1.187,1.423-1.21c0.817-0.056,1.521,0.622,1.549,1.449l0.017,0.5c0.018,0.532-0.248,1.034-0.699,1.318
					l-0.423,0.267C209.391,176.928,209.113,177.002,208.84,177.002z"/>
			</g>
			<g>
				<path fill="#F9D7DD" d="M171.161,200.723c-0.498,0-0.985-0.248-1.271-0.701c-0.441-0.701-0.23-1.627,0.471-2.068l0.856-0.539
					c0.7-0.441,1.627-0.231,2.068,0.471c0.441,0.701,0.23,1.627-0.471,2.068l-0.856,0.539
					C171.711,200.648,171.435,200.723,171.161,200.723z M180.581,194.793c-0.498,0-0.984-0.248-1.271-0.7
					c-0.441-0.701-0.231-1.627,0.47-2.069l0.855-0.539c0.7-0.441,1.626-0.23,2.069,0.47c0.441,0.701,0.231,1.627-0.47,2.069
					l-0.855,0.539C181.132,194.719,180.854,194.793,180.581,194.793z M190,188.862c-0.498,0-0.985-0.248-1.271-0.701
					c-0.441-0.701-0.23-1.627,0.471-2.068l0.856-0.539c0.699-0.441,1.627-0.231,2.068,0.471c0.441,0.701,0.23,1.627-0.471,2.068
					l-0.856,0.539C190.55,188.788,190.273,188.862,190,188.862z M199.42,182.932c-0.498,0-0.985-0.248-1.271-0.701
					c-0.441-0.701-0.23-1.627,0.471-2.068l0.856-0.539c0.699-0.441,1.626-0.231,2.068,0.471c0.441,0.701,0.23,1.627-0.471,2.068
					l-0.856,0.539C199.97,182.857,199.693,182.932,199.42,182.932z"/>
			</g>
			<g>
				<path fill="#F9D7DD" d="M162.173,206.381c-0.241,0-0.483-0.059-0.703-0.175l-0.441-0.234c-0.732-0.389-1.01-1.297-0.622-2.028
					c0.333-0.627,1.045-0.919,1.704-0.749c0.641-0.219,1.375,0.02,1.754,0.62c0.442,0.7,0.232,1.627-0.469,2.068l-0.423,0.267
					C162.729,206.304,162.451,206.381,162.173,206.381z"/>
			</g>
			<g>
				<path fill="#F9D7DD" d="M152.81,201.418c-0.237,0-0.477-0.056-0.701-0.175l-0.892-0.473c-0.732-0.388-1.011-1.296-0.624-2.027
					c0.388-0.732,1.296-1.014,2.028-0.623l0.892,0.473c0.732,0.388,1.011,1.296,0.624,2.027
					C153.868,201.128,153.348,201.418,152.81,201.418z M142.999,196.217c-0.237,0-0.478-0.056-0.702-0.175l-0.892-0.474
					c-0.731-0.389-1.01-1.297-0.621-2.028c0.389-0.731,1.295-1.011,2.028-0.622l0.892,0.474c0.731,0.389,1.01,1.297,0.621,2.028
					C144.055,195.928,143.536,196.217,142.999,196.217z M133.187,191.015c-0.237,0-0.477-0.056-0.701-0.175l-0.892-0.473
					c-0.732-0.388-1.011-1.296-0.623-2.027c0.387-0.733,1.295-1.013,2.028-0.623l0.892,0.473c0.732,0.388,1.011,1.296,0.623,2.027
					C134.244,190.726,133.724,191.015,133.187,191.015z M123.375,185.813c-0.237,0-0.478-0.056-0.702-0.175l-0.892-0.474
					c-0.731-0.389-1.01-1.297-0.621-2.028c0.389-0.732,1.296-1.011,2.028-0.622l0.892,0.474c0.731,0.389,1.01,1.297,0.621,2.028
					C124.432,185.524,123.912,185.813,123.375,185.813z"/>
			</g>
		</g>
		<g>
			<path fill="#F9D7DD" d="M178.568,270.777l-18.609-29.55l-14.689,27.697l-0.884-0.469l14.959-28.204l-6.149-9.766l-17.63,33.292
				l-0.883-0.468l17.899-33.8l-0.124-0.196l0.342-0.216l4.814-9.091l0.883,0.468l-4.761,8.991l6.15,9.766l5.406-10.192l-3.519-5.591
				l0.846-0.532l3.213,5.105l1.515-2.855l0.884,0.469l-1.783,3.363l22.271,35.389l-0.846,0.532l-21.966-34.903l-5.406,10.192
				l18.915,30.035L178.568,270.777z M197.197,259.049L171.064,217.6l0.846-0.533l26.133,41.449L197.197,259.049z M125.846,258.626
				l-0.883-0.468l22.932-43.303l0.883,0.468L125.846,258.626z M116.114,253.467l-0.884-0.469l22.96-43.289l0.883,0.469
				L116.114,253.467z M206.506,253.188l-26.133-41.449l0.846-0.533l26.133,41.449L206.506,253.188z M106.396,248.314l-0.884-0.469
				l22.96-43.289l0.883,0.469L106.396,248.314z M215.787,247.345l-26.078-41.484l0.847-0.532l26.078,41.484L215.787,247.345z
				 M96.671,243.159l-0.883-0.469l22.97-43.283l0.883,0.469L96.671,243.159z M225.096,241.484L199.018,200l0.847-0.532
				l26.078,41.484L225.096,241.484z M86.953,238.007l-0.883-0.469l22.97-43.283l0.883,0.469L86.953,238.007z M234.421,235.613
				L208.31,194.15l0.847-0.533l26.111,41.463L234.421,235.613z M77.253,232.863l-0.883-0.468l15.694-29.635l-11.522,0.389
				L67.54,227.714l-0.884-0.468l12.733-24.059l-29.945,1.011l-0.034-0.999l30.517-1.029l5.393-10.188l-36.249,1.223l-0.034-0.999
				l36.821-1.242l3.718-7.025l0.884,0.468l-3.45,6.519l10.999-0.371l0.031,0.92l1.26-2.38l0.883,0.468l-6.43,12.143l4.628-0.156
				l0.034,0.999l-5.202,0.176L77.253,232.863z M86.473,191.942l-5.393,10.188l11.522-0.389l5.396-10.188L86.473,191.942z
				 M243.725,229.756l-26.1-41.471l0.846-0.532l26.1,41.471L243.725,229.756z M253.033,223.896l-16.729-26.583l-10.771,0.369
				l-0.005-0.143l10.688-0.366l-6.164-9.796l-4.862,0.167l-0.034-0.999l4.28-0.146l-2.501-3.974l0.846-0.532l2.812,4.466
				l11.561-0.396l-5.917-9.394l0.688-0.434l-12.107,0.414l-0.034-1l48.971-1.674l0.034,1l-36.813,1.258l6.17,9.796l30.981-1.061
				l0.034,0.999l-30.399,1.04l6.17,9.795l24.568-0.842l0.487,14.21l-12.636,7.959l-13.324-21.153l-11.566,0.396l16.42,26.091
				L253.033,223.896z M231.207,187.338l6.164,9.795l11.566-0.396l-6.17-9.795L231.207,187.338z M48.699,182.223l-0.034-0.999
				l48.972-1.676l0.034,0.999L48.699,182.223z M48.326,171.217l-0.034-0.999l48.972-1.652l0.034,0.999L48.326,171.217z
				 M224.442,165.557l-0.034-0.999l48.971-1.676l0.034,0.999L224.442,165.557z M47.954,160.234l-0.034-1l48.972-1.674l0.034,1
				L47.954,160.234z M224.069,154.563l-0.034-1l48.971-1.674l0.034,1L224.069,154.563z M47.58,149.229l-0.034-0.999l48.972-1.652
				l0.034,0.999L47.58,149.229z M223.694,143.545l-0.033-0.999l48.973-1.627l0.033,1L223.694,143.545z M47.208,138.235l-0.034-1
				l48.973-1.65l0.034,1L47.208,138.235z M223.321,132.551l-0.033-1l48.973-1.627l0.033,1L223.321,132.551z M46.835,127.254
				l-0.034-1l48.972-1.675l0.034,1L46.835,127.254z M222.948,121.558l-0.033-1l48.973-1.627l0.033,1L222.948,121.558z
				 M90.504,118.002l-1.998-3.171l-42.044,1.417l-0.034-1l41.46-1.397l-6.173-9.797l-35.626,1.201l-0.034-1l35.042-1.181
				L64.382,76.546l0.846-0.533l17.027,27.021l11.567-0.39L73.699,70.68l0.846-0.533l20.435,32.459l0.048-0.001l0.002,0.082
				l5.621,8.928l-0.846,0.533l-5.365-8.521l-11.567,0.39l6.174,9.797l6.354-0.214l0.034,1l-5.771,0.194l1.687,2.677L90.504,118.002z
				 M228.575,113.319l-0.883-0.468l1.327-2.5l-6.444,0.214l-0.033-1l7.018-0.233l5.396-10.173l-11.521,0.394l-4.567,8.62
				l-0.884-0.468l4.299-8.112l-0.079,0.003l-0.034-1l0.653-0.022l18.103-34.167l0.884,0.468l-17.834,33.659l11.521-0.394
				l15.157-28.575l0.883,0.468L236.648,98.1l34.491-1.18l0.034,1l-35.066,1.199l-5.396,10.174l40.804-1.355l0.033,1l-41.377,1.375
				L228.575,113.319z M109.113,106.286L83.007,64.819l0.846-0.533l26.105,41.467L109.113,106.286z M209.148,103.02l-0.884-0.468
				l22.941-43.298l0.884,0.468L209.148,103.02z M118.421,100.425L92.316,58.958l0.846-0.533l26.105,41.467L118.421,100.425z
				 M199.421,97.862l-0.884-0.469l22.959-43.288l0.884,0.469L199.421,97.862z M127.738,94.559l-26.122-41.456l0.846-0.533
				l26.122,41.456L127.738,94.559z M189.711,92.714l-0.884-0.468l22.941-43.298l0.884,0.468L189.711,92.714z M137.039,88.703
				l-26.105-41.467l0.846-0.533l26.105,41.467L137.039,88.703z M179.992,87.562l-0.884-0.468l22.941-43.298l0.884,0.468
				L179.992,87.562z M146.347,82.842l-26.105-41.467l0.846-0.533l26.105,41.467L146.347,82.842z M170.265,82.405l-0.884-0.469
				l22.959-43.288l0.884,0.469L170.265,82.405z M160.545,77.251l-0.883-0.468l4.055-7.644l-6.144-9.759l-5.404,10.187l4.333,6.881
				l-0.846,0.533l-4.026-6.396l-0.803,1.514l-0.883-0.468l1.072-2.021L129.55,35.514l0.846-0.533l21.159,33.61l5.403-10.188
				l-18.1-28.751l0.846-0.533L157.5,57.386l15.405-29.042l0.883,0.468l-15.674,29.549l6.144,9.759l18.366-34.625l0.883,0.468
				l-18.635,35.131l0.939,1.492l-0.847,0.533l-0.633-1.006L160.545,77.251z"/>
		</g>
	</g>
</g>
</svg>
