<?xml version="1.0" encoding="utf-8"?>
<!-- Generator: Adobe Illustrator 15.0.0, SVG Export Plug-In . SVG Version: 6.00 Build 0)  -->
<!DOCTYPE svg PUBLIC "-//W3C//DTD SVG 1.1//EN" "http://www.w3.org/Graphics/SVG/1.1/DTD/svg11.dtd">
<svg version="1.1" id="Warstwa_1" xmlns="http://www.w3.org/2000/svg" xmlns:xlink="http://www.w3.org/1999/xlink" x="0px" y="0px"
	 width="320px" height="280px" viewBox="0 0 320 280" enable-background="new 0 0 320 280" xml:space="preserve">
<g>
	<defs>
		<rect id="SVGID_1_" x="964" y="413" width="320" height="281"/>
	</defs>
	<clipPath id="SVGID_2_">
		<use xlink:href="#SVGID_1_"  overflow="visible"/>
	</clipPath>
	<linearGradient id="SVGID_3_" gradientUnits="userSpaceOnUse" x1="1124" y1="708" x2="1124" y2="410">
		<stop  offset="0" style="stop-color:#F9D7DD"/>
		<stop  offset="0.3262" style="stop-color:#FCEAED"/>
		<stop  offset="0.6998" style="stop-color:#FEFAFA"/>
		<stop  offset="1" style="stop-color:#FFFFFF"/>
	</linearGradient>
	<rect x="922" y="410" clip-path="url(#SVGID_2_)" fill="url(#SVGID_3_)" fill-opacity="0.55" width="404" height="298"/>
	<g clip-path="url(#SVGID_2_)">
		<g opacity="0.14">
			<path fill="#F06B95" d="M1018.059,618l20.565,36l-20.506,36h-40.687l-20.535-36l20.535-36H1018 M1043,575h-90.458l-45.234,79
				l45.234,79h90.466l45.23-79L1043,575.125V575z"/>
		</g>
		<g>
			<polyline fill="none" stroke="#F9D7DD" stroke-width="3" stroke-linecap="round" stroke-linejoin="round" points="947.254,742.5 
				946.754,742.5 946.505,742.066 			"/>
			
				<line fill="none" stroke="#F9D7DD" stroke-width="3" stroke-linecap="round" stroke-linejoin="round" stroke-dasharray="1.0342,10.3418" x1="941.354" y1="733.099" x2="898.6" y2="658.667"/>
			<polyline fill="none" stroke="#F9D7DD" stroke-width="3" stroke-linecap="round" stroke-linejoin="round" points="
				896.024,654.184 895.775,653.75 896.024,653.316 			"/>
			
				<line fill="none" stroke="#F9D7DD" stroke-width="3" stroke-linecap="round" stroke-linejoin="round" stroke-dasharray="1.0342,10.3418" x1="901.176" y1="644.349" x2="943.93" y2="569.917"/>
			<polyline fill="none" stroke="#F9D7DD" stroke-width="3" stroke-linecap="round" stroke-linejoin="round" points="
				946.505,565.434 946.754,565 947.254,565 			"/>
			
				<line fill="none" stroke="#F9D7DD" stroke-width="3" stroke-linecap="round" stroke-linejoin="round" stroke-dasharray="1,10" x1="958" y1="565.5" x2="1043" y2="565.5"/>
			<polyline fill="none" stroke="#F9D7DD" stroke-width="3" stroke-linecap="round" stroke-linejoin="round" points="1048.296,565 
				1048.796,565 1049.045,565.434 			"/>
			
				<line fill="none" stroke="#F9D7DD" stroke-width="3" stroke-linecap="round" stroke-linejoin="round" stroke-dasharray="1.0342,10.3418" x1="1054.196" y1="574.401" x2="1096.95" y2="648.833"/>
			<polyline fill="none" stroke="#F9D7DD" stroke-width="3" stroke-linecap="round" stroke-linejoin="round" points="
				1099.525,653.316 1099.774,653.75 1099.525,654.184 			"/>
			
				<line fill="none" stroke="#F9D7DD" stroke-width="3" stroke-linecap="round" stroke-linejoin="round" stroke-dasharray="1.0342,10.3418" x1="1094.374" y1="663.151" x2="1051.62" y2="737.583"/>
			<polyline fill="none" stroke="#F9D7DD" stroke-width="3" stroke-linecap="round" stroke-linejoin="round" points="
				1049.045,742.066 1048.796,742.5 1048.296,742.5 			"/>
			
				<line fill="none" stroke="#F9D7DD" stroke-width="3" stroke-linecap="round" stroke-linejoin="round" stroke-dasharray="1,10" x1="1038" y1="742.5" x2="952" y2="742.5"/>
		</g>
		<polygon fill="none" stroke="#F9D7DD" stroke-width="49" stroke-miterlimit="10" stroke-dasharray="1,10" points="923.601,782.5 
			849.646,654 923.601,525.5 1071.949,525.5 1145.903,654 1071.949,782.5 		"/>
	</g>
	<g clip-path="url(#SVGID_2_)">
		<polygon opacity="0.14" fill="#F06B95" points="1253.754,563.164 1216.426,586.667 1217.921,630.753 1256.743,651.335 
			1294.072,627.833 1292.576,583.746 1253.754,563.164 		"/>
		<g>
			<polyline fill="none" stroke="#F9D7DD" stroke-width="3" stroke-linecap="round" stroke-linejoin="round" points="
				1208.564,637.111 1208.123,636.877 1208.106,636.377 			"/>
			
				<line fill="none" stroke="#F9D7DD" stroke-width="3" stroke-linecap="round" stroke-linejoin="round" stroke-dasharray="1.0119,10.1191" x1="1207.764" y1="626.264" x2="1206.426" y2="586.822"/>
			<polyline fill="none" stroke="#F9D7DD" stroke-width="3" stroke-linecap="round" stroke-linejoin="round" points="
				1206.254,581.766 1206.237,581.266 1206.66,580.999 			"/>
			
				<line fill="none" stroke="#F9D7DD" stroke-width="3" stroke-linecap="round" stroke-linejoin="round" stroke-dasharray="1.0119,10.1191" x1="1215.224" y1="575.607" x2="1248.619" y2="554.58"/>
			<polyline fill="none" stroke="#F9D7DD" stroke-width="3" stroke-linecap="round" stroke-linejoin="round" points="
				1252.901,551.885 1253.324,551.618 1253.766,551.853 			"/>
			
				<line fill="none" stroke="#F9D7DD" stroke-width="3" stroke-linecap="round" stroke-linejoin="round" stroke-dasharray="1.0096,10.0957" x1="1262.686" y1="556.581" x2="1297.473" y2="575.023"/>
			<polyline fill="none" stroke="#F9D7DD" stroke-width="3" stroke-linecap="round" stroke-linejoin="round" points="
				1301.933,577.388 1302.374,577.622 1302.391,578.122 			"/>
			
				<line fill="none" stroke="#F9D7DD" stroke-width="3" stroke-linecap="round" stroke-linejoin="round" stroke-dasharray="1.012,10.1195" x1="1302.734" y1="588.235" x2="1304.073" y2="627.679"/>
			<polyline fill="none" stroke="#F9D7DD" stroke-width="3" stroke-linecap="round" stroke-linejoin="round" points="
				1304.245,632.735 1304.262,633.235 1303.839,633.502 			"/>
			
				<line fill="none" stroke="#F9D7DD" stroke-width="3" stroke-linecap="round" stroke-linejoin="round" stroke-dasharray="1.0119,10.1192" x1="1295.275" y1="638.893" x2="1261.878" y2="659.919"/>
			<polyline fill="none" stroke="#F9D7DD" stroke-width="3" stroke-linecap="round" stroke-linejoin="round" points="
				1257.596,662.614 1257.173,662.881 1256.731,662.646 			"/>
			
				<line fill="none" stroke="#F9D7DD" stroke-width="3" stroke-linecap="round" stroke-linejoin="round" stroke-dasharray="1.0096,10.0957" x1="1247.812" y1="657.918" x2="1213.024" y2="639.476"/>
		</g>
		<polygon fill="none" stroke="#F9D7DD" stroke-width="49" stroke-miterlimit="10" stroke-dasharray="1,10" points="
			1168.931,661.372 1165.481,559.658 1251.604,505.433 1341.565,553.126 1345.018,654.843 1258.892,709.066 		"/>
	</g>
	<g opacity="0.54" clip-path="url(#SVGID_2_)">
		<polygon opacity="0.14" fill="#F06B95" points="1122.754,519.164 1085.426,542.667 1086.921,586.753 1125.743,607.335 
			1163.072,583.833 1161.576,539.746 1122.754,519.164 		"/>
		<g>
			<polyline fill="none" stroke="#F9D7DD" stroke-width="3" stroke-linecap="round" stroke-linejoin="round" points="
				1077.564,593.111 1077.123,592.877 1077.106,592.377 			"/>
			
				<line fill="none" stroke="#F9D7DD" stroke-width="3" stroke-linecap="round" stroke-linejoin="round" stroke-dasharray="1.0119,10.1191" x1="1076.764" y1="582.264" x2="1075.426" y2="542.822"/>
			<polyline fill="none" stroke="#F9D7DD" stroke-width="3" stroke-linecap="round" stroke-linejoin="round" points="
				1075.254,537.766 1075.237,537.266 1075.66,536.999 			"/>
			
				<line fill="none" stroke="#F9D7DD" stroke-width="3" stroke-linecap="round" stroke-linejoin="round" stroke-dasharray="1.0119,10.1191" x1="1084.224" y1="531.607" x2="1117.619" y2="510.58"/>
			<polyline fill="none" stroke="#F9D7DD" stroke-width="3" stroke-linecap="round" stroke-linejoin="round" points="
				1121.901,507.885 1122.324,507.618 1122.766,507.853 			"/>
			
				<line fill="none" stroke="#F9D7DD" stroke-width="3" stroke-linecap="round" stroke-linejoin="round" stroke-dasharray="1.0096,10.0957" x1="1131.686" y1="512.581" x2="1166.473" y2="531.023"/>
			<polyline fill="none" stroke="#F9D7DD" stroke-width="3" stroke-linecap="round" stroke-linejoin="round" points="
				1170.933,533.388 1171.374,533.622 1171.391,534.122 			"/>
			
				<line fill="none" stroke="#F9D7DD" stroke-width="3" stroke-linecap="round" stroke-linejoin="round" stroke-dasharray="1.012,10.1195" x1="1171.734" y1="544.235" x2="1173.073" y2="583.679"/>
			<polyline fill="none" stroke="#F9D7DD" stroke-width="3" stroke-linecap="round" stroke-linejoin="round" points="
				1173.245,588.735 1173.262,589.235 1172.839,589.502 			"/>
			
				<line fill="none" stroke="#F9D7DD" stroke-width="3" stroke-linecap="round" stroke-linejoin="round" stroke-dasharray="1.0119,10.1192" x1="1164.275" y1="594.893" x2="1130.878" y2="615.919"/>
			<polyline fill="none" stroke="#F9D7DD" stroke-width="3" stroke-linecap="round" stroke-linejoin="round" points="
				1126.596,618.614 1126.173,618.881 1125.731,618.646 			"/>
			
				<line fill="none" stroke="#F9D7DD" stroke-width="3" stroke-linecap="round" stroke-linejoin="round" stroke-dasharray="1.0096,10.0957" x1="1116.812" y1="613.918" x2="1082.024" y2="595.476"/>
		</g>
		<polygon fill="none" stroke="#F9D7DD" stroke-width="49" stroke-miterlimit="10" stroke-dasharray="1,10" points="
			1037.931,617.372 1034.481,515.658 1120.604,461.433 1210.565,509.126 1214.018,610.843 1127.892,665.066 		"/>
	</g>
</g>
<g>
	<defs>
		<rect id="SVGID_4_" width="320" height="281"/>
	</defs>
	<clipPath id="SVGID_5_">
		<use xlink:href="#SVGID_4_"  overflow="visible"/>
	</clipPath>
	<linearGradient id="SVGID_6_" gradientUnits="userSpaceOnUse" x1="160.0005" y1="294.5" x2="160.0005" y2="-3.4995">
		<stop  offset="0" style="stop-color:#999999"/>
		<stop  offset="0.1272" style="stop-color:#AEAEAE"/>
		<stop  offset="0.3781" style="stop-color:#D1D1D1"/>
		<stop  offset="0.6145" style="stop-color:#EAEAEA"/>
		<stop  offset="0.8285" style="stop-color:#FAFAFA"/>
		<stop  offset="1" style="stop-color:#FFFFFF"/>
	</linearGradient>
	<rect x="-42" y="-3.5" clip-path="url(#SVGID_5_)" fill="url(#SVGID_6_)" fill-opacity="0.55" width="404" height="298"/>
	<g opacity="0.42" clip-path="url(#SVGID_5_)">
		<g>
			<path fill="#FFFFFF" d="M0,229.833c27.938,0,50.667,22.729,50.667,50.667S27.938,331.167,0,331.167s-50.667-22.729-50.667-50.667
				S-27.938,229.833,0,229.833 M0,186.833c-51.73,0-93.667,41.937-93.667,93.667S-51.73,374.167,0,374.167
				S93.667,332.23,93.667,280.5S51.73,186.833,0,186.833L0,186.833z"/>
		</g>
		<g>
			<path fill="#FFFFFF" d="M0.22,385.667l-1.236-0.005c-0.828-0.008-1.494-0.516-1.487-1.344c0.007-0.824,0.677-1.318,1.5-1.318
				c0.005,0,0.009,0,0.014,0l1.21-0.164c0.829,0,1.5,0.588,1.5,1.416S1.048,385.667,0.22,385.667z M10.231,385.166
				c-0.761,0-1.414-0.577-1.491-1.352c-0.082-0.824,0.52-1.559,1.344-1.641l0.984-0.103c0.822-0.091,1.563,0.505,1.653,1.329
				c0.09,0.823-0.505,1.563-1.329,1.653l-1.012,0.104C10.332,385.164,10.281,385.166,10.231,385.166z M-11.011,385.086
				c-0.053,0-0.106-0.003-0.16-0.008l-1.011-0.112c-0.823-0.095-1.414-0.839-1.319-1.661c0.095-0.823,0.828-1.422,1.662-1.319
				l0.983,0.108c0.824,0.088,1.421,0.826,1.334,1.649C-9.603,384.514-10.253,385.086-11.011,385.086z M21.134,383.501
				c-0.695,0-1.319-0.486-1.467-1.193c-0.169-0.812,0.351-1.605,1.162-1.775l0.968-0.206c0.811-0.176,1.608,0.336,1.785,1.146
				c0.177,0.809-0.336,1.608-1.146,1.785l-0.995,0.212C21.339,383.491,21.236,383.501,21.134,383.501z M-21.9,383.339
				c-0.104,0-0.21-0.011-0.317-0.033c-0.333-0.072-0.666-0.146-0.998-0.221c-0.808-0.185-1.313-0.988-1.129-1.796
				c0.184-0.808,0.985-1.313,1.796-1.13c0.319,0.073,0.64,0.145,0.961,0.213c0.81,0.175,1.325,0.972,1.151,1.782
				C-20.586,382.857-21.208,383.339-21.9,383.339z M31.797,380.68c-0.632,0-1.22-0.402-1.426-1.036
				c-0.256-0.788,0.175-1.634,0.962-1.891l0.943-0.31c0.789-0.263,1.635,0.163,1.897,0.949s-0.164,1.636-0.95,1.896l-0.963,0.317
				C32.107,380.656,31.951,380.68,31.797,380.68z M-32.542,380.437c-0.156,0-0.314-0.024-0.471-0.076l-0.968-0.325
				c-0.784-0.269-1.202-1.121-0.935-1.904c0.268-0.784,1.119-1.203,1.904-0.936l0.941,0.317c0.787,0.26,1.213,1.108,0.953,1.895
				C-31.327,380.038-31.913,380.437-32.542,380.437z M42.098,376.732c-0.574,0-1.122-0.331-1.371-0.889
				c-0.338-0.757,0.002-1.644,0.758-1.981l0.897-0.405c0.752-0.345,1.643-0.015,1.988,0.738c0.345,0.754,0.014,1.644-0.739,1.988
				l-0.924,0.419C42.509,376.69,42.302,376.732,42.098,376.732z M-42.816,376.408c-0.208,0-0.418-0.043-0.62-0.135l-0.927-0.427
				c-0.751-0.35-1.076-1.242-0.726-1.993s1.244-1.075,1.993-0.726l0.9,0.415c0.754,0.343,1.088,1.231,0.745,1.985
				C-41.701,376.082-42.246,376.408-42.816,376.408z M51.914,371.709c-0.517,0-1.019-0.267-1.298-0.745
				c-0.417-0.716-0.174-1.635,0.542-2.052l0.852-0.5c0.713-0.423,1.633-0.188,2.056,0.525c0.422,0.712,0.187,1.633-0.525,2.055
				l-0.874,0.513C52.43,371.644,52.17,371.709,51.914,371.709z M-52.6,371.307c-0.26,0-0.523-0.067-0.763-0.209l-0.873-0.522
				c-0.709-0.428-0.938-1.35-0.51-2.059c0.428-0.711,1.35-0.939,2.059-0.51l0.853,0.509c0.713,0.423,0.949,1.343,0.526,2.056
				C-51.587,371.044-52.087,371.307-52.6,371.307z M61.142,365.671c-0.461,0-0.917-0.212-1.21-0.613
				c-0.49-0.668-0.346-1.606,0.322-2.097l0.794-0.587c0.662-0.494,1.602-0.36,2.1,0.303c0.496,0.663,0.361,1.604-0.303,2.1
				l-0.817,0.604C61.761,365.576,61.45,365.671,61.142,365.671z M-61.785,365.196c-0.312,0-0.626-0.097-0.896-0.298l-0.813-0.61
				c-0.66-0.501-0.79-1.441-0.289-2.102c0.5-0.66,1.442-0.788,2.102-0.289l0.793,0.597c0.664,0.495,0.801,1.435,0.306,2.099
				C-60.876,364.988-61.328,365.196-61.785,365.196z M69.682,358.69c-0.409,0-0.815-0.166-1.111-0.492
				c-0.557-0.613-0.511-1.563,0.103-2.119c0.243-0.221,0.485-0.442,0.726-0.666c0.607-0.563,1.556-0.528,2.12,0.079
				c0.564,0.607,0.528,1.557-0.079,2.12c-0.25,0.231-0.5,0.461-0.751,0.689C70.402,358.562,70.041,358.69,69.682,358.69z
				 M-70.273,358.149c-0.364,0-0.728-0.132-1.017-0.397c-0.25-0.23-0.498-0.462-0.745-0.695c-0.603-0.568-0.632-1.518-0.063-2.12
				c0.568-0.603,1.518-0.633,2.12-0.063c0.24,0.226,0.481,0.451,0.723,0.674c0.609,0.562,0.647,1.511,0.085,2.119
				C-69.466,357.987-69.869,358.149-70.273,358.149z M77.438,350.85c-0.354,0-0.71-0.125-0.996-0.379
				c-0.619-0.55-0.675-1.498-0.125-2.117l0.655-0.744c0.546-0.623,1.494-0.686,2.117-0.143c0.624,0.546,0.688,1.493,0.142,2.117
				l-0.672,0.762C78.264,350.68,77.852,350.85,77.438,350.85z M-77.97,350.248c-0.417,0-0.832-0.173-1.128-0.511
				c-0.224-0.255-0.447-0.512-0.668-0.77c-0.539-0.629-0.467-1.576,0.162-2.115c0.628-0.538,1.576-0.466,2.115,0.162
				c0.214,0.25,0.43,0.497,0.646,0.744c0.546,0.623,0.484,1.57-0.138,2.117C-77.266,350.125-77.618,350.248-77.97,350.248z
				 M84.327,342.234c-0.303,0-0.608-0.091-0.873-0.281c-0.673-0.483-0.827-1.42-0.344-2.094c0.192-0.267,0.382-0.535,0.572-0.806
				c0.475-0.678,1.411-0.843,2.089-0.367c0.679,0.476,0.843,1.411,0.367,2.09c-0.195,0.278-0.393,0.557-0.59,0.833
				C85.254,342.018,84.794,342.234,84.327,342.234z M-84.791,341.581c-0.471,0-0.935-0.221-1.227-0.635
				c-0.196-0.277-0.39-0.555-0.583-0.835c-0.47-0.682-0.299-1.616,0.383-2.086c0.681-0.473,1.616-0.299,2.086,0.383
				c0.187,0.271,0.375,0.54,0.563,0.808c0.478,0.677,0.317,1.612-0.36,2.091C-84.189,341.492-84.492,341.581-84.791,341.581z
				 M90.267,332.938c-0.25,0-0.503-0.063-0.737-0.194c-0.721-0.407-0.975-1.322-0.567-2.044l0.485-0.866
				c0.402-0.726,1.313-0.986,2.04-0.584c0.724,0.402,0.985,1.315,0.583,2.039l-0.497,0.888
				C91.298,332.663,90.79,332.938,90.267,332.938z M-90.657,332.242c-0.527,0-1.038-0.277-1.312-0.771
				c-0.165-0.295-0.328-0.592-0.49-0.891c-0.396-0.728-0.126-1.639,0.602-2.034c0.728-0.395,1.639-0.126,2.034,0.603
				c0.157,0.289,0.315,0.576,0.475,0.863c0.403,0.724,0.143,1.637-0.581,2.04C-90.16,332.182-90.41,332.242-90.657,332.242z
				 M95.186,323.063c-0.199,0-0.401-0.039-0.595-0.124c-0.76-0.329-1.109-1.212-0.78-1.973c0.131-0.303,0.261-0.606,0.39-0.911
				c0.321-0.764,1.202-1.123,1.964-0.801c0.764,0.322,1.122,1.201,0.8,1.965c-0.132,0.314-0.266,0.628-0.401,0.94
				C96.318,322.725,95.766,323.063,95.186,323.063z M-95.499,322.333c-0.584,0-1.14-0.343-1.382-0.915l-0.39-0.933
				c-0.317-0.766,0.046-1.643,0.812-1.96c0.766-0.32,1.642,0.046,1.96,0.812l0.381,0.911c0.323,0.763-0.034,1.644-0.796,1.966
				C-95.105,322.295-95.303,322.333-95.499,322.333z M99.022,312.718c-0.147,0-0.297-0.021-0.446-0.067
				c-0.791-0.246-1.233-1.087-0.987-1.878l0.29-0.949c0.238-0.794,1.071-1.245,1.868-1.006c0.793,0.238,1.244,1.074,1.005,1.867
				c-0.098,0.327-0.198,0.653-0.299,0.979C100.254,312.306,99.662,312.718,99.022,312.718z M-99.253,311.967
				c-0.645,0-1.24-0.418-1.436-1.066l-0.29-0.976c-0.232-0.795,0.225-1.628,1.02-1.86c0.799-0.228,1.629,0.226,1.86,1.021
				l0.282,0.948c0.239,0.793-0.209,1.63-1.002,1.869C-98.963,311.946-99.109,311.967-99.253,311.967z M101.729,302.021
				c-0.095,0-0.191-0.009-0.289-0.027c-0.813-0.159-1.344-0.946-1.185-1.76l0.186-0.974c0.152-0.814,0.937-1.353,1.75-1.199
				c0.814,0.152,1.351,0.936,1.199,1.75l-0.191,0.997C103.06,301.523,102.432,302.021,101.729,302.021z M-101.876,301.254
				c-0.707,0-1.336-0.502-1.473-1.222c-0.063-0.333-0.125-0.668-0.184-1.004c-0.145-0.815,0.399-1.594,1.215-1.738
				c0.815-0.141,1.594,0.398,1.739,1.215c0.058,0.324,0.117,0.647,0.178,0.971c0.154,0.813-0.381,1.599-1.196,1.752
				C-101.69,301.245-101.784,301.254-101.876,301.254z M103.273,291.101c-0.044,0-0.089-0.002-0.133-0.006
				c-0.825-0.072-1.436-0.801-1.363-1.626c0.029-0.327,0.056-0.655,0.081-0.984c0.064-0.825,0.776-1.464,1.611-1.379
				c0.826,0.063,1.444,0.785,1.38,1.611c-0.026,0.339-0.054,0.677-0.084,1.016C104.697,290.513,104.042,291.101,103.273,291.101z
				 M-103.337,290.323c-0.775,0-1.432-0.596-1.494-1.382l-0.076-1.012c-0.059-0.826,0.563-1.544,1.389-1.604
				c0.827-0.066,1.544,0.563,1.604,1.389l0.074,0.99c0.065,0.825-0.551,1.548-1.377,1.613
				C-103.258,290.321-103.298,290.323-103.337,290.323z M103.649,280c-0.816,0-1.485-0.615-1.5-1.435
				c-0.005-0.329-0.013-0.638-0.022-0.966c-0.023-0.828,0.63-1.509,1.458-1.531c0.837-0.068,1.518,0.634,1.542,1.462
				c0.009,0.338,0.017,0.642,0.023,0.979c0.014,0.828-0.646,1.49-1.474,1.49C103.667,280,103.658,280,103.649,280z M-103.632,279
				c-0.013,0-0.026,0-0.04,0c-0.828,0-1.481-0.563-1.46-1.391l0.031-0.942c0.029-0.828,0.741-1.442,1.552-1.409
				c0.828,0.029,1.476,0.742,1.446,1.57l-0.03,0.851C-102.154,278.494-102.821,279-103.632,279z M102.864,269.08
				c-0.746,0-1.392-0.555-1.486-1.313l-0.127-0.982c-0.11-0.82,0.466-1.575,1.287-1.686c0.825-0.115,1.577,0.466,1.687,1.287
				l0.13,1.008c0.103,0.822-0.48,1.572-1.302,1.675C102.989,269.076,102.926,269.08,102.864,269.08z M-102.764,268.303
				c-0.065,0-0.132-0.004-0.199-0.013c-0.821-0.109-1.399-0.863-1.29-1.685c0.044-0.337,0.09-0.673,0.139-1.01
				c0.118-0.818,0.88-1.379,1.697-1.272c0.82,0.118,1.39,0.878,1.272,1.698c-0.046,0.325-0.091,0.651-0.135,0.979
				C-101.379,267.754-102.023,268.303-102.764,268.303z M100.915,258.226c-0.679,0-1.295-0.465-1.458-1.154l-0.232-0.964
				c-0.198-0.805,0.294-1.616,1.099-1.814c0.807-0.196,1.617,0.295,1.814,1.1l0.238,0.987c0.19,0.807-0.309,1.614-1.115,1.806
				C101.146,258.213,101.029,258.226,100.915,258.226z M-100.733,257.463c-0.117,0-0.236-0.014-0.355-0.043
				c-0.805-0.195-1.299-1.007-1.103-1.812c0.081-0.33,0.162-0.66,0.246-0.989c0.205-0.803,1.02-1.286,1.824-1.084
				c0.803,0.205,1.288,1.021,1.083,1.824c-0.081,0.319-0.161,0.638-0.238,0.958C-99.443,257.003-100.057,257.463-100.733,257.463z
				 M97.815,247.641c-0.619,0-1.198-0.386-1.415-1.003c-0.109-0.311-0.22-0.62-0.333-0.929c-0.283-0.779,0.119-1.64,0.897-1.923
				c0.779-0.285,1.639,0.119,1.922,0.897c0.116,0.32,0.231,0.64,0.343,0.96c0.275,0.781-0.136,1.638-0.918,1.912
				C98.148,247.613,97.98,247.641,97.815,247.641z M-97.552,246.902c-0.169,0-0.341-0.028-0.509-0.089
				c-0.779-0.281-1.183-1.141-0.902-1.92c0.116-0.32,0.233-0.641,0.352-0.96c0.29-0.776,1.154-1.171,1.93-0.882
				c0.776,0.289,1.171,1.152,0.882,1.929c-0.116,0.31-0.229,0.62-0.341,0.931C-96.361,246.522-96.938,246.902-97.552,246.902z
				 M93.599,237.449c-0.56,0-1.097-0.314-1.354-0.854c-0.142-0.298-0.285-0.593-0.429-0.887c-0.365-0.744-0.058-1.643,0.687-2.007
				c0.742-0.366,1.642-0.058,2.007,0.687c0.149,0.304,0.296,0.608,0.442,0.914c0.357,0.748,0.04,1.644-0.708,2
				C94.036,237.402,93.816,237.449,93.599,237.449z M-93.257,236.739c-0.221,0-0.444-0.049-0.656-0.151
				c-0.745-0.363-1.055-1.261-0.692-2.006l0.451-0.914c0.37-0.741,1.272-1.039,2.011-0.674c0.742,0.37,1.043,1.271,0.673,2.012
				l-0.438,0.891C-92.167,236.43-92.701,236.739-93.257,236.739z M88.322,227.768c-0.503,0-0.995-0.253-1.278-0.713l-0.521-0.837
				c-0.442-0.701-0.231-1.628,0.47-2.069s1.627-0.229,2.068,0.47l0.537,0.862c0.435,0.705,0.216,1.629-0.489,2.063
				C88.862,227.695,88.59,227.768,88.322,227.768z M-87.902,227.093c-0.271,0-0.546-0.073-0.794-0.229
				c-0.702-0.439-0.916-1.364-0.477-2.066c0.181-0.29,0.364-0.578,0.547-0.864c0.448-0.696,1.376-0.897,2.073-0.451
				c0.697,0.447,0.899,1.375,0.452,2.072c-0.178,0.276-0.354,0.555-0.528,0.833C-86.914,226.843-87.402,227.093-87.902,227.093z
				 M82.045,218.699c-0.448,0-0.892-0.2-1.187-0.582l-0.609-0.779c-0.513-0.651-0.401-1.594,0.25-2.106
				c0.651-0.513,1.595-0.4,2.107,0.249l0.625,0.801c0.507,0.655,0.387,1.597-0.268,2.104
				C82.689,218.597,82.366,218.699,82.045,218.699z M-81.555,218.069c-0.325,0-0.651-0.104-0.926-0.321
				c-0.651-0.512-0.764-1.455-0.252-2.105l0.632-0.797c0.517-0.646,1.461-0.751,2.108-0.233c0.646,0.518,0.751,1.461,0.233,2.108
				l-0.616,0.775C-80.67,217.873-81.11,218.069-81.555,218.069z M74.846,210.342c-0.394,0-0.788-0.154-1.083-0.462l-0.688-0.711
				c-0.579-0.594-0.567-1.543,0.026-2.121c0.593-0.58,1.542-0.567,2.121,0.025l0.706,0.73c0.573,0.598,0.554,1.547-0.044,2.12
				C75.594,210.203,75.22,210.342,74.846,210.342z M-74.29,209.766c-0.377,0-0.755-0.142-1.046-0.425
				c-0.594-0.578-0.606-1.528-0.028-2.121l0.71-0.724c0.583-0.591,1.532-0.595,2.122-0.014c0.589,0.582,0.595,1.532,0.013,2.121
				l-0.695,0.708C-73.509,209.614-73.899,209.766-74.29,209.766z M66.806,202.788c-0.341,0-0.684-0.115-0.965-0.353l-0.762-0.637
				c-0.638-0.528-0.726-1.475-0.197-2.112c0.529-0.638,1.474-0.726,2.112-0.196l0.778,0.65c0.634,0.533,0.715,1.479,0.182,2.113
				C67.658,202.606,67.233,202.788,66.806,202.788z M-66.192,202.274c-0.43,0-0.857-0.184-1.154-0.54
				c-0.53-0.637-0.444-1.583,0.193-2.112c0.261-0.218,0.523-0.433,0.786-0.647c0.642-0.522,1.587-0.428,2.11,0.216
				c0.523,0.642,0.427,1.587-0.215,2.11c-0.255,0.207-0.508,0.416-0.761,0.626C-65.513,202.16-65.854,202.274-66.192,202.274z
				 M58.014,196.125c-0.289,0-0.581-0.083-0.839-0.258l-0.825-0.553c-0.689-0.459-0.876-1.391-0.417-2.08
				c0.458-0.69,1.39-0.878,2.08-0.418l0.844,0.566c0.686,0.464,0.866,1.396,0.402,2.082
				C58.968,195.894,58.495,196.125,58.014,196.125z M-57.351,195.68c-0.484,0-0.96-0.234-1.249-0.667
				c-0.46-0.688-0.274-1.62,0.415-2.08l0.848-0.561c0.692-0.452,1.624-0.258,2.076,0.435c0.454,0.693,0.259,1.623-0.435,2.077
				l-0.824,0.543C-56.775,195.598-57.064,195.68-57.351,195.68z M48.565,190.43c-0.238,0-0.48-0.057-0.706-0.177
				c-0.291-0.155-0.582-0.31-0.874-0.461c-0.735-0.381-1.022-1.286-0.641-2.021c0.382-0.735,1.288-1.024,2.022-0.641
				c0.303,0.157,0.604,0.315,0.906,0.477c0.731,0.391,1.006,1.3,0.616,2.03C49.62,190.143,49.101,190.43,48.565,190.43z
				 M-47.862,190.059c-0.541,0-1.063-0.293-1.331-0.806c-0.383-0.734-0.099-1.641,0.635-2.023l0.902-0.466
				c0.736-0.377,1.641-0.084,2.018,0.654c0.376,0.738,0.083,1.642-0.655,2.018l-0.875,0.452
				C-47.391,190.004-47.628,190.059-47.862,190.059z M38.566,185.771c-0.186,0-0.375-0.034-0.558-0.107l-0.923-0.366
				c-0.771-0.302-1.153-1.172-0.851-1.943c0.301-0.771,1.172-1.149,1.943-0.852l0.949,0.376c0.769,0.309,1.142,1.183,0.833,1.951
				C39.724,185.416,39.161,185.771,38.566,185.771z M-37.832,185.479c-0.599,0-1.165-0.36-1.397-0.952
				c-0.302-0.771,0.077-1.642,0.849-1.944l0.949-0.367c0.775-0.297,1.64,0.093,1.936,0.867c0.295,0.773-0.093,1.641-0.867,1.936
				l-0.922,0.357C-37.464,185.446-37.65,185.479-37.832,185.479z M28.125,182.209c-0.135,0-0.272-0.018-0.408-0.057l-0.954-0.264
				c-0.799-0.218-1.271-1.042-1.053-1.842c0.217-0.799,1.043-1.272,1.841-1.053l0.98,0.271c0.797,0.225,1.261,1.054,1.036,1.851
				C29.381,181.777,28.779,182.209,28.125,182.209z M-27.368,181.998c-0.66,0-1.264-0.438-1.446-1.105
				c-0.218-0.799,0.253-1.624,1.053-1.842l0.979-0.264c0.8-0.212,1.622,0.265,1.834,1.065s-0.264,1.622-1.065,1.835l-0.959,0.258
				C-27.104,181.981-27.237,181.998-27.368,181.998z M17.367,179.788c-0.083,0-0.167-0.007-0.252-0.021l-0.977-0.161
				c-0.818-0.131-1.375-0.899-1.245-1.718c0.131-0.818,0.9-1.375,1.718-1.245l1.004,0.165c0.817,0.139,1.367,0.912,1.229,1.729
				C18.72,179.271,18.085,179.788,17.367,179.788z M-16.591,179.659c-0.722,0-1.359-0.523-1.479-1.259
				c-0.133-0.818,0.422-1.589,1.24-1.722c0.335-0.055,0.672-0.107,1.008-0.158c0.817-0.128,1.583,0.441,1.707,1.26
				c0.123,0.819-0.441,1.583-1.26,1.707c-0.325,0.049-0.65,0.1-0.974,0.152C-16.43,179.653-16.511,179.659-16.591,179.659z
				 M6.41,178.529c-0.031,0-0.062-0.001-0.094-0.003l-0.988-0.056c-0.827-0.044-1.463-0.749-1.419-1.577
				c0.043-0.827,0.756-1.438,1.577-1.419l1.015,0.058c0.827,0.051,1.456,0.763,1.405,1.589
				C7.856,177.917,7.196,178.529,6.41,178.529z M-5.625,178.483c-0.792,0-1.454-0.621-1.497-1.421
				c-0.043-0.827,0.592-1.533,1.419-1.577l1.016-0.05c0.828-0.032,1.528,0.606,1.564,1.434c0.036,0.827-0.605,1.527-1.433,1.564
				l-0.988,0.048C-5.571,178.482-5.598,178.483-5.625,178.483z"/>
		</g>
		<g>
			<path fill="#FFFFFF" d="M0.228,448.667c-0.125,0-0.249,0.002-0.377,0c-0.309,0-0.688-0.002-1.066-0.005l0.431-48.832L0,400h0.668
				l0.342,48.831C0.75,448.833,0.489,448.667,0.228,448.667z M12.621,448.198l-3.588-48.869l0.78-0.061l4.021,48.834
				C13.43,448.136,13.025,448.168,12.621,448.198z M-12.85,448.18l-1.142-0.091l4.021-48.834l0.851,0.067L-12.85,448.18z
				 M25.411,446.749L18.089,398.3l0.772-0.121l7.753,48.383C26.213,446.626,25.812,446.688,25.411,446.749z M-25.637,446.714
				l-1.133-0.178l7.753-48.383l0.842,0.133L-25.637,446.714z M38.065,444.319l-11.039-47.74l0.745-0.176l11.495,47.633
				C38.867,444.133,38.466,444.227,38.065,444.319z M-38.295,444.266l-1.049-0.248l11.343-47.67l0.897,0.213L-38.295,444.266z
				 M50.531,440.91l-14.763-46.723l0.792-0.253l15.085,46.62L50.531,440.91z M-50.727,440.849l-1.052-0.338l15.043-46.633
				l0.86,0.275L-50.727,440.849z M62.634,436.571l-18.297-45.455l0.761-0.31l18.62,45.324L62.634,436.571z M-62.823,436.495
				c-0.38-0.153-0.759-0.308-1.138-0.464l18.739-45.275l0.72,0.294L-62.823,436.495z M74.375,431.312l-21.74-43.912l0.733-0.366
				l22.058,43.754L74.375,431.312z M-74.587,431.207c-0.371-0.184-0.741-0.369-1.11-0.557l22.199-43.684l0.682,0.342
				L-74.587,431.207z M85.682,425.167L60.63,383.056l0.718-0.431l25.326,41.947L85.682,425.167z M-85.91,425.03l-0.995-0.598
				l25.368-41.922l0.721,0.434L-85.91,425.03z M96.416,418.224l-28.07-40.162l0.62-0.438l28.46,39.887
				C97.09,417.75,96.754,417.988,96.416,418.224z M-96.705,418.021l-0.931-0.661l28.46-39.887l0.701,0.497L-96.705,418.021z
				 M106.721,410.386l-31.185-37.795l0.691-0.572l31.341,37.666L106.721,410.386z M-106.907,410.232
				c-0.324-0.267-0.646-0.534-0.967-0.804l31.545-37.496l0.571,0.476L-106.907,410.232z M116.29,401.886l-33.886-35.395l0.573-0.553
				l34.179,35.111L116.29,401.886z M-116.539,401.646l-0.809-0.783l34.179-35.111l0.627,0.607L-116.539,401.646z M125.222,392.65
				l-36.464-32.732l0.53-0.596l36.733,32.43L125.222,392.65z M-125.437,392.41c-0.271-0.304-0.542-0.608-0.812-0.915l36.832-32.318
				l0.515,0.581L-125.437,392.41z M133.45,382.738l-38.871-29.834l0.511-0.671l39.062,29.584L133.45,382.738z M-133.643,382.485
				l-0.682-0.898l39.096-29.537l0.525,0.691L-133.643,382.485z M140.898,372.229l-41.044-26.766l0.474-0.731l41.186,26.549
				L140.898,372.229z M-141.046,372.001l-0.632-0.979l41.25-26.447l0.45,0.696L-141.046,372.001z M147.518,361.19l-42.965-23.559
				l0.402-0.739l43.118,23.277L147.518,361.19z M-147.643,360.962l-0.553-1.02l43.146-23.227l0.397,0.732L-147.643,360.962z
				 M153.27,349.687l-44.625-20.238l0.332-0.739l44.782,19.887L153.27,349.687z M-153.387,349.429l-0.458-1.026l44.789-19.874
				l0.354,0.793L-153.387,349.429z M158.136,337.738l-46.054-16.734l0.274-0.763l46.184,16.371L158.136,337.738z M-158.211,337.528
				l-0.401-1.123l46.213-16.289l0.271,0.76L-158.211,337.528z M162.063,325.461l-47.208-13.129l0.213-0.78l47.31,12.76
				L162.063,325.461z M-162.118,325.258l-0.313-1.15l47.328-12.692l0.212,0.78L-162.118,325.258z M165.03,312.911l-48.084-9.43
				l0.157-0.816l48.148,9.1L165.03,312.911z M-165.073,312.691l-0.21-1.1l48.147-9.1l0.166,0.865L-165.073,312.691z
				 M167.021,300.172l-48.67-5.672l0.097-0.851l48.703,5.387L167.021,300.172z M-167.042,299.997l-0.132-1.18l48.712-5.301
				l0.091,0.809L-167.042,299.997z M168.027,287.382l-48.958-2.01l0.031-0.82l48.972,1.652L168.027,287.382z M-168.036,287.174
				l-0.042-1.176l48.975-1.584l0.029,0.816L-168.036,287.174z M119.092,276.246l-0.031-0.813l48.956-2.094l0.045,1.178
				L119.092,276.246z M-119.087,276.107l-48.967-1.795l0.045-1.143l48.956,2.082L-119.087,276.107z M118.426,267.151l-0.094-0.816
				l48.654-5.813l0.136,1.17L118.426,267.151z M-118.41,267.013l-48.687-5.529l0.132-1.135l48.654,5.813L-118.41,267.013z
				 M117.068,258.15l-0.164-0.844l48.076-9.471l0.217,1.119L117.068,258.15z M-117.042,258.012l-48.116-9.264l0.219-1.12
				l48.063,9.541L-117.042,258.012z M115.019,249.272l-0.219-0.798l47.189-13.195l0.312,1.13L115.019,249.272z M-114.982,249.136
				l-47.264-12.93l0.313-1.13l47.171,13.262L-114.982,249.136z M112.293,240.582l-0.282-0.782l46.037-16.779l0.396,1.099
				L112.293,240.582z M-112.24,240.434l-46.139-16.498c0.137-0.384,0.275-0.767,0.416-1.147l45.991,16.906L-112.24,240.434z
				 M108.916,232.154l-0.344-0.765l44.605-20.281l0.474,1.052L108.916,232.154z M-108.847,232.001l-44.706-20.061l0.467-1.033
				l44.599,20.299L-108.847,232.001z M104.886,223.979l-0.4-0.733l42.929-23.625l0.555,1.017L104.886,223.979z M-104.79,223.801
				l-43.058-23.389l0.56-1.021l42.901,23.674L-104.79,223.801z M100.243,216.137l-0.456-0.703l41.001-26.83l0.631,0.971
				L100.243,216.137z M-100.121,215.946l-41.152-26.598l0.65-0.998l40.946,26.916L-100.121,215.946z M94.98,208.622l-0.466-0.61
				l38.817-29.904c0.25,0.325,0.499,0.65,0.746,0.978L94.98,208.622z M-94.875,208.483l-38.993-29.674l0.714-0.932l38.782,29.949
				L-94.875,208.483z M89.223,201.604l-0.562-0.63l36.464-32.732l0.769,0.862L89.223,201.604z M-89.083,201.445l-36.6-32.58
				l0.752-0.841l36.429,32.771L-89.083,201.445z M82.928,195.015l-0.629-0.605l33.886-35.395l0.812,0.781L82.928,195.015z
				 M-82.754,194.847l-34.032-35.254l0.812-0.779l33.851,35.428L-82.754,194.847z M76.131,188.902l-0.675-0.559l31.114-37.854
				l0.867,0.717L76.131,188.902z M-75.928,188.733l-31.306-37.695c0.317-0.264,0.634-0.524,0.953-0.784l30.942,37.994
				L-75.928,188.733z M68.873,183.312l-0.671-0.474l28.1-40.143l0.964,0.681L68.873,183.312z M-68.695,183.186l-28.331-39.98
				l0.963-0.677l28.037,40.186L-68.695,183.186z M61.199,178.285l-0.67-0.4l24.957-42.168c0.35,0.208,0.7,0.416,1.05,0.627
				L61.199,178.285z M-61.064,178.204l-25.189-42.03l0.995-0.592l24.913,42.194L-61.064,178.204z M53.2,173.883l-0.683-0.34
				l21.627-43.969c0.372,0.183,0.743,0.367,1.112,0.553L53.2,173.883z M-53.073,173.818l-21.913-43.827l1.051-0.521l21.596,43.984
				L-53.073,173.818z M44.913,170.118l-0.721-0.292l18.174-45.505c0.38,0.152,0.76,0.306,1.139,0.461L44.913,170.118z
				 M-44.791,170.068l-18.472-45.385l1.085-0.438l18.148,45.516L-44.791,170.068z M36.427,167.023l-0.881-0.28l14.721-46.736
				l1.032,0.328L36.427,167.023z M-36.229,166.96l-14.935-46.668l1.105-0.35l14.632,46.764L-36.229,166.96z M27.599,164.556
				l-0.795-0.187l10.986-47.752l1.152,0.27L27.599,164.556z M-27.467,164.524l-11.275-47.685l1.118-0.26l10.986,47.752
				L-27.467,164.524z M18.679,162.793l-0.843-0.13l7.321-48.45l1.134,0.175L18.679,162.793z M-18.511,162.767l-7.612-48.405
				l1.169-0.179l7.251,48.46L-18.511,162.767z M9.63,161.717l-0.852-0.064l3.588-48.869l1.143,0.087L9.63,161.717z M-9.46,161.704
				l-3.879-48.847l1.178-0.089l3.517,48.874L-9.46,161.704z M0.525,161h-0.852l-0.174-49H0h0.647L0.525,161z"/>
		</g>
	</g>
	<g opacity="0.45" clip-path="url(#SVGID_5_)">
		<g>
			<path fill="#FFFFFF" d="M302,191.094c-22.316,0-40.406,18.091-40.406,40.406s18.09,40.406,40.406,40.406
				s40.406-18.091,40.406-40.406S324.316,191.094,302,191.094L302,191.094z"/>
		</g>
		<g>
			<path fill="#FFFFFF" d="M302.208,283H302c-0.342,0-0.683,0.2-1.023,0.193c-0.828-0.018-1.485-0.602-1.469-1.43
				c0.018-0.828,0.695-1.664,1.531-1.621C301.358,280.149,301.68,280,302,280h0.208c0.828,0,1.5,0.672,1.5,1.5
				S303.036,283,302.208,283z M312.058,282.397c-0.699,0-1.325-0.492-1.469-1.204c-0.163-0.813,0.362-1.603,1.175-1.767
				c0.314-0.063,0.627-0.13,0.938-0.2c0.808-0.18,1.611,0.327,1.792,1.136s-0.327,1.61-1.136,1.792
				c-0.333,0.074-0.667,0.146-1.003,0.214C312.256,282.388,312.156,282.397,312.058,282.397z M291.174,282.235
				c-0.106,0-0.215-0.011-0.324-0.035c-0.332-0.073-0.663-0.149-0.994-0.229c-0.805-0.194-1.302-1.004-1.108-1.81
				c0.194-0.805,1.003-1.302,1.81-1.108c0.312,0.075,0.625,0.147,0.939,0.217c0.809,0.179,1.32,0.979,1.142,1.788
				C292.483,281.759,291.863,282.235,291.174,282.235z M322.434,279.078c-0.574,0-1.121-0.33-1.37-0.889
				c-0.338-0.756,0.001-1.644,0.758-1.98c0.293-0.132,0.584-0.265,0.874-0.4c0.751-0.353,1.643-0.028,1.995,0.722
				c0.352,0.75,0.028,1.644-0.722,1.995c-0.306,0.144-0.614,0.284-0.925,0.422C322.846,279.036,322.638,279.078,322.434,279.078z
				 M280.853,278.753c-0.212,0-0.426-0.045-0.631-0.14c-0.311-0.144-0.619-0.291-0.926-0.441c-0.744-0.364-1.052-1.263-0.687-2.007
				c0.364-0.743,1.263-1.051,2.007-0.687c0.287,0.141,0.578,0.278,0.869,0.414c0.751,0.349,1.077,1.24,0.729,1.992
				C281.96,278.432,281.418,278.753,280.853,278.753z M331.844,273.6c-0.46,0-0.915-0.211-1.209-0.61
				c-0.491-0.667-0.349-1.606,0.318-2.098c0.259-0.19,0.514-0.382,0.768-0.577c0.656-0.504,1.598-0.383,2.104,0.275
				c0.505,0.656,0.382,1.599-0.275,2.104c-0.27,0.207-0.542,0.412-0.816,0.614C332.464,273.505,332.152,273.6,331.844,273.6z
				 M271.523,273.126c-0.316,0-0.635-0.1-0.906-0.306c-0.272-0.207-0.544-0.417-0.812-0.63c-0.647-0.517-0.755-1.46-0.239-2.108
				c0.518-0.647,1.46-0.755,2.108-0.239c0.25,0.199,0.502,0.396,0.757,0.589c0.659,0.501,0.788,1.441,0.287,2.102
				C272.424,272.922,271.977,273.126,271.523,273.126z M339.866,266.235c-0.351,0-0.704-0.123-0.988-0.373
				c-0.623-0.546-0.685-1.494-0.138-2.116c0.211-0.241,0.421-0.485,0.629-0.731c0.535-0.632,1.479-0.713,2.114-0.177
				c0.633,0.535,0.712,1.481,0.177,2.114c-0.22,0.26-0.441,0.518-0.666,0.772C340.698,266.063,340.283,266.235,339.866,266.235z
				 M263.615,265.636c-0.426,0-0.848-0.18-1.145-0.529c-0.219-0.258-0.436-0.518-0.65-0.777c-0.526-0.64-0.435-1.585,0.204-2.112
				c0.64-0.524,1.585-0.434,2.112,0.204c0.205,0.25,0.412,0.498,0.621,0.744c0.536,0.632,0.459,1.578-0.173,2.114
				C264.303,265.519,263.958,265.636,263.615,265.636z M346.137,257.327c-0.247,0-0.497-0.061-0.728-0.188
				c-0.725-0.402-0.985-1.315-0.583-2.04c0.156-0.28,0.308-0.562,0.457-0.845c0.386-0.733,1.293-1.013,2.026-0.628
				c0.732,0.386,1.014,1.293,0.628,2.026c-0.159,0.303-0.322,0.604-0.488,0.903C347.175,257.049,346.663,257.327,346.137,257.327z
				 M257.486,256.633c-0.536,0-1.055-0.288-1.324-0.794c-0.16-0.3-0.317-0.602-0.471-0.904c-0.376-0.738-0.081-1.642,0.657-2.017
				c0.738-0.378,1.641-0.081,2.017,0.657c0.146,0.285,0.293,0.569,0.443,0.852c0.39,0.73,0.113,1.64-0.617,2.029
				C257.967,256.576,257.725,256.633,257.486,256.633z M350.348,247.28c-0.142,0-0.285-0.02-0.427-0.062
				c-0.795-0.235-1.248-1.07-1.013-1.864c0.091-0.308,0.18-0.616,0.265-0.927c0.221-0.798,1.044-1.264,1.845-1.048
				c0.798,0.22,1.268,1.046,1.048,1.845c-0.091,0.328-0.184,0.656-0.28,0.981C351.592,246.858,350.994,247.28,350.348,247.28z
				 M253.436,246.524c-0.656,0-1.259-0.434-1.443-1.097c-0.092-0.329-0.181-0.658-0.266-0.989c-0.205-0.803,0.278-1.62,1.081-1.825
				c0.805-0.208,1.619,0.278,1.825,1.081c0.079,0.31,0.162,0.619,0.248,0.927c0.224,0.798-0.243,1.625-1.041,1.848
				C253.705,246.507,253.569,246.524,253.436,246.524z M352.284,236.563c-0.036,0-0.072-0.001-0.108-0.004
				c-0.826-0.059-1.448-0.776-1.39-1.603c0.022-0.318,0.041-0.639,0.058-0.959c0.042-0.827,0.751-1.448,1.573-1.423
				c0.827,0.041,1.465,0.746,1.423,1.573c-0.017,0.342-0.037,0.682-0.062,1.021C353.722,235.96,353.063,236.563,352.284,236.563z
				 M251.668,235.779c-0.792,0-1.454-0.62-1.497-1.42c-0.018-0.338-0.033-0.678-0.045-1.019c-0.029-0.828,0.618-1.522,1.446-1.552
				c0.813-0.043,1.522,0.618,1.552,1.446c0.012,0.323,0.025,0.644,0.043,0.964c0.044,0.827-0.591,1.534-1.418,1.578
				C251.722,235.778,251.694,235.779,251.668,235.779z M351.874,225.68c-0.73,0-1.37-0.534-1.481-1.278
				c-0.048-0.32-0.098-0.64-0.15-0.958c-0.134-0.817,0.419-1.59,1.236-1.725c0.821-0.129,1.59,0.419,1.725,1.236
				c0.055,0.334,0.106,0.669,0.156,1.003c0.122,0.819-0.442,1.583-1.262,1.705C352.022,225.675,351.947,225.68,351.874,225.68z
				 M252.245,224.903c-0.079,0-0.16-0.006-0.24-0.02c-0.818-0.132-1.374-0.901-1.242-1.719c0.054-0.339,0.112-0.676,0.174-1.011
				c0.149-0.814,0.928-1.353,1.747-1.204c0.814,0.15,1.354,0.932,1.204,1.747c-0.058,0.313-0.112,0.629-0.164,0.944
				C253.605,224.379,252.968,224.903,252.245,224.903z M349.138,215.139c-0.604,0-1.174-0.367-1.401-0.966
				c-0.114-0.299-0.23-0.597-0.351-0.894c-0.31-0.769,0.063-1.643,0.831-1.952c0.772-0.312,1.644,0.064,1.952,0.831
				c0.126,0.314,0.25,0.63,0.37,0.946c0.295,0.774-0.093,1.641-0.867,1.936C349.496,215.107,349.315,215.139,349.138,215.139z
				 M255.147,214.406c-0.186,0-0.373-0.034-0.556-0.106c-0.77-0.307-1.145-1.18-0.838-1.949c0.126-0.316,0.256-0.631,0.387-0.944
				c0.32-0.764,1.196-1.125,1.963-0.805c0.765,0.32,1.124,1.198,0.805,1.963c-0.125,0.298-0.247,0.597-0.367,0.897
				C256.307,214.049,255.743,214.406,255.147,214.406z M344.189,205.441c-0.489,0-0.969-0.239-1.257-0.68
				c-0.175-0.267-0.353-0.532-0.532-0.796c-0.469-0.684-0.294-1.617,0.39-2.085c0.685-0.469,1.618-0.293,2.085,0.39
				c0.193,0.281,0.383,0.564,0.569,0.851c0.453,0.693,0.259,1.622-0.436,2.076C344.756,205.362,344.472,205.441,344.189,205.441z
				 M260.251,204.781c-0.289,0-0.582-0.083-0.839-0.258c-0.687-0.464-0.867-1.396-0.402-2.082c0.191-0.284,0.387-0.566,0.585-0.845
				c0.479-0.677,1.417-0.834,2.091-0.354c0.676,0.479,0.835,1.416,0.354,2.091c-0.185,0.261-0.366,0.523-0.546,0.788
				C261.205,204.55,260.731,204.781,260.251,204.781z M337.274,197.026c-0.379,0-0.758-0.143-1.05-0.429
				c-0.229-0.225-0.461-0.447-0.694-0.668c-0.603-0.568-0.63-1.518-0.062-2.12c0.568-0.602,1.517-0.631,2.12-0.062
				c0.247,0.232,0.492,0.469,0.735,0.707c0.592,0.579,0.602,1.529,0.021,2.121C338.053,196.876,337.663,197.026,337.274,197.026z
				 M267.299,196.473c-0.396,0-0.792-0.156-1.087-0.466c-0.571-0.601-0.547-1.55,0.053-2.121c0.247-0.234,0.497-0.468,0.749-0.697
				c0.61-0.556,1.561-0.515,2.119,0.098s0.515,1.561-0.098,2.119c-0.236,0.216-0.471,0.434-0.702,0.654
				C268.042,196.336,267.67,196.473,267.299,196.473z M328.724,190.276c-0.271,0-0.546-0.073-0.793-0.228
				c-0.273-0.17-0.549-0.34-0.826-0.507c-0.71-0.427-0.939-1.349-0.512-2.059c0.427-0.71,1.349-0.938,2.059-0.512
				c0.291,0.175,0.58,0.353,0.867,0.532c0.703,0.438,0.917,1.363,0.479,2.066C329.713,190.026,329.224,190.276,328.724,190.276z
				 M275.953,189.859c-0.507,0-1.002-0.257-1.284-0.723c-0.429-0.709-0.202-1.631,0.506-2.061c0.29-0.175,0.582-0.348,0.874-0.518
				c0.713-0.417,1.634-0.176,2.051,0.541c0.417,0.716,0.175,1.635-0.541,2.051c-0.278,0.162-0.555,0.325-0.829,0.492
				C276.486,189.789,276.218,189.859,275.953,189.859z M318.926,185.518c-0.169,0-0.341-0.028-0.509-0.089
				c-0.301-0.108-0.603-0.213-0.907-0.314c-0.786-0.263-1.21-1.113-0.947-1.898s1.108-1.209,1.898-0.947
				c0.326,0.109,0.651,0.222,0.974,0.338c0.779,0.281,1.184,1.141,0.902,1.92C320.116,185.138,319.54,185.518,318.926,185.518z
				 M285.821,185.257c-0.624,0-1.207-0.393-1.42-1.017c-0.267-0.784,0.152-1.636,0.937-1.903c0.323-0.11,0.648-0.217,0.974-0.32
				c0.793-0.246,1.633,0.189,1.883,0.979c0.249,0.79-0.189,1.633-0.979,1.883c-0.306,0.096-0.609,0.196-0.911,0.299
				C286.145,185.231,285.981,185.257,285.821,185.257z M308.331,182.989c-0.063,0-0.125-0.004-0.188-0.012
				c-0.318-0.04-0.638-0.077-0.958-0.111c-0.824-0.088-1.42-0.827-1.332-1.65c0.088-0.824,0.838-1.422,1.65-1.332
				c0.338,0.036,0.675,0.075,1.013,0.117c0.821,0.103,1.404,0.853,1.302,1.675C309.723,182.435,309.076,182.989,308.331,182.989z
				 M296.451,182.896c-0.755,0-1.404-0.568-1.489-1.336c-0.091-0.823,0.504-1.564,1.327-1.655c0.339-0.037,0.678-0.071,1.019-0.102
				c0.816-0.074,1.554,0.536,1.627,1.361s-0.536,1.554-1.361,1.627c-0.319,0.028-0.639,0.061-0.956,0.096
				C296.562,182.894,296.506,182.896,296.451,182.896z"/>
		</g>
		<g>
			<path fill="#FFFFFF" d="M302,346.406c-0.43,0-0.858-0.003-1.287-0.008l0.574-48.996l0.713,0.004V346.406z M309.679,346.151
				l-3.154-48.898l0.635-0.046l3.879,48.846C310.586,346.089,310.133,346.122,309.679,346.151z M288.089,345.567
				c-0.429-0.053-0.857-0.106-1.284-0.163l6.467-48.572l0.7,0.089L288.089,345.567z M323.585,344.371l-9.168-48.135l0.678-0.134
				l9.775,48.016C324.443,344.205,324.015,344.289,323.585,344.371z M274.331,343.036c-0.419-0.104-0.838-0.21-1.256-0.319
				l12.357-47.416l0.682,0.173L274.331,343.036z M337.16,340.903l-15.021-46.641l0.691-0.227l15.539,46.471
				C337.968,340.641,337.565,340.772,337.16,340.903z M260.944,338.826c-0.392-0.15-0.781-0.302-1.17-0.456l18.051-45.555
				l0.699,0.272L260.944,338.826z M350.203,335.802l-20.635-44.443l0.696-0.327l21.045,44.25
				C350.941,335.457,350.572,335.631,350.203,335.802z M248.257,333.05c-0.39-0.206-0.777-0.415-1.164-0.627l23.504-42.994
				l0.6,0.322L248.257,333.05z M362.473,329.181l-25.841-41.633l0.593-0.373l26.344,41.316
				C363.205,328.723,362.84,328.952,362.473,329.181z M236.298,325.732c-0.344-0.241-0.687-0.483-1.028-0.728l28.521-39.844
				l0.606,0.429L236.298,325.732z M373.875,321.104l-30.715-38.178l0.583-0.474l31.1,37.865
				C374.522,320.581,374.199,320.843,373.875,321.104z M225.366,317.065c-0.312-0.28-0.621-0.561-0.931-0.844l33.111-36.121
				l0.552,0.5L225.366,317.065z M384.194,311.736l-35.076-34.215l0.519-0.536l35.428,33.85
				C384.775,311.138,384.486,311.438,384.194,311.736z M215.601,307.192c-0.287-0.326-0.571-0.654-0.854-0.984l37.203-31.889
				l0.455,0.525L215.601,307.192z M393.317,301.188l-38.939-29.744l0.456-0.603l39.234,29.354
				C393.819,300.528,393.569,300.859,393.317,301.188z M207.044,296.154c-0.244-0.357-0.485-0.715-0.726-1.076l40.793-27.146
				l0.39,0.578L207.044,296.154z M401.101,289.621l-42.23-24.85l0.355-0.612l42.525,24.342
				C401.537,288.876,401.319,289.25,401.101,289.621z M199.874,284.144c-0.191-0.371-0.382-0.744-0.57-1.117l43.77-22.029
				l0.336,0.658L199.874,284.144z M407.443,277.161l-44.941-19.527l0.284-0.662l45.162,19.008
				C407.782,276.375,407.613,276.77,407.443,277.161z M194.234,271.39c-0.15-0.405-0.298-0.811-0.443-1.217l46.129-16.525
				l0.242,0.662L194.234,271.39z M412.235,263.963L365.22,250.16l0.209-0.724l47.152,13.328
				C412.468,263.165,412.353,263.564,412.235,263.963z M190.181,258.003c-0.105-0.443-0.207-0.888-0.307-1.332l47.834-10.629
				l0.143,0.617L190.181,258.003z M415.354,250.377l-48.334-8.055l0.11-0.686l48.43,7.451
				C415.494,249.519,415.426,249.949,415.354,250.377z M187.788,244.16c-0.044-0.404-0.087-0.809-0.127-1.215l48.756-4.875
				l0.082,0.773L187.788,244.16z M416.802,236.427l-48.959-2.016l0.029-0.778l48.975,1.574
				C416.834,235.615,416.818,236.021,416.802,236.427z M236.097,230.812l-48.996-0.572c0.005-0.406,0.011-0.812,0.019-1.217
				l48.99,1.006L236.097,230.812z M367.71,226.369l-0.065-0.782l48.811-4.307c0.035,0.403,0.069,0.807,0.101,1.21L367.71,226.369z
				 M236.665,222.788l-48.574-6.447c0.055-0.408,0.111-0.815,0.169-1.222l48.51,6.91L236.665,222.788z M366.605,218.42l-0.155-0.744
				l47.923-10.217c0.087,0.403,0.171,0.808,0.254,1.213L366.605,218.42z M238.198,214.939l-47.426-12.322
				c0.104-0.402,0.212-0.804,0.319-1.203l47.301,12.795L238.198,214.939z M364.538,210.676l-0.219-0.646l46.28-16.098
				c0.144,0.415,0.285,0.83,0.425,1.248L364.538,210.676z M240.684,207.327l-45.574-18c0.157-0.398,0.317-0.796,0.479-1.19
				l45.365,18.52L240.684,207.327z M361.528,203.23l-0.28-0.579l43.971-21.625c0.198,0.403,0.394,0.809,0.587,1.216L361.528,203.23z
				 M244.059,200.12l-42.994-23.504c0.195-0.358,0.393-0.715,0.592-1.072l42.779,23.895L244.059,200.12z M357.669,196.266
				l-0.379-0.588l41.035-26.781c0.235,0.362,0.469,0.725,0.701,1.09L357.669,196.266z M248.322,193.313l-39.844-28.521l0.703-0.974
				l39.609,28.846L248.322,193.313z M352.939,189.742l-0.444-0.535l37.537-31.496c0.278,0.332,0.556,0.666,0.831,1.002
				L352.939,189.742z M253.416,187.027l-36.191-33.033c0.305-0.334,0.612-0.665,0.922-0.995l35.707,33.557L253.416,187.027z
				 M347.506,183.882l-0.542-0.511l33.48-35.779c0.305,0.286,0.608,0.573,0.911,0.862L347.506,183.882z M259.161,181.467
				l-31.889-37.203c0.318-0.272,0.638-0.544,0.958-0.813l31.496,37.537L259.161,181.467z M341.377,178.691l-0.609-0.45
				l28.939-39.541c0.335,0.245,0.669,0.492,1,0.739L341.377,178.691z M265.581,176.602l-27.213-40.748
				c0.358-0.24,0.72-0.478,1.082-0.713l26.715,41.077L265.581,176.602z M334.654,174.271l-0.616-0.35l23.894-42.779
				c0.377,0.21,0.753,0.424,1.127,0.638L334.654,174.271z M272.482,172.584l-22.029-43.77c0.364-0.183,0.729-0.364,1.095-0.543
				l21.625,43.97L272.482,172.584z M327.5,170.726l-0.719-0.298l18.592-45.336c0.379,0.156,0.757,0.312,1.135,0.471L327.5,170.726z
				 M279.827,169.429L263.302,123.3c0.392-0.141,0.785-0.279,1.18-0.416l16.053,46.295L279.827,169.429z M319.877,168.055
				l-0.594-0.164l12.76-47.31c0.445,0.12,0.891,0.244,1.334,0.371L319.877,168.055z M287.5,167.198l-10.766-47.803
				c0.421-0.095,0.843-0.187,1.266-0.277l10.188,47.929L287.5,167.198z M312.153,166.373l-0.768-0.115l7.029-48.493
				c0.404,0.059,0.809,0.119,1.211,0.181L312.153,166.373z M295.411,165.92l-4.891-48.756c0.429-0.042,0.857-0.083,1.287-0.121
				l4.307,48.811L295.411,165.92z M304.158,165.628l-0.711-0.019l1.002-48.99c0.431,0.009,0.859,0.021,1.289,0.034L304.158,165.628z
				"/>
		</g>
	</g>
	<g clip-path="url(#SVGID_5_)">
		<g opacity="0.14">
			<g>
				<path fill="#FFFFFF" d="M164,133.427c44.153,0,80.074,35.92,80.074,80.073S208.153,293.572,164,293.572
					c-44.153,0-80.074-35.92-80.074-80.072S119.847,133.427,164,133.427 M164,90.427c-67.972,0-123.074,55.102-123.074,123.073
					S96.028,336.572,164,336.572S287.074,281.471,287.074,213.5S231.972,90.427,164,90.427L164,90.427z"/>
			</g>
		</g>
		<g>
			<path fill="#FFFFFF" d="M164.314,348.072l-1.327-0.004c-0.829-0.008-1.494-0.719-1.487-1.547c0.007-0.824,0.678-1.521,1.5-1.521
				c0.004,0,0.009,0,0.013,0l1.302,0.038c0.828,0,1.5,0.688,1.5,1.517S165.143,348.072,164.314,348.072z M174.299,347.677
				c-0.776,0-1.434-0.599-1.494-1.386c-0.063-0.826,0.556-1.547,1.382-1.61l0.983-0.078c0.828-0.081,1.552,0.541,1.622,1.366
				c0.071,0.826-0.541,1.552-1.366,1.622l-1.011,0.082C174.376,347.676,174.338,347.677,174.299,347.677z M153.019,347.623
				c-0.041,0-0.083-0.002-0.125-0.005l-1.009-0.087c-0.825-0.075-1.433-0.806-1.357-1.631c0.075-0.825,0.805-1.433,1.63-1.357
				l0.983,0.085c0.826,0.068,1.44,0.792,1.372,1.618C154.448,347.029,153.792,347.623,153.019,347.623z M185.215,346.382
				c-0.724,0-1.361-0.525-1.479-1.263c-0.131-0.818,0.426-1.587,1.244-1.719l0.973-0.159c0.82-0.141,1.591,0.412,1.729,1.228
				c0.139,0.816-0.411,1.591-1.228,1.729l-1,0.165C185.374,346.376,185.294,346.382,185.215,346.382z M142.111,346.272
				c-0.082,0-0.165-0.007-0.248-0.021l-0.999-0.17c-0.816-0.144-1.361-0.921-1.218-1.737c0.144-0.815,0.924-1.361,1.737-1.218
				l0.973,0.166c0.817,0.136,1.37,0.908,1.233,1.726C143.467,345.752,142.832,346.272,142.111,346.272z M195.986,344.187
				c-0.674,0-1.286-0.457-1.455-1.141c-0.199-0.804,0.292-1.617,1.097-1.815l0.955-0.24c0.798-0.213,1.62,0.275,1.826,1.078
				c0.207,0.802-0.275,1.62-1.078,1.826c-0.327,0.085-0.655,0.167-0.984,0.248C196.227,344.173,196.105,344.187,195.986,344.187z
				 M131.351,344.021c-0.122,0-0.246-0.015-0.37-0.046l-0.978-0.252c-0.801-0.209-1.282-1.027-1.073-1.829s1.026-1.282,1.83-1.073
				l0.959,0.246c0.803,0.204,1.289,1.021,1.085,1.823C132.631,343.568,132.021,344.021,131.351,344.021z M206.538,341.102
				c-0.627,0-1.211-0.396-1.422-1.021c-0.264-0.785,0.158-1.636,0.943-1.9c0.312-0.104,0.622-0.211,0.932-0.319
				c0.784-0.274,1.638,0.142,1.91,0.924c0.271,0.783-0.142,1.638-0.924,1.91c-0.319,0.11-0.64,0.221-0.961,0.329
				C206.857,341.076,206.696,341.102,206.538,341.102z M120.815,340.881c-0.163,0-0.328-0.026-0.49-0.082l-0.953-0.332
				c-0.782-0.273-1.194-1.13-0.921-1.911c0.273-0.782,1.131-1.197,1.911-0.921l0.943,0.328c0.783,0.271,1.198,1.125,0.927,1.908
				C122.018,340.491,121.437,340.881,120.815,340.881z M216.788,337.152c-0.58,0-1.133-0.338-1.378-0.904
				c-0.329-0.761,0.021-1.644,0.781-1.973l0.899-0.394c0.758-0.337,1.645,0.006,1.979,0.763c0.336,0.757-0.006,1.644-0.763,1.979
				l-0.925,0.405C217.188,337.113,216.986,337.152,216.788,337.152z M110.563,336.87c-0.202,0-0.407-0.041-0.604-0.127l-0.926-0.412
				c-0.756-0.339-1.093-1.227-0.754-1.982c0.339-0.756,1.226-1.096,1.983-0.754l0.907,0.402c0.758,0.334,1.102,1.219,0.769,1.978
				C111.69,336.536,111.14,336.87,110.563,336.87z M226.673,332.369c-0.534,0-1.052-0.286-1.322-0.791
				c-0.393-0.729-0.118-1.639,0.612-2.03l0.868-0.471c0.726-0.395,1.639-0.13,2.035,0.6c0.396,0.728,0.128,1.639-0.6,2.035
				l-0.886,0.479C227.155,332.312,226.912,332.369,226.673,332.369z M100.685,332.022c-0.241,0-0.486-0.059-0.714-0.182
				l-0.891-0.488c-0.724-0.402-0.985-1.315-0.583-2.04c0.402-0.723,1.315-0.985,2.04-0.583l0.866,0.475
				c0.728,0.395,0.998,1.306,0.603,2.033C101.733,331.738,101.217,332.022,100.685,332.022z M236.133,326.783
				c-0.491,0-0.973-0.241-1.26-0.685c-0.45-0.695-0.252-1.624,0.443-2.074l0.826-0.54c0.692-0.454,1.623-0.264,2.078,0.428
				c0.455,0.692,0.264,1.622-0.428,2.078l-0.846,0.552C236.695,326.705,236.413,326.783,236.133,326.783z M91.243,326.377
				c-0.281,0-0.566-0.079-0.819-0.244l-0.848-0.561c-0.689-0.46-0.875-1.392-0.415-2.08c0.459-0.688,1.391-0.875,2.081-0.414
				l0.823,0.543c0.693,0.454,0.888,1.384,0.435,2.077C92.212,326.138,91.732,326.377,91.243,326.377z M245.104,320.437
				c-0.449,0-0.894-0.201-1.189-0.585c-0.505-0.656-0.383-1.598,0.273-2.104l0.778-0.604c0.652-0.512,1.595-0.396,2.105,0.256
				c0.511,0.651,0.396,1.595-0.256,2.105l-0.798,0.62C245.746,320.335,245.424,320.437,245.104,320.437z M82.3,319.975
				c-0.322,0-0.647-0.104-0.921-0.316l-0.796-0.626c-0.649-0.515-0.758-1.458-0.244-2.107c0.515-0.649,1.458-0.758,2.107-0.244
				l0.777,0.61c0.654,0.51,0.771,1.452,0.261,2.105C83.189,319.776,82.747,319.975,82.3,319.975z M253.525,313.374
				c-0.408,0-0.816-0.166-1.112-0.493c-0.556-0.614-0.509-1.563,0.105-2.119c0.243-0.22,0.483-0.44,0.723-0.663
				c0.607-0.562,1.556-0.527,2.12,0.079c0.563,0.607,0.528,1.557-0.079,2.12c-0.249,0.23-0.499,0.461-0.75,0.688
				C254.245,313.246,253.885,313.374,253.525,313.374z M73.915,312.861c-0.363,0-0.727-0.131-1.015-0.396l-0.744-0.69
				c-0.604-0.566-0.634-1.516-0.068-2.12c0.567-0.604,1.517-0.634,2.12-0.067l0.723,0.671c0.61,0.561,0.649,1.51,0.088,2.119
				C74.723,312.698,74.319,312.861,73.915,312.861z M261.343,305.645c-0.365,0-0.731-0.133-1.021-0.4
				c-0.607-0.563-0.643-1.513-0.079-2.12l0.675-0.729c0.563-0.61,1.511-0.648,2.119-0.088c0.609,0.561,0.649,1.51,0.088,2.119
				l-0.683,0.739C262.146,305.483,261.745,305.645,261.343,305.645z M66.141,305.087c-0.405,0-0.809-0.163-1.104-0.484l-0.68-0.743
				c-0.558-0.612-0.514-1.561,0.099-2.119c0.612-0.559,1.561-0.514,2.119,0.1l0.669,0.731c0.561,0.609,0.522,1.559-0.088,2.119
				C66.868,304.956,66.504,305.087,66.141,305.087z M268.502,297.3c-0.325,0-0.652-0.104-0.927-0.321
				c-0.651-0.513-0.764-1.456-0.251-2.106l0.612-0.781c0.507-0.654,1.451-0.772,2.104-0.263c0.654,0.508,0.771,1.45,0.263,2.104
				l-0.622,0.795C269.386,297.104,268.946,297.3,268.502,297.3z M59.031,296.705c-0.447,0-0.889-0.198-1.185-0.578l-0.616-0.797
				c-0.505-0.656-0.383-1.598,0.273-2.104c0.656-0.505,1.597-0.384,2.104,0.273l0.606,0.783c0.509,0.653,0.392,1.597-0.262,2.105
				C59.678,296.602,59.353,296.705,59.031,296.705z M274.956,288.394c-0.285,0-0.573-0.081-0.828-0.25
				c-0.69-0.458-0.879-1.389-0.421-2.079l0.545-0.828c0.454-0.692,1.383-0.886,2.077-0.435c0.693,0.454,0.888,1.384,0.435,2.077
				l-0.557,0.844C275.918,288.158,275.441,288.394,274.956,288.394z M52.633,287.77c-0.489,0-0.969-0.238-1.257-0.679l-0.502-0.771
				c-0.451-0.694-0.276-1.658,0.419-2.109c0.697-0.451,1.602-0.288,2.053,0.407l0.541,0.831c0.454,0.693,0.259,1.623-0.434,2.076
				C53.199,287.69,52.915,287.77,52.633,287.77z M280.655,278.985c-0.245,0-0.492-0.06-0.722-0.186
				c-0.727-0.399-0.991-1.312-0.592-2.037l0.476-0.871c0.395-0.729,1.306-1.002,2.033-0.605c0.729,0.395,1,1.305,0.605,2.033
				l-0.485,0.889C281.697,278.705,281.185,278.985,280.655,278.985z M46.992,278.342c-0.532,0-1.047-0.283-1.319-0.784l-0.479-0.888
				c-0.39-0.731-0.113-1.64,0.618-2.029c0.734-0.391,1.64-0.113,2.03,0.617l0.467,0.868c0.396,0.728,0.126,1.638-0.602,2.034
				C47.479,278.283,47.234,278.342,46.992,278.342z M285.56,269.136c-0.205,0-0.414-0.042-0.613-0.132
				c-0.756-0.339-1.094-1.227-0.754-1.982c0.134-0.3,0.268-0.601,0.399-0.902c0.331-0.76,1.215-1.106,1.975-0.775
				s1.106,1.216,0.775,1.975c-0.136,0.312-0.273,0.622-0.413,0.932C286.68,268.807,286.133,269.136,285.56,269.136z M42.151,268.483
				c-0.577,0-1.126-0.334-1.374-0.896l-0.403-0.924c-0.328-0.761,0.023-1.644,0.784-1.972c0.759-0.326,1.643,0.022,1.971,0.784
				l0.393,0.902c0.334,0.758-0.01,1.644-0.768,1.978C42.558,268.442,42.353,268.483,42.151,268.483z M289.631,258.909
				c-0.164,0-0.331-0.026-0.495-0.084c-0.782-0.273-1.194-1.129-0.921-1.911l0.325-0.939c0.268-0.783,1.119-1.205,1.905-0.933
				c0.783,0.269,1.201,1.121,0.933,1.905l-0.331,0.957C290.83,258.522,290.251,258.909,289.631,258.909z M38.144,258.262
				c-0.623,0-1.205-0.391-1.418-1.013l-0.325-0.954c-0.265-0.785,0.157-1.636,0.942-1.9c0.785-0.264,1.636,0.157,1.901,0.941
				l0.319,0.938c0.27,0.783-0.147,1.637-0.931,1.906C38.47,258.235,38.305,258.262,38.144,258.262z M292.834,248.39
				c-0.125,0-0.252-0.016-0.379-0.049c-0.802-0.209-1.282-1.027-1.073-1.829l0.243-0.956c0.201-0.804,1.015-1.287,1.82-1.09
				c0.803,0.201,1.291,1.017,1.09,1.82l-0.251,0.981C294.108,247.942,293.5,248.39,292.834,248.39z M34.997,247.729
				c-0.67,0-1.281-0.452-1.453-1.131l-0.245-0.98c-0.198-0.804,0.293-1.617,1.098-1.814c0.802-0.203,1.617,0.292,1.815,1.098
				l0.24,0.959c0.204,0.803-0.282,1.619-1.085,1.823C35.243,247.714,35.119,247.729,34.997,247.729z M295.148,237.644
				c-0.085,0-0.171-0.007-0.257-0.021c-0.816-0.142-1.364-0.917-1.224-1.733l0.164-0.973c0.134-0.818,0.909-1.377,1.722-1.239
				c0.818,0.134,1.373,0.904,1.239,1.722l-0.168,1C296.499,237.129,295.864,237.644,295.148,237.644z M32.737,236.971
				c-0.72,0-1.355-0.52-1.478-1.253l-0.163-1c-0.129-0.818,0.429-1.586,1.247-1.716c0.811-0.131,1.586,0.428,1.716,1.247
				l0.159,0.975c0.136,0.817-0.416,1.591-1.233,1.727C32.902,236.964,32.819,236.971,32.737,236.971z M296.563,226.742
				c-0.044,0-0.089-0.002-0.134-0.006c-0.825-0.073-1.436-0.801-1.362-1.626l0.083-0.983c0.065-0.825,0.779-1.436,1.614-1.376
				c0.825,0.065,1.441,0.788,1.376,1.614l-0.085,1.009C297.986,226.154,297.331,226.742,296.563,226.742z M31.38,226.063
				c-0.773,0-1.429-0.593-1.494-1.377l-0.079-1.008c-0.062-0.826,0.558-1.546,1.384-1.608c0.82-0.07,1.546,0.558,1.607,1.384
				l0.078,0.986c0.068,0.825-0.546,1.55-1.372,1.618C31.462,226.062,31.421,226.063,31.38,226.063z M297.072,216
				c-0.002,0-0.004,0-0.006,0c-0.828,0-1.497-0.796-1.494-1.624l0.002-1.054c0-0.828,0.672-1.529,1.5-1.529s1.5,0.657,1.5,1.485
				l-0.002,1.117C298.569,215.222,297.898,216,297.072,216z M30.926,215.039c-0.829,0-1.5-0.632-1.5-1.46l0.003-1.05
				c0.005-0.824,0.676-1.529,1.5-1.529c0.003,0,0.006,0,0.01,0c0.828,0,1.496,0.721,1.49,1.549l-0.003,0.932
				C32.426,214.309,31.754,215.039,30.926,215.039z M296.684,204.776c-0.776,0-1.434-0.599-1.494-1.386l-0.078-0.983
				c-0.071-0.826,0.541-1.552,1.366-1.622c0.831-0.082,1.552,0.541,1.622,1.366l0.082,1.011c0.063,0.826-0.556,1.547-1.382,1.61
				C296.761,204.775,296.723,204.776,296.684,204.776z M31.37,204.097c-0.041,0-0.081-0.002-0.123-0.005
				c-0.826-0.066-1.441-0.79-1.374-1.616l0.086-1.009c0.075-0.824,0.8-1.431,1.628-1.36c0.825,0.074,1.434,0.803,1.36,1.628
				l-0.084,0.983C32.8,203.502,32.144,204.097,31.37,204.097z M295.395,193.86c-0.724,0-1.361-0.525-1.479-1.263l-0.159-0.973
				c-0.139-0.816,0.411-1.591,1.228-1.729c0.823-0.141,1.592,0.412,1.729,1.228l0.165,1c0.131,0.818-0.426,1.587-1.244,1.719
				C295.554,193.854,295.474,193.86,295.395,193.86z M32.715,193.187c-0.082,0-0.165-0.007-0.248-0.021
				c-0.817-0.136-1.37-0.908-1.233-1.726l0.168-0.994c0.141-0.816,0.916-1.361,1.733-1.224c0.816,0.142,1.364,0.917,1.223,1.733
				l-0.166,0.977C34.071,192.666,33.435,193.187,32.715,193.187z M293.206,183.088c-0.674,0-1.286-0.456-1.455-1.14l-0.241-0.961
				c-0.203-0.803,0.282-1.619,1.085-1.823c0.804-0.202,1.619,0.283,1.823,1.085l0.245,0.979c0.199,0.804-0.291,1.617-1.096,1.816
				C293.446,183.074,293.325,183.088,293.206,183.088z M34.959,182.426c-0.121,0-0.245-0.015-0.368-0.046
				c-0.803-0.202-1.291-1.018-1.088-1.821l0.251-0.979c0.209-0.801,1.026-1.282,1.83-1.073c0.801,0.209,1.282,1.027,1.073,1.829
				l-0.246,0.958C36.241,181.973,35.63,182.426,34.959,182.426z M290.128,172.536c-0.627,0-1.211-0.396-1.422-1.021
				c-0.104-0.312-0.21-0.622-0.318-0.932c-0.271-0.783,0.142-1.638,0.924-1.91c0.783-0.274,1.638,0.142,1.91,0.924
				c0.11,0.319,0.22,0.64,0.328,0.961c0.264,0.785-0.158,1.636-0.943,1.9C290.447,172.511,290.286,172.536,290.128,172.536z
				 M38.092,171.89c-0.162,0-0.327-0.026-0.488-0.082c-0.783-0.27-1.2-1.123-0.93-1.906l0.333-0.957
				c0.275-0.781,1.131-1.191,1.912-0.918c0.782,0.274,1.193,1.131,0.918,1.912l-0.326,0.939
				C39.296,171.499,38.714,171.89,38.092,171.89z M286.188,162.285c-0.579,0-1.13-0.336-1.376-0.9l-0.397-0.907
				c-0.334-0.758,0.01-1.644,0.769-1.978c0.758-0.33,1.643,0.011,1.978,0.769l0.401,0.917c0.331,0.76-0.017,1.644-0.775,1.975
				C286.591,162.245,286.388,162.285,286.188,162.285z M42.096,161.637c-0.202,0-0.407-0.041-0.604-0.128
				c-0.758-0.334-1.102-1.219-0.768-1.978l0.409-0.922c0.337-0.757,1.223-1.099,1.981-0.76c0.756,0.337,1.097,1.224,0.759,1.98
				l-0.404,0.912C43.222,161.303,42.672,161.637,42.096,161.637z M281.408,152.396c-0.536,0-1.055-0.288-1.324-0.794l-0.468-0.865
				c-0.396-0.728-0.128-1.639,0.6-2.035c0.726-0.395,1.639-0.129,2.035,0.6l0.479,0.889c0.391,0.731,0.113,1.64-0.617,2.029
				C281.889,152.34,281.646,152.396,281.408,152.396z M46.937,151.755c-0.241,0-0.486-0.058-0.713-0.181
				c-0.729-0.395-0.999-1.305-0.604-2.033l0.487-0.892c0.401-0.725,1.313-0.986,2.039-0.586c0.725,0.401,0.987,1.314,0.586,2.039
				l-0.475,0.866C47.985,151.471,47.469,151.755,46.937,151.755z M275.828,142.934c-0.491,0-0.974-0.241-1.261-0.686l-0.539-0.826
				c-0.455-0.692-0.263-1.622,0.43-2.077c0.692-0.454,1.623-0.263,2.078,0.43l0.551,0.844c0.449,0.696,0.251,1.625-0.445,2.075
				C276.39,142.855,276.107,142.934,275.828,142.934z M52.577,142.311c-0.281,0-0.566-0.079-0.819-0.244
				c-0.693-0.454-0.888-1.383-0.435-2.077l0.558-0.846c0.459-0.689,1.389-0.877,2.08-0.417c0.689,0.459,0.876,1.391,0.417,2.08
				l-0.544,0.825C53.546,142.071,53.066,142.311,52.577,142.311z M269.486,133.96c-0.449,0-0.894-0.201-1.189-0.584l-0.605-0.78
				c-0.511-0.653-0.395-1.596,0.258-2.106s1.595-0.395,2.105,0.257l0.619,0.798c0.506,0.656,0.383,1.598-0.273,2.104
				C270.128,133.858,269.806,133.96,269.486,133.96z M58.975,133.364c-0.322,0-0.647-0.104-0.921-0.317
				c-0.653-0.509-0.771-1.452-0.261-2.105l0.623-0.794c0.514-0.649,1.456-0.761,2.107-0.248c0.65,0.513,0.762,1.456,0.249,2.106
				l-0.612,0.78C59.864,133.166,59.421,133.364,58.975,133.364z M262.428,125.533c-0.407,0-0.813-0.165-1.109-0.49l-0.668-0.73
				c-0.562-0.609-0.523-1.558,0.086-2.12c0.606-0.562,1.556-0.524,2.119,0.085l0.682,0.744c0.558,0.613,0.513,1.562-0.1,2.119
				C263.15,125.404,262.789,125.533,262.428,125.533z M66.084,124.973c-0.363,0-0.727-0.131-1.015-0.396
				c-0.61-0.561-0.649-1.51-0.088-2.119l0.687-0.742c0.565-0.605,1.515-0.638,2.12-0.072s0.638,1.515,0.072,2.12l-0.672,0.725
				C66.893,124.81,66.489,124.973,66.084,124.973z M254.702,117.711c-0.366,0-0.732-0.133-1.021-0.401l-0.728-0.674
				c-0.609-0.561-0.649-1.51-0.088-2.119s1.51-0.649,2.119-0.088l0.739,0.684c0.606,0.564,0.641,1.514,0.077,2.12
				C255.505,117.55,255.104,117.711,254.702,117.711z M73.854,117.194c-0.404,0-0.808-0.163-1.103-0.483
				c-0.562-0.609-0.523-1.558,0.085-2.12l0.745-0.682c0.613-0.558,1.562-0.511,2.119,0.101c0.557,0.613,0.512,1.562-0.101,2.119
				l-0.729,0.667C74.583,117.063,74.218,117.194,73.854,117.194z M246.36,110.545c-0.327,0-0.656-0.106-0.932-0.325
				c-0.257-0.204-0.515-0.406-0.774-0.607c-0.654-0.508-0.773-1.45-0.266-2.104c0.509-0.655,1.451-0.774,2.105-0.266
				c0.268,0.208,0.535,0.417,0.8,0.627c0.648,0.515,0.757,1.459,0.242,2.107C247.24,110.351,246.802,110.545,246.36,110.545z
				 M82.233,110.079c-0.446,0-0.887-0.198-1.183-0.576c-0.51-0.653-0.395-1.596,0.257-2.106l0.799-0.62
				c0.656-0.505,1.598-0.381,2.104,0.275c0.505,0.657,0.381,1.599-0.275,2.104l-0.779,0.604
				C82.882,109.975,82.557,110.079,82.233,110.079z M237.459,104.087c-0.285,0-0.573-0.081-0.828-0.25l-0.828-0.545
				c-0.693-0.453-0.888-1.383-0.435-2.076c0.454-0.694,1.383-0.886,2.077-0.435l0.844,0.556c0.69,0.458,0.879,1.389,0.421,2.079
				C238.421,103.851,237.944,104.087,237.459,104.087z M91.166,103.675c-0.488,0-0.967-0.238-1.255-0.676
				c-0.455-0.692-0.263-1.622,0.43-2.077l0.847-0.551c0.697-0.45,1.625-0.249,2.073,0.447c0.449,0.696,0.249,1.625-0.447,2.073
				l-0.825,0.538C91.734,103.596,91.448,103.675,91.166,103.675z M228.053,98.383c-0.245,0-0.494-0.061-0.724-0.187l-0.868-0.475
				c-0.729-0.395-1-1.305-0.605-2.033c0.395-0.729,1.306-1,2.033-0.604l0.89,0.486c0.726,0.4,0.989,1.313,0.589,2.038
				C229.094,98.103,228.581,98.383,228.053,98.383z M100.59,98.03c-0.532,0-1.047-0.284-1.319-0.784
				c-0.396-0.728-0.126-1.639,0.602-2.034l0.886-0.478c0.731-0.39,1.639-0.115,2.03,0.615c0.391,0.73,0.115,1.639-0.615,2.03
				l-0.869,0.468C101.078,97.971,100.832,98.03,100.59,98.03z M218.207,93.473c-0.205,0-0.414-0.042-0.613-0.132l-0.904-0.401
				c-0.759-0.333-1.104-1.217-0.772-1.976s1.22-1.104,1.976-0.772l0.93,0.412c0.756,0.339,1.094,1.227,0.754,1.983
				C219.327,93.143,218.78,93.473,218.207,93.473z M110.445,93.183c-0.577,0-1.126-0.334-1.374-0.896
				c-0.334-0.758,0.01-1.643,0.768-1.977l0.921-0.402c0.761-0.327,1.644,0.021,1.972,0.781c0.329,0.76-0.021,1.644-0.781,1.972
				l-0.904,0.395C110.853,93.142,110.647,93.183,110.445,93.183z M207.984,89.397c-0.165,0-0.333-0.027-0.497-0.085l-0.938-0.325
				c-0.783-0.269-1.201-1.122-0.933-1.905c0.268-0.784,1.121-1.202,1.905-0.933l0.959,0.333c0.782,0.274,1.192,1.131,0.918,1.912
				C209.183,89.011,208.604,89.397,207.984,89.397z M120.664,89.171c-0.622,0-1.203-0.39-1.417-1.01
				c-0.271-0.783,0.145-1.637,0.927-1.908l0.958-0.327c0.784-0.268,1.636,0.157,1.9,0.942s-0.157,1.636-0.942,1.9l-0.935,0.319
				C120.992,89.144,120.826,89.171,120.664,89.171z M197.467,86.189c-0.125,0-0.252-0.016-0.379-0.049l-0.958-0.245
				c-0.803-0.203-1.29-1.018-1.087-1.821c0.202-0.803,1.016-1.289,1.821-1.088l0.979,0.251c0.802,0.209,1.282,1.028,1.073,1.83
				C198.741,85.742,198.133,86.189,197.467,86.189z M131.194,86.019c-0.67,0-1.28-0.452-1.453-1.131
				c-0.204-0.803,0.281-1.619,1.084-1.823l0.981-0.246c0.807-0.2,1.617,0.294,1.814,1.099c0.198,0.804-0.294,1.617-1.099,1.814
				l-0.958,0.24C131.44,86.003,131.316,86.019,131.194,86.019z M186.724,83.868c-0.085,0-0.171-0.007-0.257-0.022l-0.976-0.165
				c-0.817-0.135-1.37-0.906-1.236-1.724c0.135-0.818,0.903-1.371,1.725-1.236l0.997,0.168c0.816,0.141,1.364,0.917,1.224,1.733
				C188.074,83.354,187.439,83.868,186.724,83.868z M141.949,83.753c-0.719,0-1.354-0.519-1.478-1.251
				c-0.137-0.817,0.414-1.591,1.231-1.728l0.998-0.163c0.811-0.135,1.587,0.425,1.718,1.244c0.131,0.818-0.426,1.587-1.244,1.718
				l-0.976,0.16C142.116,83.747,142.032,83.753,141.949,83.753z M175.823,82.448c-0.044,0-0.089-0.002-0.134-0.006l-0.985-0.083
				c-0.825-0.067-1.44-0.791-1.374-1.616c0.067-0.826,0.801-1.444,1.616-1.374l1.007,0.085c0.825,0.073,1.436,0.801,1.362,1.626
				C177.247,81.86,176.592,82.448,175.823,82.448z M152.856,82.389c-0.772,0-1.428-0.592-1.493-1.375
				c-0.069-0.826,0.544-1.551,1.369-1.62l1.01-0.08c0.827-0.067,1.546,0.558,1.607,1.384c0.062,0.826-0.558,1.546-1.384,1.607
				l-0.983,0.078C152.94,82.388,152.898,82.389,152.856,82.389z M164.842,82c-0.003,0-0.005,0-0.008,0l-0.992-0.038
				c-0.828,0-1.5-0.689-1.5-1.518s0.672-1.509,1.5-1.509l1.008-0.002c0.828,0.004,1.496,0.712,1.492,1.541
				C166.338,81.301,165.667,82,164.842,82z"/>
		</g>
		<g>
			<path fill="#FFFFFF" d="M164,411.072l-1.144-0.003l0.287-49l0.856,0.003V411.072z M173.757,410.833l-2.297-48.945l0.784-0.041
				l2.727,48.924C174.565,410.793,174.161,410.814,173.757,410.833z M151.506,410.682c-0.406-0.025-0.812-0.052-1.217-0.08
				l3.45-48.879l0.778,0.051L151.506,410.682z M186.366,409.813l-5.6-48.68l0.922-0.106l5.742,48.662L186.366,409.813z
				 M138.979,409.494l-1.133-0.147l6.457-48.572l0.851,0.11L138.979,409.494z M198.766,408.008l-8.639-48.232l0.857-0.156
				l8.891,48.188L198.766,408.008z M126.55,407.51l-1.064-0.208l9.485-48.073l0.899,0.176L126.55,407.51z M211.077,405.402
				l-11.75-47.57l0.887-0.221l11.918,47.529L211.077,405.402z M114.316,404.743l-1.043-0.273l12.491-47.381l0.892,0.233
				L114.316,404.743z M223.173,402.021l-14.762-46.723l0.867-0.275l14.934,46.668L223.173,402.021z M102.288,401.202
				c-0.386-0.127-0.771-0.255-1.156-0.385l15.709-46.414l0.749,0.25L102.288,401.202z M235.009,397.879l-17.676-45.701l0.807-0.314
				l17.926,45.604L235.009,397.879z M90.442,396.873l-1.028-0.417l18.494-45.375l0.831,0.337L90.442,396.873z M246.57,392.982
				l-20.58-44.469l0.817-0.38l20.752,44.389L246.57,392.982z M78.913,391.8l-0.975-0.471l21.339-44.109l0.831,0.4L78.913,391.8z
				 M257.712,387.404l-23.23-43.143l0.678-0.369l23.625,42.928C258.428,387.017,258.07,387.212,257.712,387.404z M67.775,386.021
				l-1.013-0.57l24.203-42.605l0.733,0.414L67.775,386.021z M268.623,381.047l-26.074-41.486l0.793-0.5l26.176,41.422
				L268.623,381.047z M56.983,379.522l-0.922-0.6l26.815-41.012l0.756,0.492L56.983,379.522z M279.003,374.078l-28.59-39.795
				l0.729-0.525l28.752,39.678L279.003,374.078z M46.693,372.399l-0.93-0.691l29.389-39.209l0.676,0.504L46.693,372.399z
				 M288.943,366.456l-31.029-37.924l0.693-0.57l31.186,37.795L288.943,366.456z M36.839,364.613l-0.84-0.712l31.734-37.335
				l0.686,0.582L36.839,364.613z M298.379,358.228l-33.332-35.918l0.618-0.577l33.557,35.707L298.379,358.228z M27.503,356.23
				l-0.794-0.764l34.032-35.254l0.648,0.623L27.503,356.23z M307.276,349.424l-35.496-33.779l0.545-0.578l35.779,33.48
				C307.83,348.84,307.555,349.132,307.276,349.424z M18.716,347.277l-0.744-0.811l36.192-33.033l0.606,0.662L18.716,347.277z
				 M315.605,340.076l-37.525-31.51l0.505-0.607l37.795,31.186C316.123,339.455,315.865,339.767,315.605,340.076z M10.526,337.808
				l-0.725-0.899l38.248-30.627l0.529,0.655L10.526,337.808z M323.372,330.165l-39.49-29.008l0.506-0.693l39.658,28.777
				L323.372,330.165z M2.928,327.813L2.3,326.927l40.048-28.234l0.525,0.742L2.928,327.813z M330.498,319.779l-41.293-26.381
				l0.485-0.762l41.398,26.215L330.498,319.779z M-3.997,317.402l-0.611-0.992l41.8-25.568l0.436,0.707L-3.997,317.402z
				 M336.911,309.029l-42.84-23.785l0.406-0.737l42.994,23.504L336.911,309.029z M-10.277,306.522l-0.529-0.994l43.327-22.887
				l0.408,0.766L-10.277,306.522z M342.67,297.809l-44.303-20.934l0.386-0.82l44.385,20.76L342.67,297.809z M-15.838,295.298
				l-0.464-1.024l44.684-20.107l0.358,0.79L-15.838,295.298z M347.69,286.27l-45.555-18.051l0.334-0.847l45.623,17.877
				L347.69,286.27z M-20.681,283.725l-0.398-1.054l45.88-17.205l0.309,0.817L-20.681,283.725z M351.951,274.457l-46.598-15.152
				l0.259-0.806l46.695,14.852L351.951,274.457z M-24.776,271.862l-0.339-1.107l46.897-14.199l0.247,0.806L-24.776,271.862z
				 M355.462,262.343l-47.494-12.053l0.228-0.902l47.529,11.918L355.462,262.343z M-28.105,259.749l-0.271-1.143l47.717-11.139
				l0.191,0.803L-28.105,259.749z M358.172,250.11l-48.156-9.057l0.154-0.831l48.212,8.752L358.172,250.11z M-30.653,247.445
				l-0.194-1.137l48.325-8.102l0.143,0.834L-30.653,247.445z M360.104,237.659l-48.646-5.883l0.111-0.923l48.662,5.742
				L360.104,237.659z M-32.409,235.016l-0.121-1.144l48.742-5.018l0.09,0.845L-32.409,235.016z M361.231,225.207l-48.916-2.877
				l0.048-0.851l48.932,2.582L361.231,225.207z M-33.371,222.516l-0.049-1.179l48.964-1.872l0.035,0.813L-33.371,222.516z
				 M312.572,212.922l-0.006-0.927l48.998-0.432l0.008,1.071L312.572,212.922z M15.449,210.835l-48.992-0.861l0.023-1.143
				l48.986,1.146L15.449,210.835z M312.238,203.438l-0.06-0.849l48.867-3.594l0.081,1.146L312.238,203.438z M15.913,201.399
				l-48.841-3.951l0.096-1.139l48.816,4.236L15.913,201.399z M311.312,194.073l-0.122-0.911l48.553-6.607l0.144,1.071
				L311.312,194.073z M16.973,192.015l-48.493-7.029l0.169-1.141l48.448,7.332L16.973,192.015z M309.782,184.736l-0.166-0.829
				l48.016-9.775l0.227,1.133L309.782,184.736z M18.626,182.735l-47.943-10.119l0.242-1.13l47.878,10.424L18.626,182.735z
				 M307.68,175.599l-0.236-0.881l47.301-12.795l0.281,1.051L307.68,175.599z M20.865,173.594l-47.189-13.195l0.305-1.081
				l47.123,13.434L20.865,173.594z M304.958,166.499l-0.269-0.796l46.385-15.797l0.37,1.099L304.958,166.499z M23.699,164.575
				l-46.267-16.137l0.395-1.118l46.146,16.48L23.699,164.575z M301.694,157.684l-0.317-0.772l45.273-18.744l0.438,1.07
				L301.694,157.684z M27.092,155.791l-45.115-19.121l0.446-1.044l45.012,19.363L27.092,155.791z M297.877,149.099l-0.373-0.765
				l43.984-21.596l0.5,1.026L297.877,149.099z M31.049,147.218l-43.798-21.971l0.509-1.009l43.683,22.199L31.049,147.218z
				 M293.504,140.742L293.082,140l42.535-24.326l0.563,0.991L293.504,140.742z M35.551,138.903L-6.767,114.2l0.582-0.991
				l42.168,24.957L35.551,138.903z M288.626,132.704l-0.503-0.768l40.947-26.914l0.591,0.901L288.626,132.704z M40.573,130.891
				l-40.671-27.329l0.622-0.92l40.549,27.51L40.573,130.891z M283.221,124.949l-0.525-0.701l39.131-29.492l0.672,0.896
				L283.221,124.949z M46.094,123.209L7.224,93.375l0.704-0.912l38.686,30.073L46.094,123.209z M277.366,117.584l-0.598-0.701
				l37.203-31.889l0.699,0.819L277.366,117.584z M52.082,115.902L15.179,83.666l0.745-0.848l36.733,32.429L52.082,115.902z
				 M271.003,110.542l-0.607-0.627l35.111-34.179l0.783,0.809L271.003,110.542z M58.535,108.966L23.708,74.498l0.813-0.815
				l34.612,34.684L58.535,108.966z M264.238,103.944l-0.645-0.587l32.883-36.328l0.834,0.759L264.238,103.944z M65.373,102.488
				l-32.54-36.635l0.844-0.747l32.348,36.805L65.373,102.488z M257.076,97.786l-0.702-0.563l30.557-38.305l0.86,0.688
				L257.076,97.786z M72.636,96.427L42.449,57.83l0.89-0.693l29.983,38.756L72.636,96.427z M249.522,92.081l-0.713-0.501
				l28.051-40.176l0.926,0.649L249.522,92.081z M80.253,90.845L52.561,50.421l0.932-0.635l27.479,40.57L80.253,90.845z
				 M241.635,86.873l-0.745-0.455l25.453-41.871l0.965,0.59L241.635,86.873z M88.213,85.753l-25.104-42.08l0.997-0.59l24.828,42.244
				L88.213,85.753z M233.394,82.155l-0.718-0.378l22.713-43.418l1.056,0.557L233.394,82.155z M96.44,81.198L74.095,37.589
				l1.018-0.518l22.086,43.74L96.44,81.198z M224.945,78.009l-0.769-0.345l19.887-44.783l1.062,0.475L224.945,78.009z
				 M104.962,77.163L85.416,32.23l1.032-0.445l19.311,45.034L104.962,77.163z M216.248,74.408l-0.847-0.316l17.033-45.944
				l1.034,0.386L216.248,74.408z M113.712,73.685L97.059,27.602l1.08-0.387l16.376,46.183L113.712,73.685z M207.25,71.344
				l-0.778-0.235l13.988-46.961l1.146,0.346L207.25,71.344z M122.667,70.773l-13.651-47.06l1.08-0.31l13.414,47.128L122.667,70.773z
				 M198.172,68.89l-0.821-0.192l10.971-47.756l1.126,0.262L198.172,68.89z M131.808,68.436l-10.63-47.833l1.121-0.246
				l10.341,47.896L131.808,68.436z M188.901,67.012l-0.8-0.133l7.893-48.36l1.173,0.196L188.901,67.012z M141.068,66.692
				l-7.543-48.416l1.14-0.174l7.24,48.462L141.068,66.692z M179.59,65.738l-0.846-0.086l4.805-48.764l1.145,0.116L179.59,65.738z
				 M150.437,65.54l-4.456-48.797l1.181-0.104l4.087,48.829L150.437,65.54z M170.172,65.054l-0.855-0.033l1.723-48.97l1.143,0.043
				L170.172,65.054z M159.868,64.983l-1.368-48.98l1.178-0.029l1.007,48.989L159.868,64.983z"/>
		</g>
	</g>
</g>
</svg>
