<?xml version="1.0" encoding="utf-8"?>
<!-- Generator: Adobe Illustrator 15.0.0, SVG Export Plug-In . SVG Version: 6.00 Build 0)  -->
<!DOCTYPE svg PUBLIC "-//W3C//DTD SVG 1.1//EN" "http://www.w3.org/Graphics/SVG/1.1/DTD/svg11.dtd">
<svg version="1.1" id="Warstwa_1" xmlns="http://www.w3.org/2000/svg" xmlns:xlink="http://www.w3.org/1999/xlink" x="0px" y="0px"
	 width="320px" height="280px" viewBox="0 0 320 280" enable-background="new 0 0 320 280" xml:space="preserve">
<g>
	<defs>
		<rect id="SVGID_1_" y="-1" width="320" height="281"/>
	</defs>
	<clipPath id="SVGID_2_">
		<use xlink:href="#SVGID_1_"  overflow="visible"/>
	</clipPath>
	<linearGradient id="SVGID_3_" gradientUnits="userSpaceOnUse" x1="160.0005" y1="294" x2="160.0005" y2="-3.9995">
		<stop  offset="0" style="stop-color:#F3FAEB"/>
		<stop  offset="0.5456" style="stop-color:#FCFEFA"/>
		<stop  offset="1" style="stop-color:#FFFFFF"/>
	</linearGradient>
	<rect x="-42" y="-4" clip-path="url(#SVGID_2_)" fill="url(#SVGID_3_)" fill-opacity="0.55" width="404" height="298"/>
	<g clip-path="url(#SVGID_2_)">
		<g>
			<path fill="#F3FAEB" d="M0,229.333c27.938,0,50.667,22.729,50.667,50.667S27.938,330.667,0,330.667S-50.667,307.938-50.667,280
				S-27.938,229.333,0,229.333 M0,186.333c-51.731,0-93.667,41.937-93.667,93.667S-51.731,373.667,0,373.667
				S93.667,331.73,93.667,280S51.731,186.333,0,186.333L0,186.333z"/>
		</g>
		<g>
			<path fill="#D8F0B9" d="M0.22,385.167l-1.236-0.005c-0.828-0.008-1.494-0.766-1.487-1.594c0.007-0.824,0.677-1.568,1.5-1.568
				c0.005,0,0.009,0,0.014,0l1.21,0.086c0.829,0,1.5,0.713,1.5,1.541S1.048,385.167,0.22,385.167z M10.231,384.666
				c-0.761,0-1.414-0.577-1.491-1.352c-0.082-0.824,0.52-1.559,1.344-1.641l0.984-0.103c0.822-0.087,1.563,0.505,1.653,1.329
				c0.09,0.823-0.505,1.563-1.329,1.653l-1.012,0.104C10.332,384.664,10.281,384.666,10.231,384.666z M-11.011,384.586
				c-0.053,0-0.106-0.003-0.16-0.008l-1.011-0.112c-0.823-0.095-1.414-0.839-1.319-1.661c0.095-0.823,0.828-1.42,1.662-1.319
				l0.983,0.108c0.824,0.088,1.421,0.826,1.334,1.649C-9.603,384.014-10.253,384.586-11.011,384.586z M21.134,383.001
				c-0.695,0-1.319-0.486-1.467-1.193c-0.169-0.812,0.351-1.605,1.162-1.775l0.968-0.206c0.811-0.179,1.608,0.337,1.785,1.146
				c0.177,0.809-0.336,1.608-1.146,1.785l-0.995,0.212C21.339,382.991,21.236,383.001,21.134,383.001z M-21.9,382.839
				c-0.104,0-0.21-0.011-0.317-0.033c-0.333-0.072-0.666-0.146-0.998-0.221c-0.808-0.185-1.313-0.988-1.129-1.796
				c0.184-0.808,0.985-1.313,1.796-1.13c0.319,0.073,0.64,0.145,0.961,0.213c0.81,0.175,1.325,0.972,1.151,1.782
				C-20.586,382.357-21.208,382.839-21.9,382.839z M31.797,380.18c-0.632,0-1.22-0.402-1.426-1.036
				c-0.256-0.788,0.175-1.634,0.962-1.891l0.943-0.31c0.789-0.265,1.635,0.163,1.897,0.949s-0.164,1.636-0.95,1.896l-0.963,0.317
				C32.107,380.156,31.951,380.18,31.797,380.18z M-32.542,379.937c-0.156,0-0.314-0.024-0.471-0.076l-0.968-0.325
				c-0.784-0.269-1.202-1.121-0.935-1.904c0.268-0.785,1.119-1.201,1.904-0.936l0.941,0.317c0.787,0.26,1.213,1.108,0.953,1.895
				C-31.327,379.538-31.913,379.937-32.542,379.937z M42.098,376.232c-0.574,0-1.122-0.331-1.371-0.889
				c-0.338-0.757,0.002-1.644,0.758-1.981l0.897-0.405c0.752-0.345,1.643-0.015,1.988,0.738c0.345,0.754,0.014,1.644-0.739,1.988
				l-0.924,0.419C42.509,376.19,42.302,376.232,42.098,376.232z M-42.816,375.908c-0.208,0-0.418-0.043-0.62-0.135l-0.927-0.427
				c-0.751-0.35-1.076-1.242-0.726-1.993s1.244-1.074,1.993-0.726l0.9,0.415c0.754,0.343,1.088,1.231,0.745,1.985
				C-41.701,375.582-42.246,375.908-42.816,375.908z M51.914,371.209c-0.517,0-1.019-0.267-1.298-0.745
				c-0.417-0.716-0.174-1.635,0.542-2.052l0.852-0.5c0.713-0.424,1.633-0.187,2.056,0.525s0.187,1.633-0.525,2.055l-0.874,0.513
				C52.43,371.144,52.17,371.209,51.914,371.209z M-52.6,370.807c-0.26,0-0.523-0.067-0.763-0.209l-0.873-0.522
				c-0.709-0.428-0.938-1.35-0.51-2.059c0.428-0.711,1.35-0.939,2.059-0.51l0.853,0.509c0.713,0.423,0.949,1.343,0.526,2.056
				C-51.587,370.544-52.087,370.807-52.6,370.807z M61.142,365.171c-0.461,0-0.917-0.212-1.21-0.613
				c-0.49-0.668-0.346-1.606,0.322-2.097l0.794-0.587c0.662-0.495,1.602-0.36,2.1,0.303c0.496,0.663,0.361,1.604-0.303,2.1
				l-0.817,0.604C61.761,365.076,61.45,365.171,61.142,365.171z M-61.785,364.696c-0.312,0-0.626-0.097-0.896-0.298l-0.813-0.61
				c-0.66-0.501-0.79-1.441-0.289-2.102c0.5-0.66,1.442-0.788,2.102-0.289l0.793,0.597c0.664,0.495,0.801,1.435,0.306,2.099
				C-60.876,364.488-61.328,364.696-61.785,364.696z M69.682,358.19c-0.409,0-0.815-0.166-1.111-0.492
				c-0.557-0.613-0.511-1.563,0.103-2.119c0.243-0.221,0.485-0.442,0.726-0.666c0.607-0.563,1.556-0.527,2.12,0.079
				c0.564,0.607,0.528,1.557-0.079,2.12c-0.25,0.231-0.5,0.461-0.751,0.689C70.402,358.062,70.041,358.19,69.682,358.19z
				 M-70.273,357.649c-0.364,0-0.728-0.132-1.017-0.397c-0.25-0.23-0.498-0.462-0.745-0.695c-0.603-0.568-0.632-1.518-0.063-2.12
				c0.568-0.603,1.518-0.632,2.12-0.063c0.24,0.226,0.481,0.451,0.723,0.674c0.609,0.562,0.647,1.511,0.085,2.119
				C-69.466,357.487-69.869,357.649-70.273,357.649z M77.438,350.35c-0.354,0-0.71-0.125-0.996-0.379
				c-0.619-0.55-0.675-1.498-0.125-2.117l0.655-0.744c0.546-0.622,1.494-0.686,2.117-0.143c0.624,0.546,0.688,1.493,0.142,2.117
				l-0.672,0.762C78.264,350.18,77.852,350.35,77.438,350.35z M-77.97,349.748c-0.417,0-0.832-0.173-1.128-0.511
				c-0.224-0.255-0.447-0.512-0.668-0.77c-0.539-0.629-0.467-1.576,0.162-2.115c0.628-0.538,1.576-0.467,2.115,0.162
				c0.214,0.25,0.43,0.497,0.646,0.744c0.546,0.623,0.484,1.57-0.138,2.117C-77.266,349.625-77.618,349.748-77.97,349.748z
				 M84.327,341.734c-0.303,0-0.608-0.091-0.873-0.281c-0.673-0.483-0.827-1.42-0.344-2.094c0.192-0.267,0.382-0.535,0.572-0.806
				c0.475-0.678,1.411-0.842,2.089-0.367c0.679,0.476,0.843,1.411,0.367,2.09c-0.195,0.278-0.393,0.557-0.59,0.833
				C85.254,341.518,84.794,341.734,84.327,341.734z M-84.791,341.081c-0.471,0-0.935-0.221-1.227-0.635
				c-0.196-0.277-0.39-0.555-0.583-0.835c-0.47-0.682-0.299-1.616,0.383-2.086c0.681-0.472,1.616-0.299,2.086,0.383
				c0.187,0.271,0.375,0.54,0.563,0.808c0.478,0.677,0.317,1.612-0.36,2.091C-84.189,340.992-84.492,341.081-84.791,341.081z
				 M90.267,332.438c-0.25,0-0.503-0.063-0.737-0.194c-0.721-0.407-0.975-1.322-0.567-2.044l0.485-0.866
				c0.402-0.725,1.313-0.986,2.04-0.584c0.724,0.402,0.985,1.315,0.583,2.039l-0.497,0.888
				C91.298,332.163,90.79,332.438,90.267,332.438z M-90.657,331.742c-0.527,0-1.038-0.277-1.312-0.771
				c-0.165-0.295-0.328-0.592-0.49-0.891c-0.396-0.728-0.126-1.639,0.602-2.034c0.728-0.395,1.639-0.126,2.034,0.603
				c0.157,0.289,0.315,0.576,0.475,0.863c0.403,0.724,0.143,1.637-0.581,2.04C-90.16,331.682-90.41,331.742-90.657,331.742z
				 M95.186,322.563c-0.199,0-0.401-0.039-0.595-0.124c-0.76-0.329-1.109-1.212-0.78-1.973c0.131-0.303,0.261-0.606,0.39-0.911
				c0.321-0.764,1.202-1.123,1.964-0.801c0.764,0.322,1.122,1.201,0.8,1.965c-0.132,0.314-0.266,0.628-0.401,0.94
				C96.318,322.225,95.766,322.563,95.186,322.563z M-95.499,321.833c-0.584,0-1.14-0.343-1.382-0.915l-0.39-0.933
				c-0.317-0.766,0.046-1.643,0.812-1.96c0.766-0.319,1.642,0.047,1.96,0.812l0.381,0.911c0.323,0.763-0.034,1.644-0.796,1.966
				C-95.105,321.795-95.303,321.833-95.499,321.833z M99.022,312.218c-0.147,0-0.297-0.021-0.446-0.067
				c-0.791-0.246-1.233-1.087-0.987-1.878l0.29-0.949c0.238-0.794,1.071-1.244,1.868-1.006c0.793,0.238,1.244,1.074,1.005,1.867
				c-0.098,0.327-0.198,0.653-0.299,0.979C100.254,311.806,99.662,312.218,99.022,312.218z M-99.253,311.467
				c-0.645,0-1.24-0.418-1.436-1.066l-0.29-0.976c-0.232-0.795,0.225-1.628,1.02-1.86c0.799-0.228,1.629,0.226,1.86,1.021
				l0.282,0.948c0.239,0.793-0.209,1.63-1.002,1.869C-98.963,311.446-99.109,311.467-99.253,311.467z M101.729,301.521
				c-0.095,0-0.191-0.009-0.289-0.027c-0.813-0.159-1.344-0.946-1.185-1.76l0.186-0.974c0.152-0.814,0.937-1.353,1.75-1.199
				c0.814,0.152,1.351,0.936,1.199,1.75l-0.191,0.997C103.06,301.023,102.432,301.521,101.729,301.521z M-101.876,300.754
				c-0.707,0-1.336-0.502-1.473-1.222c-0.063-0.333-0.125-0.668-0.184-1.004c-0.145-0.815,0.399-1.594,1.215-1.738
				c0.815-0.143,1.594,0.398,1.739,1.215c0.058,0.324,0.117,0.647,0.178,0.971c0.154,0.813-0.381,1.599-1.196,1.752
				C-101.69,300.745-101.784,300.754-101.876,300.754z M103.273,290.601c-0.044,0-0.089-0.002-0.133-0.006
				c-0.825-0.072-1.436-0.801-1.363-1.626c0.029-0.327,0.056-0.655,0.081-0.984c0.064-0.825,0.776-1.469,1.611-1.379
				c0.826,0.063,1.444,0.785,1.38,1.611c-0.026,0.339-0.054,0.677-0.084,1.016C104.697,290.013,104.042,290.601,103.273,290.601z
				 M-103.337,289.823c-0.775,0-1.432-0.596-1.494-1.382l-0.076-1.012c-0.059-0.826,0.563-1.544,1.389-1.604
				c0.827-0.063,1.544,0.563,1.604,1.389l0.074,0.99c0.065,0.825-0.551,1.548-1.377,1.613
				C-103.258,289.821-103.298,289.823-103.337,289.823z M103.649,280c-0.816,0-1.485-0.865-1.5-1.685
				c-0.005-0.329-0.013-0.763-0.022-1.091c-0.023-0.828,0.63-1.571,1.458-1.594c0.837-0.051,1.518,0.603,1.542,1.431
				c0.009,0.338,0.017,0.876,0.023,1.214c0.014,0.828-0.646,1.725-1.474,1.725C103.667,280,103.658,280,103.649,280z M-103.632,279
				c-0.013,0-0.026,0-0.04,0c-0.828,0-1.481-0.813-1.46-1.641l0.031-1.067c0.029-0.827,0.741-1.516,1.552-1.472
				c0.828,0.029,1.476,0.711,1.446,1.539l-0.03,1.085C-102.154,278.26-102.821,279-103.632,279z M102.864,268.58
				c-0.746,0-1.392-0.555-1.486-1.313l-0.127-0.982c-0.11-0.82,0.466-1.575,1.287-1.686c0.825-0.119,1.577,0.466,1.687,1.287
				l0.13,1.008c0.103,0.822-0.48,1.572-1.302,1.675C102.989,268.576,102.926,268.58,102.864,268.58z M-102.764,267.803
				c-0.065,0-0.132-0.004-0.199-0.013c-0.821-0.109-1.399-0.863-1.29-1.685c0.044-0.337,0.09-0.673,0.139-1.01
				c0.118-0.818,0.88-1.379,1.697-1.272c0.82,0.118,1.39,0.878,1.272,1.698c-0.046,0.325-0.091,0.651-0.135,0.979
				C-101.379,267.254-102.023,267.803-102.764,267.803z M100.915,257.726c-0.679,0-1.295-0.465-1.458-1.154l-0.232-0.964
				c-0.198-0.805,0.294-1.616,1.099-1.814c0.807-0.198,1.617,0.295,1.814,1.1l0.238,0.987c0.19,0.807-0.309,1.614-1.115,1.806
				C101.146,257.713,101.029,257.726,100.915,257.726z M-100.733,256.963c-0.117,0-0.236-0.014-0.355-0.043
				c-0.805-0.195-1.299-1.007-1.103-1.812c0.081-0.33,0.162-0.66,0.246-0.989c0.205-0.803,1.02-1.285,1.824-1.084
				c0.803,0.205,1.288,1.021,1.083,1.824c-0.081,0.319-0.161,0.638-0.238,0.958C-99.443,256.503-100.057,256.963-100.733,256.963z
				 M97.815,247.141c-0.619,0-1.198-0.386-1.415-1.003c-0.109-0.311-0.22-0.62-0.333-0.929c-0.283-0.779,0.119-1.64,0.897-1.923
				c0.779-0.284,1.639,0.119,1.922,0.897c0.116,0.32,0.231,0.64,0.343,0.96c0.275,0.781-0.136,1.638-0.918,1.912
				C98.148,247.113,97.98,247.141,97.815,247.141z M-97.552,246.402c-0.169,0-0.341-0.028-0.509-0.089
				c-0.779-0.281-1.183-1.141-0.902-1.92c0.116-0.32,0.233-0.641,0.352-0.96c0.29-0.776,1.154-1.171,1.93-0.882
				c0.776,0.289,1.171,1.152,0.882,1.929c-0.116,0.31-0.229,0.62-0.341,0.931C-96.361,246.022-96.938,246.402-97.552,246.402z
				 M93.599,236.949c-0.56,0-1.097-0.314-1.354-0.854c-0.142-0.298-0.285-0.593-0.429-0.887c-0.365-0.744-0.058-1.643,0.687-2.007
				c0.742-0.367,1.642-0.058,2.007,0.687c0.149,0.304,0.296,0.608,0.442,0.914c0.357,0.748,0.04,1.644-0.708,2
				C94.036,236.902,93.816,236.949,93.599,236.949z M-93.257,236.239c-0.221,0-0.444-0.049-0.656-0.151
				c-0.745-0.363-1.055-1.261-0.692-2.006l0.451-0.914c0.37-0.741,1.272-1.039,2.011-0.674c0.742,0.37,1.043,1.271,0.673,2.012
				l-0.438,0.891C-92.167,235.93-92.701,236.239-93.257,236.239z M88.322,227.268c-0.503,0-0.995-0.253-1.278-0.713l-0.521-0.837
				c-0.442-0.701-0.231-1.628,0.47-2.069s1.627-0.229,2.068,0.47l0.537,0.862c0.435,0.705,0.216,1.629-0.489,2.063
				C88.862,227.195,88.59,227.268,88.322,227.268z M-87.902,226.593c-0.271,0-0.546-0.073-0.794-0.229
				c-0.702-0.439-0.916-1.364-0.477-2.066c0.181-0.29,0.364-0.578,0.547-0.864c0.448-0.696,1.376-0.898,2.073-0.451
				c0.697,0.447,0.899,1.375,0.452,2.072c-0.178,0.276-0.354,0.555-0.528,0.833C-86.914,226.343-87.402,226.593-87.902,226.593z
				 M82.045,218.199c-0.448,0-0.892-0.2-1.187-0.582l-0.609-0.779c-0.513-0.651-0.401-1.594,0.25-2.106
				c0.651-0.513,1.595-0.4,2.107,0.249l0.625,0.801c0.507,0.655,0.387,1.597-0.268,2.104
				C82.689,218.097,82.366,218.199,82.045,218.199z M-81.555,217.569c-0.325,0-0.651-0.104-0.926-0.321
				c-0.651-0.512-0.764-1.455-0.252-2.105l0.632-0.797c0.517-0.646,1.461-0.752,2.108-0.233c0.646,0.518,0.751,1.461,0.233,2.108
				l-0.616,0.775C-80.67,217.373-81.11,217.569-81.555,217.569z M74.846,209.842c-0.394,0-0.788-0.154-1.083-0.462l-0.688-0.711
				c-0.579-0.594-0.567-1.543,0.026-2.121c0.593-0.58,1.542-0.567,2.121,0.025l0.706,0.73c0.573,0.598,0.554,1.547-0.044,2.12
				C75.594,209.703,75.22,209.842,74.846,209.842z M-74.29,209.266c-0.377,0-0.755-0.142-1.046-0.425
				c-0.594-0.578-0.606-1.528-0.028-2.121l0.71-0.724c0.583-0.591,1.532-0.595,2.122-0.014c0.589,0.582,0.595,1.532,0.013,2.121
				l-0.695,0.708C-73.509,209.114-73.899,209.266-74.29,209.266z M66.806,202.288c-0.341,0-0.684-0.115-0.965-0.353l-0.762-0.637
				c-0.638-0.528-0.726-1.475-0.197-2.112c0.529-0.637,1.474-0.727,2.112-0.196l0.778,0.65c0.634,0.533,0.715,1.479,0.182,2.113
				C67.658,202.106,67.233,202.288,66.806,202.288z M-66.192,201.774c-0.43,0-0.857-0.184-1.154-0.54
				c-0.53-0.637-0.444-1.583,0.193-2.112c0.261-0.218,0.523-0.433,0.786-0.647c0.642-0.523,1.587-0.428,2.11,0.216
				c0.523,0.642,0.427,1.587-0.215,2.11c-0.255,0.207-0.508,0.416-0.761,0.626C-65.513,201.66-65.854,201.774-66.192,201.774z
				 M58.014,195.625c-0.289,0-0.581-0.083-0.839-0.258l-0.825-0.553c-0.689-0.459-0.876-1.391-0.417-2.08
				c0.458-0.691,1.39-0.877,2.08-0.418l0.844,0.566c0.686,0.464,0.866,1.396,0.402,2.082
				C58.968,195.394,58.495,195.625,58.014,195.625z M-57.351,195.18c-0.484,0-0.96-0.234-1.249-0.667
				c-0.46-0.688-0.274-1.62,0.415-2.08l0.848-0.561c0.692-0.452,1.624-0.258,2.076,0.435c0.454,0.693,0.259,1.623-0.435,2.077
				l-0.824,0.543C-56.775,195.098-57.064,195.18-57.351,195.18z M48.565,189.93c-0.238,0-0.48-0.057-0.706-0.177
				c-0.291-0.155-0.582-0.31-0.874-0.461c-0.735-0.381-1.022-1.286-0.641-2.021c0.382-0.734,1.288-1.024,2.022-0.641
				c0.303,0.157,0.604,0.315,0.906,0.477c0.731,0.391,1.006,1.3,0.616,2.03C49.62,189.643,49.101,189.93,48.565,189.93z
				 M-47.862,189.559c-0.541,0-1.063-0.293-1.331-0.806c-0.383-0.734-0.099-1.641,0.635-2.023l0.902-0.466
				c0.736-0.377,1.641-0.084,2.018,0.654c0.376,0.738,0.083,1.642-0.655,2.018l-0.875,0.452
				C-47.391,189.504-47.628,189.559-47.862,189.559z M38.566,185.271c-0.186,0-0.375-0.034-0.558-0.107l-0.923-0.366
				c-0.771-0.302-1.153-1.172-0.851-1.943c0.301-0.771,1.172-1.149,1.943-0.852l0.949,0.376c0.769,0.309,1.142,1.183,0.833,1.951
				C39.724,184.916,39.161,185.271,38.566,185.271z M-37.832,184.979c-0.599,0-1.165-0.36-1.397-0.952
				c-0.302-0.771,0.077-1.642,0.849-1.944l0.949-0.367c0.775-0.299,1.64,0.093,1.936,0.867c0.295,0.773-0.093,1.641-0.867,1.936
				l-0.922,0.357C-37.464,184.946-37.65,184.979-37.832,184.979z M28.125,181.709c-0.135,0-0.272-0.018-0.408-0.057l-0.954-0.264
				c-0.799-0.218-1.271-1.042-1.053-1.842c0.217-0.799,1.043-1.272,1.841-1.053l0.98,0.271c0.797,0.225,1.261,1.054,1.036,1.851
				C29.381,181.277,28.779,181.709,28.125,181.709z M-27.368,181.498c-0.66,0-1.264-0.438-1.446-1.105
				c-0.218-0.799,0.253-1.624,1.053-1.842l0.979-0.264c0.8-0.213,1.622,0.265,1.834,1.065s-0.264,1.622-1.065,1.835l-0.959,0.258
				C-27.104,181.481-27.237,181.498-27.368,181.498z M17.367,179.288c-0.083,0-0.167-0.007-0.252-0.021l-0.977-0.161
				c-0.818-0.131-1.375-0.899-1.245-1.718c0.131-0.818,0.9-1.374,1.718-1.245l1.004,0.165c0.817,0.139,1.367,0.912,1.229,1.729
				C18.72,178.771,18.085,179.288,17.367,179.288z M-16.591,179.159c-0.722,0-1.359-0.523-1.479-1.259
				c-0.133-0.818,0.422-1.589,1.24-1.722c0.335-0.055,0.672-0.107,1.008-0.158c0.817-0.13,1.583,0.44,1.707,1.26
				c0.123,0.819-0.441,1.583-1.26,1.707c-0.325,0.049-0.65,0.1-0.974,0.152C-16.43,179.153-16.511,179.159-16.591,179.159z
				 M6.41,178.029c-0.031,0-0.062-0.001-0.094-0.003l-0.988-0.056c-0.827-0.044-1.463-0.749-1.419-1.577
				c0.043-0.827,0.756-1.444,1.577-1.419l1.015,0.058c0.827,0.051,1.456,0.763,1.405,1.589
				C7.856,177.417,7.196,178.029,6.41,178.029z M-5.625,177.983c-0.792,0-1.454-0.621-1.497-1.421
				c-0.043-0.827,0.592-1.533,1.419-1.577l1.016-0.05c0.828-0.024,1.528,0.605,1.564,1.434c0.036,0.827-0.605,1.527-1.433,1.564
				l-0.988,0.048C-5.571,177.982-5.598,177.983-5.625,177.983z"/>
		</g>
		<g>
			<path fill="#E5F0D8" d="M0.228,448c-0.125,0-0.249,0-0.377,0c-0.309,0-0.688,0.082-1.066,0.078l0.431-49.039L0,399h0.668
				l0.342,48.998C0.75,448,0.489,448,0.228,448z M12.621,447.698l-3.588-48.869l0.78-0.061l4.021,48.834
				C13.43,447.636,13.025,447.668,12.621,447.698z M-12.85,447.68l-1.142-0.091l4.021-48.834l0.851,0.067L-12.85,447.68z
				 M25.411,446.249L18.089,397.8l0.772-0.121l7.753,48.383C26.213,446.126,25.812,446.188,25.411,446.249z M-25.637,446.214
				l-1.133-0.178l7.753-48.383l0.842,0.133L-25.637,446.214z M38.065,443.819l-11.039-47.74l0.745-0.176l11.495,47.633
				C38.867,443.633,38.466,443.727,38.065,443.819z M-38.295,443.766l-1.049-0.248l11.343-47.67l0.897,0.213L-38.295,443.766z
				 M50.531,440.41l-14.763-46.723l0.792-0.253l15.085,46.62L50.531,440.41z M-50.727,440.349l-1.052-0.338l15.043-46.633
				l0.86,0.275L-50.727,440.349z M62.634,436.071l-18.297-45.455l0.761-0.31l18.62,45.324L62.634,436.071z M-62.823,435.995
				c-0.38-0.153-0.759-0.308-1.138-0.464l18.739-45.275l0.72,0.294L-62.823,435.995z M74.375,430.812l-21.74-43.912l0.733-0.366
				l22.058,43.754L74.375,430.812z M-74.587,430.707c-0.371-0.184-0.741-0.369-1.11-0.557l22.199-43.684l0.682,0.342
				L-74.587,430.707z M85.682,424.667L60.63,382.556l0.718-0.431l25.326,41.947L85.682,424.667z M-85.91,424.53l-0.995-0.598
				l25.368-41.922l0.721,0.434L-85.91,424.53z M96.416,417.724l-28.07-40.162l0.62-0.438l28.46,39.887
				C97.09,417.25,96.754,417.488,96.416,417.724z M-96.705,417.521l-0.931-0.661l28.46-39.887l0.701,0.497L-96.705,417.521z
				 M106.721,409.886l-31.185-37.795l0.691-0.572l31.341,37.666L106.721,409.886z M-106.907,409.732
				c-0.324-0.267-0.646-0.534-0.967-0.804l31.545-37.496l0.571,0.476L-106.907,409.732z M116.29,401.386l-33.886-35.395l0.573-0.553
				l34.179,35.111L116.29,401.386z M-116.539,401.146l-0.809-0.783l34.179-35.111l0.627,0.607L-116.539,401.146z M125.222,392.15
				l-36.464-32.732l0.53-0.596l36.733,32.43L125.222,392.15z M-125.437,391.91c-0.271-0.304-0.542-0.608-0.812-0.915l36.832-32.318
				l0.515,0.581L-125.437,391.91z M133.45,382.238l-38.871-29.834l0.511-0.671l39.062,29.584L133.45,382.238z M-133.643,381.985
				l-0.682-0.898l39.096-29.537l0.525,0.691L-133.643,381.985z M140.898,371.729l-41.044-26.766l0.474-0.731l41.186,26.549
				L140.898,371.729z M-141.046,371.501l-0.632-0.979l41.25-26.447l0.45,0.696L-141.046,371.501z M147.518,360.69l-42.965-23.559
				l0.402-0.739l43.118,23.277L147.518,360.69z M-147.643,360.462l-0.553-1.02l43.146-23.227l0.397,0.732L-147.643,360.462z
				 M153.27,349.187l-44.625-20.238l0.332-0.739l44.782,19.887L153.27,349.187z M-153.387,348.929l-0.458-1.026l44.789-19.874
				l0.354,0.793L-153.387,348.929z M158.136,337.238l-46.054-16.734l0.274-0.763l46.184,16.371L158.136,337.238z M-158.211,337.028
				l-0.401-1.123l46.213-16.289l0.271,0.76L-158.211,337.028z M162.063,324.961l-47.208-13.129l0.213-0.78l47.31,12.76
				L162.063,324.961z M-162.118,324.758l-0.313-1.15l47.328-12.692l0.212,0.78L-162.118,324.758z M165.03,312.411l-48.084-9.43
				l0.157-0.816l48.148,9.1L165.03,312.411z M-165.073,312.191l-0.21-1.1l48.147-9.1l0.166,0.865L-165.073,312.191z
				 M167.021,299.672L118.351,294l0.097-0.851l48.703,5.387L167.021,299.672z M-167.042,299.497l-0.132-1.18l48.712-5.301
				l0.091,0.809L-167.042,299.497z M168.027,286.882l-48.958-2.01l0.031-0.82l48.972,1.652L168.027,286.882z M-168.036,286.674
				l-0.042-1.176l48.975-1.584l0.029,0.816L-168.036,286.674z M119.092,275.746l-0.031-0.813l48.956-2.094l0.045,1.178
				L119.092,275.746z M-119.087,275.607l-48.967-1.795l0.045-1.143l48.956,2.082L-119.087,275.607z M118.426,266.651l-0.094-0.816
				l48.654-5.813l0.136,1.17L118.426,266.651z M-118.41,266.513l-48.687-5.529l0.132-1.135l48.654,5.813L-118.41,266.513z
				 M117.068,257.65l-0.164-0.844l48.076-9.471l0.217,1.119L117.068,257.65z M-117.042,257.512l-48.116-9.264l0.219-1.12
				l48.063,9.541L-117.042,257.512z M115.019,248.772l-0.219-0.798l47.189-13.195l0.312,1.13L115.019,248.772z M-114.982,248.636
				l-47.264-12.93l0.313-1.13l47.171,13.262L-114.982,248.636z M112.293,240.082l-0.282-0.782l46.037-16.779l0.396,1.099
				L112.293,240.082z M-112.24,239.934l-46.139-16.498c0.137-0.384,0.275-0.767,0.416-1.147l45.991,16.906L-112.24,239.934z
				 M108.916,231.654l-0.344-0.765l44.605-20.281l0.474,1.052L108.916,231.654z M-108.847,231.501l-44.706-20.061l0.467-1.033
				l44.599,20.299L-108.847,231.501z M104.886,223.479l-0.4-0.733l42.929-23.625l0.555,1.017L104.886,223.479z M-104.79,223.301
				l-43.058-23.389l0.56-1.021l42.901,23.674L-104.79,223.301z M100.243,215.637l-0.456-0.703l41.001-26.83l0.631,0.971
				L100.243,215.637z M-100.121,215.446l-41.152-26.598l0.65-0.998l40.946,26.916L-100.121,215.446z M94.98,208.122l-0.466-0.61
				l38.817-29.904c0.25,0.325,0.499,0.65,0.746,0.978L94.98,208.122z M-94.875,207.983l-38.993-29.674l0.714-0.932l38.782,29.949
				L-94.875,207.983z M89.223,201.104l-0.562-0.63l36.464-32.732l0.769,0.862L89.223,201.104z M-89.083,200.945l-36.6-32.58
				l0.752-0.841l36.429,32.771L-89.083,200.945z M82.928,194.515l-0.629-0.605l33.886-35.395l0.812,0.781L82.928,194.515z
				 M-82.754,194.347l-34.032-35.254l0.812-0.779l33.851,35.428L-82.754,194.347z M76.131,188.402l-0.675-0.559l31.114-37.854
				l0.867,0.717L76.131,188.402z M-75.928,188.233l-31.306-37.695c0.317-0.264,0.634-0.524,0.953-0.784l30.942,37.994
				L-75.928,188.233z M68.873,182.812l-0.671-0.474l28.1-40.143l0.964,0.681L68.873,182.812z M-68.695,182.686l-28.331-39.98
				l0.963-0.677l28.037,40.186L-68.695,182.686z M61.199,177.785l-0.67-0.4l24.957-42.168c0.35,0.208,0.7,0.416,1.05,0.627
				L61.199,177.785z M-61.064,177.704l-25.189-42.03l0.995-0.592l24.913,42.194L-61.064,177.704z M53.2,173.383l-0.683-0.34
				l21.627-43.969c0.372,0.183,0.743,0.367,1.112,0.553L53.2,173.383z M-53.073,173.318l-21.913-43.827l1.051-0.521l21.596,43.984
				L-53.073,173.318z M44.913,169.618l-0.721-0.292l18.174-45.505c0.38,0.152,0.76,0.306,1.139,0.461L44.913,169.618z
				 M-44.791,169.568l-18.472-45.385l1.085-0.438l18.148,45.516L-44.791,169.568z M36.427,166.523l-0.881-0.28l14.721-46.736
				l1.032,0.328L36.427,166.523z M-36.229,166.46l-14.935-46.668l1.105-0.35l14.632,46.764L-36.229,166.46z M27.599,164.056
				l-0.795-0.187l10.986-47.752l1.152,0.27L27.599,164.056z M-27.467,164.024l-11.275-47.685l1.118-0.26l10.986,47.752
				L-27.467,164.024z M18.679,162.293l-0.843-0.13l7.321-48.45l1.134,0.175L18.679,162.293z M-18.511,162.267l-7.612-48.405
				l1.169-0.179l7.251,48.46L-18.511,162.267z M9.63,161.217l-0.852-0.064l3.588-48.869l1.143,0.087L9.63,161.217z M-9.46,161.204
				l-3.879-48.847l1.178-0.089l3.517,48.874L-9.46,161.204z M0.525,161h-0.852l-0.174-49H0h0.647L0.525,161z"/>
		</g>
	</g>
	<g clip-path="url(#SVGID_2_)">
		<g>
			<path fill="#F3FAEB" d="M302,190.594c-22.316,0-40.406,18.091-40.406,40.406s18.09,40.406,40.406,40.406
				s40.406-18.091,40.406-40.406S324.316,190.594,302,190.594L302,190.594z"/>
		</g>
		<g>
			<path fill="#D8F0B9" d="M302.208,283H302c-0.342,0-0.683-0.05-1.023-0.057c-0.828-0.018-1.485-0.727-1.469-1.555
				c0.018-0.829,0.695-1.427,1.531-1.434C301.358,279.962,301.68,280,302,280h0.208c0.828,0,1.5,0.672,1.5,1.5
				S303.036,283,302.208,283z M312.058,281.897c-0.699,0-1.325-0.492-1.469-1.204c-0.163-0.813,0.362-1.603,1.175-1.767
				c0.314-0.063,0.627-0.13,0.938-0.2c0.808-0.181,1.611,0.327,1.792,1.136s-0.327,1.61-1.136,1.792
				c-0.333,0.074-0.667,0.146-1.003,0.214C312.256,281.888,312.156,281.897,312.058,281.897z M291.174,281.735
				c-0.106,0-0.215-0.011-0.324-0.035c-0.332-0.073-0.663-0.149-0.994-0.229c-0.805-0.194-1.302-1.004-1.108-1.81
				c0.194-0.805,1.003-1.302,1.81-1.108c0.312,0.075,0.625,0.147,0.939,0.217c0.809,0.179,1.32,0.979,1.142,1.788
				C292.483,281.259,291.863,281.735,291.174,281.735z M322.434,278.578c-0.574,0-1.121-0.33-1.37-0.889
				c-0.338-0.756,0.001-1.644,0.758-1.98c0.293-0.132,0.584-0.265,0.874-0.4c0.751-0.354,1.643-0.027,1.995,0.722
				c0.352,0.75,0.028,1.644-0.722,1.995c-0.306,0.144-0.614,0.284-0.925,0.422C322.846,278.536,322.638,278.578,322.434,278.578z
				 M280.853,278.253c-0.212,0-0.426-0.045-0.631-0.14c-0.311-0.144-0.619-0.291-0.926-0.441c-0.744-0.364-1.052-1.263-0.687-2.007
				c0.364-0.743,1.263-1.052,2.007-0.687c0.287,0.141,0.578,0.278,0.869,0.414c0.751,0.349,1.077,1.24,0.729,1.992
				C281.96,277.932,281.418,278.253,280.853,278.253z M331.844,273.1c-0.46,0-0.915-0.211-1.209-0.61
				c-0.491-0.667-0.349-1.606,0.318-2.098c0.259-0.19,0.514-0.382,0.768-0.577c0.656-0.504,1.598-0.382,2.104,0.275
				c0.505,0.656,0.382,1.599-0.275,2.104c-0.27,0.207-0.542,0.412-0.816,0.614C332.464,273.005,332.152,273.1,331.844,273.1z
				 M271.523,272.626c-0.316,0-0.635-0.1-0.906-0.306c-0.272-0.207-0.544-0.417-0.812-0.63c-0.647-0.517-0.755-1.46-0.239-2.108
				c0.518-0.647,1.46-0.755,2.108-0.239c0.25,0.199,0.502,0.396,0.757,0.589c0.659,0.501,0.788,1.441,0.287,2.102
				C272.424,272.422,271.977,272.626,271.523,272.626z M339.866,265.735c-0.351,0-0.704-0.123-0.988-0.373
				c-0.623-0.546-0.685-1.494-0.138-2.116c0.211-0.241,0.421-0.485,0.629-0.731c0.535-0.632,1.479-0.712,2.114-0.177
				c0.633,0.535,0.712,1.481,0.177,2.114c-0.22,0.26-0.441,0.518-0.666,0.772C340.698,265.563,340.283,265.735,339.866,265.735z
				 M263.615,265.136c-0.426,0-0.848-0.18-1.145-0.529c-0.219-0.258-0.436-0.518-0.65-0.777c-0.526-0.64-0.435-1.585,0.204-2.112
				c0.64-0.525,1.585-0.435,2.112,0.204c0.205,0.25,0.412,0.498,0.621,0.744c0.536,0.632,0.459,1.578-0.173,2.114
				C264.303,265.019,263.958,265.136,263.615,265.136z M346.137,256.827c-0.247,0-0.497-0.061-0.728-0.188
				c-0.725-0.402-0.985-1.315-0.583-2.04c0.156-0.28,0.308-0.562,0.457-0.845c0.386-0.733,1.293-1.013,2.026-0.628
				c0.732,0.386,1.014,1.293,0.628,2.026c-0.159,0.303-0.322,0.604-0.488,0.903C347.175,256.549,346.663,256.827,346.137,256.827z
				 M257.486,256.133c-0.536,0-1.055-0.288-1.324-0.794c-0.16-0.3-0.317-0.602-0.471-0.904c-0.376-0.738-0.081-1.642,0.657-2.017
				c0.738-0.378,1.641-0.081,2.017,0.657c0.146,0.285,0.293,0.569,0.443,0.852c0.39,0.73,0.113,1.64-0.617,2.029
				C257.967,256.076,257.725,256.133,257.486,256.133z M350.348,246.78c-0.142,0-0.285-0.02-0.427-0.062
				c-0.795-0.235-1.248-1.07-1.013-1.864c0.091-0.308,0.18-0.616,0.265-0.927c0.221-0.798,1.044-1.265,1.845-1.048
				c0.798,0.22,1.268,1.046,1.048,1.845c-0.091,0.328-0.184,0.656-0.28,0.981C351.592,246.358,350.994,246.78,350.348,246.78z
				 M253.436,246.024c-0.656,0-1.259-0.434-1.443-1.097c-0.092-0.329-0.181-0.658-0.266-0.989c-0.205-0.803,0.278-1.62,1.081-1.825
				c0.805-0.207,1.619,0.278,1.825,1.081c0.079,0.31,0.162,0.619,0.248,0.927c0.224,0.798-0.243,1.625-1.041,1.848
				C253.705,246.007,253.569,246.024,253.436,246.024z M352.284,236.063c-0.036,0-0.072-0.001-0.108-0.004
				c-0.826-0.059-1.448-0.776-1.39-1.603c0.022-0.318,0.041-0.639,0.058-0.959c0.042-0.827,0.751-1.453,1.573-1.423
				c0.827,0.041,1.465,0.746,1.423,1.573c-0.017,0.342-0.037,0.682-0.062,1.021C353.722,235.46,353.063,236.063,352.284,236.063z
				 M251.668,235.279c-0.792,0-1.454-0.62-1.497-1.42c-0.018-0.338-0.033-0.678-0.045-1.019c-0.029-0.828,0.618-1.522,1.446-1.552
				c0.813-0.045,1.522,0.618,1.552,1.446c0.012,0.323,0.025,0.644,0.043,0.964c0.044,0.827-0.591,1.534-1.418,1.578
				C251.722,235.278,251.694,235.279,251.668,235.279z M351.874,225.18c-0.73,0-1.37-0.534-1.481-1.278
				c-0.048-0.32-0.098-0.64-0.15-0.958c-0.134-0.817,0.419-1.59,1.236-1.725c0.821-0.126,1.59,0.419,1.725,1.236
				c0.055,0.334,0.106,0.669,0.156,1.003c0.122,0.819-0.442,1.583-1.262,1.705C352.022,225.175,351.947,225.18,351.874,225.18z
				 M252.245,224.403c-0.079,0-0.16-0.006-0.24-0.02c-0.818-0.132-1.374-0.901-1.242-1.719c0.054-0.339,0.112-0.676,0.174-1.011
				c0.149-0.814,0.928-1.353,1.747-1.204c0.814,0.15,1.354,0.932,1.204,1.747c-0.058,0.313-0.112,0.629-0.164,0.944
				C253.605,223.879,252.968,224.403,252.245,224.403z M349.138,214.639c-0.604,0-1.174-0.367-1.401-0.966
				c-0.114-0.299-0.23-0.597-0.351-0.894c-0.31-0.769,0.063-1.643,0.831-1.952c0.772-0.313,1.644,0.063,1.952,0.831
				c0.126,0.314,0.25,0.63,0.37,0.946c0.295,0.774-0.093,1.641-0.867,1.936C349.496,214.607,349.315,214.639,349.138,214.639z
				 M255.147,213.906c-0.186,0-0.373-0.034-0.556-0.106c-0.77-0.307-1.145-1.18-0.838-1.949c0.126-0.316,0.256-0.631,0.387-0.944
				c0.32-0.764,1.196-1.124,1.963-0.805c0.765,0.32,1.124,1.198,0.805,1.963c-0.125,0.298-0.247,0.597-0.367,0.897
				C256.307,213.549,255.743,213.906,255.147,213.906z M344.189,204.941c-0.489,0-0.969-0.239-1.257-0.68
				c-0.175-0.267-0.353-0.532-0.532-0.796c-0.469-0.684-0.294-1.617,0.39-2.085c0.685-0.468,1.618-0.293,2.085,0.39
				c0.193,0.281,0.383,0.564,0.569,0.851c0.453,0.693,0.259,1.622-0.436,2.076C344.756,204.862,344.472,204.941,344.189,204.941z
				 M260.251,204.281c-0.289,0-0.582-0.083-0.839-0.258c-0.687-0.464-0.867-1.396-0.402-2.082c0.191-0.284,0.387-0.566,0.585-0.845
				c0.479-0.676,1.417-0.834,2.091-0.354c0.676,0.479,0.835,1.416,0.354,2.091c-0.185,0.261-0.366,0.523-0.546,0.788
				C261.205,204.05,260.731,204.281,260.251,204.281z M337.274,196.526c-0.379,0-0.758-0.143-1.05-0.429
				c-0.229-0.225-0.461-0.447-0.694-0.668c-0.603-0.568-0.63-1.518-0.062-2.12c0.568-0.602,1.517-0.63,2.12-0.062
				c0.247,0.232,0.492,0.469,0.735,0.707c0.592,0.579,0.602,1.529,0.021,2.121C338.053,196.376,337.663,196.526,337.274,196.526z
				 M267.299,195.973c-0.396,0-0.792-0.156-1.087-0.466c-0.571-0.601-0.547-1.55,0.053-2.121c0.247-0.234,0.497-0.468,0.749-0.697
				c0.61-0.556,1.561-0.515,2.119,0.098s0.515,1.561-0.098,2.119c-0.236,0.216-0.471,0.434-0.702,0.654
				C268.042,195.836,267.67,195.973,267.299,195.973z M328.724,189.776c-0.271,0-0.546-0.073-0.793-0.228
				c-0.273-0.17-0.549-0.34-0.826-0.507c-0.71-0.427-0.939-1.349-0.512-2.059c0.427-0.711,1.349-0.938,2.059-0.512
				c0.291,0.175,0.58,0.353,0.867,0.532c0.703,0.438,0.917,1.363,0.479,2.066C329.713,189.526,329.224,189.776,328.724,189.776z
				 M275.953,189.359c-0.507,0-1.002-0.257-1.284-0.723c-0.429-0.709-0.202-1.631,0.506-2.061c0.29-0.175,0.582-0.348,0.874-0.518
				c0.713-0.417,1.634-0.176,2.051,0.541c0.417,0.716,0.175,1.635-0.541,2.051c-0.278,0.162-0.555,0.325-0.829,0.492
				C276.486,189.289,276.218,189.359,275.953,189.359z M318.926,185.018c-0.169,0-0.341-0.028-0.509-0.089
				c-0.301-0.108-0.603-0.213-0.907-0.314c-0.786-0.263-1.21-1.113-0.947-1.898s1.108-1.209,1.898-0.947
				c0.326,0.109,0.651,0.222,0.974,0.338c0.779,0.281,1.184,1.141,0.902,1.92C320.116,184.638,319.54,185.018,318.926,185.018z
				 M285.821,184.757c-0.624,0-1.207-0.393-1.42-1.017c-0.267-0.784,0.152-1.636,0.937-1.903c0.323-0.11,0.648-0.217,0.974-0.32
				c0.793-0.248,1.633,0.188,1.883,0.979c0.249,0.79-0.189,1.633-0.979,1.883c-0.306,0.096-0.609,0.196-0.911,0.299
				C286.145,184.731,285.981,184.757,285.821,184.757z M308.331,182.489c-0.063,0-0.125-0.004-0.188-0.012
				c-0.318-0.04-0.638-0.077-0.958-0.111c-0.824-0.088-1.42-0.827-1.332-1.65c0.088-0.824,0.838-1.423,1.65-1.332
				c0.338,0.036,0.675,0.075,1.013,0.117c0.821,0.103,1.404,0.853,1.302,1.675C309.723,181.935,309.076,182.489,308.331,182.489z
				 M296.451,182.396c-0.755,0-1.404-0.568-1.489-1.336c-0.091-0.823,0.504-1.564,1.327-1.655c0.339-0.037,0.678-0.071,1.019-0.102
				c0.816-0.069,1.554,0.535,1.627,1.361c0.073,0.825-0.536,1.554-1.361,1.627c-0.319,0.028-0.639,0.061-0.956,0.096
				C296.562,182.394,296.506,182.396,296.451,182.396z"/>
		</g>
		<g>
			<path fill="#E5F0D8" d="M302,345.906c-0.43,0-0.858-0.003-1.287-0.008l0.574-48.996l0.713,0.004V345.906z M309.679,345.651
				l-3.154-48.898l0.635-0.046l3.879,48.846C310.586,345.589,310.133,345.622,309.679,345.651z M288.089,345.067
				c-0.429-0.053-0.857-0.106-1.284-0.163l6.467-48.572l0.7,0.089L288.089,345.067z M323.585,343.871l-9.168-48.135l0.678-0.134
				l9.775,48.016C324.443,343.705,324.015,343.789,323.585,343.871z M274.331,342.536c-0.419-0.104-0.838-0.21-1.256-0.319
				l12.357-47.416l0.682,0.173L274.331,342.536z M337.16,340.403l-15.021-46.641l0.691-0.227l15.539,46.471
				C337.968,340.141,337.565,340.272,337.16,340.403z M260.944,338.326c-0.392-0.15-0.781-0.302-1.17-0.456l18.051-45.555
				l0.699,0.272L260.944,338.326z M350.203,335.302l-20.635-44.443l0.696-0.327l21.045,44.25
				C350.941,334.957,350.572,335.131,350.203,335.302z M248.257,332.55c-0.39-0.206-0.777-0.415-1.164-0.627l23.504-42.994
				l0.6,0.322L248.257,332.55z M362.473,328.681l-25.841-41.633l0.593-0.373l26.344,41.316
				C363.205,328.223,362.84,328.452,362.473,328.681z M236.298,325.232c-0.344-0.241-0.687-0.483-1.028-0.728l28.521-39.844
				l0.606,0.429L236.298,325.232z M373.875,320.604l-30.715-38.178l0.583-0.474l31.1,37.865
				C374.522,320.081,374.199,320.343,373.875,320.604z M225.366,316.565c-0.312-0.28-0.621-0.561-0.931-0.844l33.111-36.121
				l0.552,0.5L225.366,316.565z M384.194,311.236l-35.076-34.215l0.519-0.536l35.428,33.85
				C384.775,310.638,384.486,310.938,384.194,311.236z M215.601,306.692c-0.287-0.326-0.571-0.654-0.854-0.984l37.203-31.889
				l0.455,0.525L215.601,306.692z M393.317,300.688l-38.939-29.744l0.456-0.603l39.234,29.354
				C393.819,300.028,393.569,300.359,393.317,300.688z M207.044,295.654c-0.244-0.357-0.485-0.715-0.726-1.076l40.793-27.146
				l0.39,0.578L207.044,295.654z M401.101,289.121l-42.23-24.85l0.355-0.612l42.525,24.342
				C401.537,288.376,401.319,288.75,401.101,289.121z M199.874,283.644c-0.191-0.371-0.382-0.744-0.57-1.117l43.77-22.029
				l0.336,0.658L199.874,283.644z M407.443,276.661l-44.941-19.527l0.284-0.662l45.162,19.008
				C407.782,275.875,407.613,276.27,407.443,276.661z M194.234,270.89c-0.15-0.405-0.298-0.811-0.443-1.217l46.129-16.525
				l0.242,0.662L194.234,270.89z M412.235,263.463L365.22,249.66l0.209-0.724l47.152,13.328
				C412.468,262.665,412.353,263.064,412.235,263.463z M190.181,257.503c-0.105-0.443-0.207-0.888-0.307-1.332l47.834-10.629
				l0.143,0.617L190.181,257.503z M415.354,249.877l-48.334-8.055l0.11-0.686l48.43,7.451
				C415.494,249.019,415.426,249.449,415.354,249.877z M187.788,243.66c-0.044-0.404-0.087-0.809-0.127-1.215l48.756-4.875
				l0.082,0.773L187.788,243.66z M416.802,235.927l-48.959-2.016l0.029-0.778l48.975,1.574
				C416.834,235.115,416.818,235.521,416.802,235.927z M236.097,230.312l-48.996-0.572c0.005-0.406,0.011-0.812,0.019-1.217
				l48.99,1.006L236.097,230.312z M367.71,225.869l-0.065-0.782l48.811-4.307c0.035,0.403,0.069,0.807,0.101,1.21L367.71,225.869z
				 M236.665,222.288l-48.574-6.447c0.055-0.408,0.111-0.815,0.169-1.222l48.51,6.91L236.665,222.288z M366.605,217.92l-0.155-0.744
				l47.923-10.217c0.087,0.403,0.171,0.808,0.254,1.213L366.605,217.92z M238.198,214.439l-47.426-12.322
				c0.104-0.402,0.212-0.804,0.319-1.203l47.301,12.795L238.198,214.439z M364.538,210.176l-0.219-0.646l46.28-16.098
				c0.144,0.415,0.285,0.83,0.425,1.248L364.538,210.176z M240.684,206.827l-45.574-18c0.157-0.398,0.317-0.796,0.479-1.19
				l45.365,18.52L240.684,206.827z M361.528,202.73l-0.28-0.579l43.971-21.625c0.198,0.403,0.394,0.809,0.587,1.216L361.528,202.73z
				 M244.059,199.62l-42.994-23.504c0.195-0.358,0.393-0.715,0.592-1.072l42.779,23.895L244.059,199.62z M357.669,195.766
				l-0.379-0.588l41.035-26.781c0.235,0.362,0.469,0.725,0.701,1.09L357.669,195.766z M248.322,192.813l-39.844-28.521l0.703-0.974
				l39.609,28.846L248.322,192.813z M352.939,189.242l-0.444-0.535l37.537-31.496c0.278,0.332,0.556,0.666,0.831,1.002
				L352.939,189.242z M253.416,186.527l-36.191-33.033c0.305-0.334,0.612-0.665,0.922-0.995l35.707,33.557L253.416,186.527z
				 M347.506,183.382l-0.542-0.511l33.48-35.779c0.305,0.286,0.608,0.573,0.911,0.862L347.506,183.382z M259.161,180.967
				l-31.889-37.203c0.318-0.272,0.638-0.544,0.958-0.813l31.496,37.537L259.161,180.967z M341.377,178.191l-0.609-0.45
				l28.939-39.541c0.335,0.245,0.669,0.492,1,0.739L341.377,178.191z M265.581,176.102l-27.213-40.748
				c0.358-0.24,0.72-0.478,1.082-0.713l26.715,41.077L265.581,176.102z M334.654,173.771l-0.616-0.35l23.894-42.779
				c0.377,0.21,0.753,0.424,1.127,0.638L334.654,173.771z M272.482,172.084l-22.029-43.77c0.364-0.183,0.729-0.364,1.095-0.543
				l21.625,43.97L272.482,172.084z M327.5,170.226l-0.719-0.298l18.592-45.336c0.379,0.156,0.757,0.312,1.135,0.471L327.5,170.226z
				 M279.827,168.929L263.302,122.8c0.392-0.141,0.785-0.279,1.18-0.416l16.053,46.295L279.827,168.929z M319.877,167.555
				l-0.594-0.164l12.76-47.31c0.445,0.12,0.891,0.244,1.334,0.371L319.877,167.555z M287.5,166.698l-10.766-47.803
				c0.421-0.095,0.843-0.187,1.266-0.277l10.188,47.929L287.5,166.698z M312.153,165.873l-0.768-0.115l7.029-48.493
				c0.404,0.059,0.809,0.119,1.211,0.181L312.153,165.873z M295.411,165.42l-4.891-48.756c0.429-0.042,0.857-0.083,1.287-0.121
				l4.307,48.811L295.411,165.42z M304.158,165.128l-0.747-0.02l1.074-48.988c0.418,0.009,0.836,0.021,1.253,0.034L304.158,165.128z
				"/>
		</g>
	</g>
	<g clip-path="url(#SVGID_2_)">
		<g opacity="0.14">
			<g>
				<path fill="#F3FAEB" d="M164,132.927c44.153,0,80.074,35.92,80.074,80.073S208.153,293.072,164,293.072
					c-44.153,0-80.074-35.92-80.074-80.072S119.847,132.927,164,132.927 M164,89.927C96.028,89.927,40.926,145.029,40.926,213
					S96.028,336.072,164,336.072S287.074,280.971,287.074,213S231.972,89.927,164,89.927L164,89.927z"/>
			</g>
		</g>
		<g>
			<path fill="#D8F0B9" d="M164.314,347.572l-1.327-0.004c-0.829-0.008-1.494-0.685-1.487-1.513s0.646-1.497,1.513-1.487
				l1.302,0.004c0.828,0,1.5,0.672,1.5,1.5S165.143,347.572,164.314,347.572z M174.299,347.177c-0.776,0-1.434-0.599-1.494-1.386
				c-0.063-0.826,0.556-1.547,1.382-1.61l0.983-0.078c0.828-0.08,1.552,0.541,1.622,1.366c0.071,0.826-0.541,1.552-1.366,1.622
				l-1.011,0.082C174.376,347.176,174.338,347.177,174.299,347.177z M153.019,347.123c-0.041,0-0.083-0.002-0.125-0.005
				l-1.009-0.087c-0.825-0.075-1.433-0.806-1.357-1.631c0.075-0.825,0.805-1.426,1.63-1.357l0.983,0.085
				c0.826,0.068,1.44,0.792,1.372,1.618C154.448,346.529,153.792,347.123,153.019,347.123z M185.215,345.882
				c-0.724,0-1.361-0.525-1.479-1.263c-0.131-0.818,0.426-1.587,1.244-1.719l0.973-0.159c0.82-0.141,1.591,0.412,1.729,1.228
				c0.139,0.816-0.411,1.591-1.228,1.729l-1,0.165C185.374,345.876,185.294,345.882,185.215,345.882z M142.111,345.772
				c-0.082,0-0.165-0.007-0.248-0.021l-0.999-0.17c-0.816-0.144-1.361-0.921-1.218-1.737c0.144-0.815,0.924-1.363,1.737-1.218
				l0.973,0.166c0.817,0.136,1.37,0.908,1.233,1.726C143.467,345.252,142.832,345.772,142.111,345.772z M195.986,343.687
				c-0.674,0-1.286-0.457-1.455-1.141c-0.199-0.804,0.292-1.617,1.097-1.815l0.955-0.24c0.798-0.212,1.62,0.276,1.826,1.078
				c0.207,0.802-0.275,1.62-1.078,1.826c-0.327,0.085-0.655,0.167-0.984,0.248C196.227,343.673,196.105,343.687,195.986,343.687z
				 M131.351,343.521c-0.122,0-0.246-0.015-0.37-0.046l-0.978-0.252c-0.801-0.209-1.282-1.027-1.073-1.829
				c0.209-0.801,1.026-1.283,1.83-1.073l0.959,0.246c0.803,0.204,1.289,1.021,1.085,1.823
				C132.631,343.068,132.021,343.521,131.351,343.521z M206.538,340.602c-0.627,0-1.211-0.396-1.422-1.021
				c-0.264-0.785,0.158-1.636,0.943-1.9c0.312-0.104,0.622-0.211,0.932-0.319c0.784-0.274,1.638,0.142,1.91,0.924
				c0.271,0.783-0.142,1.638-0.924,1.91c-0.319,0.11-0.64,0.221-0.961,0.329C206.857,340.576,206.696,340.602,206.538,340.602z
				 M120.815,340.381c-0.163,0-0.328-0.026-0.49-0.082l-0.953-0.332c-0.782-0.273-1.194-1.13-0.921-1.911
				c0.273-0.783,1.131-1.195,1.911-0.921l0.943,0.328c0.783,0.271,1.198,1.125,0.927,1.908
				C122.018,339.991,121.437,340.381,120.815,340.381z M216.788,336.652c-0.58,0-1.133-0.338-1.378-0.904
				c-0.329-0.761,0.021-1.644,0.781-1.973l0.899-0.394c0.758-0.336,1.645,0.006,1.979,0.763c0.336,0.757-0.006,1.644-0.763,1.979
				l-0.925,0.405C217.188,336.613,216.986,336.652,216.788,336.652z M110.563,336.37c-0.202,0-0.407-0.041-0.604-0.127l-0.926-0.412
				c-0.756-0.339-1.093-1.227-0.754-1.982c0.339-0.756,1.226-1.096,1.983-0.754l0.907,0.402c0.758,0.334,1.102,1.219,0.769,1.978
				C111.69,336.036,111.14,336.37,110.563,336.37z M226.673,331.869c-0.534,0-1.052-0.286-1.322-0.791
				c-0.393-0.729-0.118-1.639,0.612-2.03l0.868-0.471c0.726-0.394,1.639-0.129,2.035,0.6c0.396,0.728,0.128,1.639-0.6,2.035
				l-0.886,0.479C227.155,331.812,226.912,331.869,226.673,331.869z M100.685,331.522c-0.241,0-0.486-0.059-0.714-0.182
				l-0.891-0.488c-0.724-0.402-0.985-1.315-0.583-2.04c0.402-0.723,1.315-0.984,2.04-0.583l0.866,0.475
				c0.728,0.395,0.998,1.306,0.603,2.033C101.733,331.238,101.217,331.522,100.685,331.522z M236.133,326.283
				c-0.491,0-0.973-0.241-1.26-0.685c-0.45-0.695-0.252-1.624,0.443-2.074l0.826-0.54c0.692-0.453,1.623-0.265,2.078,0.428
				s0.264,1.622-0.428,2.078l-0.846,0.552C236.695,326.205,236.413,326.283,236.133,326.283z M91.243,325.877
				c-0.281,0-0.566-0.079-0.819-0.244l-0.848-0.561c-0.689-0.46-0.875-1.392-0.415-2.08c0.459-0.688,1.391-0.875,2.081-0.414
				l0.823,0.543c0.693,0.454,0.888,1.384,0.435,2.077C92.212,325.638,91.732,325.877,91.243,325.877z M245.104,319.937
				c-0.449,0-0.894-0.201-1.189-0.585c-0.505-0.656-0.383-1.598,0.273-2.104l0.778-0.604c0.652-0.511,1.595-0.396,2.105,0.256
				c0.511,0.651,0.396,1.595-0.256,2.105l-0.798,0.62C245.746,319.835,245.424,319.937,245.104,319.937z M82.3,319.475
				c-0.322,0-0.647-0.104-0.921-0.316l-0.796-0.626c-0.649-0.515-0.758-1.458-0.244-2.107c0.515-0.649,1.458-0.757,2.107-0.244
				l0.777,0.61c0.654,0.51,0.771,1.452,0.261,2.105C83.189,319.276,82.747,319.475,82.3,319.475z M253.525,312.874
				c-0.408,0-0.816-0.166-1.112-0.493c-0.556-0.614-0.509-1.563,0.105-2.119c0.243-0.22,0.483-0.44,0.723-0.663
				c0.607-0.563,1.556-0.529,2.12,0.079c0.563,0.607,0.528,1.557-0.079,2.12c-0.249,0.23-0.499,0.461-0.75,0.688
				C254.245,312.746,253.885,312.874,253.525,312.874z M73.915,312.361c-0.363,0-0.727-0.131-1.015-0.396l-0.744-0.69
				c-0.604-0.566-0.634-1.516-0.068-2.12c0.567-0.604,1.517-0.634,2.12-0.067l0.723,0.671c0.61,0.561,0.649,1.51,0.088,2.119
				C74.723,312.198,74.319,312.361,73.915,312.361z M261.343,305.145c-0.365,0-0.731-0.133-1.021-0.4
				c-0.607-0.563-0.643-1.513-0.079-2.12l0.675-0.729c0.563-0.609,1.511-0.649,2.119-0.088c0.609,0.561,0.649,1.51,0.088,2.119
				l-0.683,0.739C262.146,304.983,261.745,305.145,261.343,305.145z M66.141,304.587c-0.405,0-0.809-0.163-1.104-0.484l-0.68-0.743
				c-0.558-0.612-0.514-1.561,0.099-2.119c0.612-0.558,1.561-0.513,2.119,0.1l0.669,0.731c0.561,0.609,0.522,1.559-0.088,2.119
				C66.868,304.456,66.504,304.587,66.141,304.587z M268.502,296.8c-0.325,0-0.652-0.104-0.927-0.321
				c-0.651-0.513-0.764-1.456-0.251-2.106l0.612-0.781c0.507-0.654,1.451-0.772,2.104-0.263c0.654,0.508,0.771,1.45,0.263,2.104
				l-0.622,0.795C269.386,296.604,268.946,296.8,268.502,296.8z M59.031,296.205c-0.447,0-0.889-0.198-1.185-0.578l-0.616-0.797
				c-0.505-0.656-0.383-1.598,0.273-2.104c0.656-0.505,1.597-0.384,2.104,0.273l0.606,0.783c0.509,0.653,0.392,1.597-0.262,2.105
				C59.678,296.102,59.353,296.205,59.031,296.205z M274.956,287.894c-0.285,0-0.573-0.081-0.828-0.25
				c-0.69-0.458-0.879-1.389-0.421-2.079l0.545-0.828c0.454-0.693,1.383-0.887,2.077-0.435c0.693,0.454,0.888,1.384,0.435,2.077
				l-0.557,0.844C275.918,287.658,275.441,287.894,274.956,287.894z M52.633,287.27c-0.489,0-0.969-0.238-1.257-0.679l-0.502-0.771
				c-0.451-0.694-0.276-1.658,0.419-2.109c0.697-0.45,1.602-0.287,2.053,0.407l0.541,0.831c0.454,0.693,0.259,1.623-0.434,2.076
				C53.199,287.19,52.915,287.27,52.633,287.27z M280.655,278.485c-0.245,0-0.492-0.06-0.722-0.186
				c-0.727-0.399-0.991-1.312-0.592-2.037l0.476-0.871c0.395-0.73,1.306-1.001,2.033-0.605c0.729,0.395,1,1.305,0.605,2.033
				l-0.485,0.889C281.697,278.205,281.185,278.485,280.655,278.485z M46.992,277.842c-0.532,0-1.047-0.283-1.319-0.784l-0.479-0.888
				c-0.39-0.731-0.113-1.64,0.618-2.029c0.734-0.392,1.64-0.113,2.03,0.617l0.467,0.868c0.396,0.728,0.126,1.638-0.602,2.034
				C47.479,277.783,47.234,277.842,46.992,277.842z M285.56,268.636c-0.205,0-0.414-0.042-0.613-0.132
				c-0.756-0.339-1.094-1.227-0.754-1.982c0.134-0.3,0.268-0.601,0.399-0.902c0.331-0.76,1.215-1.105,1.975-0.775
				c0.76,0.331,1.106,1.216,0.775,1.975c-0.136,0.312-0.273,0.622-0.413,0.932C286.68,268.307,286.133,268.636,285.56,268.636z
				 M42.151,267.983c-0.577,0-1.126-0.334-1.374-0.896l-0.403-0.924c-0.328-0.761,0.023-1.644,0.784-1.972
				c0.759-0.327,1.643,0.023,1.971,0.784l0.393,0.902c0.334,0.758-0.01,1.644-0.768,1.978
				C42.558,267.942,42.353,267.983,42.151,267.983z M289.631,258.409c-0.164,0-0.331-0.026-0.495-0.084
				c-0.782-0.273-1.194-1.129-0.921-1.911l0.325-0.939c0.268-0.783,1.119-1.204,1.905-0.933c0.783,0.269,1.201,1.121,0.933,1.905
				l-0.331,0.957C290.83,258.022,290.251,258.409,289.631,258.409z M38.144,257.762c-0.623,0-1.205-0.391-1.418-1.013l-0.325-0.954
				c-0.265-0.785,0.157-1.636,0.942-1.9c0.785-0.264,1.636,0.157,1.901,0.941l0.319,0.938c0.27,0.783-0.147,1.637-0.931,1.906
				C38.47,257.735,38.305,257.762,38.144,257.762z M292.834,247.89c-0.125,0-0.252-0.016-0.379-0.049
				c-0.802-0.209-1.282-1.027-1.073-1.829l0.243-0.956c0.201-0.803,1.015-1.289,1.82-1.09c0.803,0.201,1.291,1.017,1.09,1.82
				l-0.251,0.981C294.108,247.442,293.5,247.89,292.834,247.89z M34.997,247.229c-0.67,0-1.281-0.452-1.453-1.131l-0.245-0.98
				c-0.198-0.804,0.293-1.617,1.098-1.814c0.802-0.202,1.617,0.293,1.815,1.098l0.24,0.959c0.204,0.803-0.282,1.619-1.085,1.823
				C35.243,247.214,35.119,247.229,34.997,247.229z M295.148,237.144c-0.085,0-0.171-0.007-0.257-0.021
				c-0.816-0.142-1.364-0.917-1.224-1.733l0.164-0.973c0.134-0.817,0.909-1.376,1.722-1.239c0.818,0.134,1.373,0.904,1.239,1.722
				l-0.168,1C296.499,236.629,295.864,237.144,295.148,237.144z M32.737,236.471c-0.72,0-1.355-0.52-1.478-1.253l-0.163-1
				c-0.129-0.818,0.429-1.586,1.247-1.716c0.811-0.133,1.586,0.428,1.716,1.247l0.159,0.975c0.136,0.817-0.416,1.591-1.233,1.727
				C32.902,236.464,32.819,236.471,32.737,236.471z M296.563,226.242c-0.044,0-0.089-0.002-0.134-0.006
				c-0.825-0.073-1.436-0.801-1.362-1.626l0.083-0.983c0.065-0.826,0.779-1.441,1.614-1.376c0.825,0.065,1.441,0.788,1.376,1.614
				l-0.085,1.009C297.986,225.654,297.331,226.242,296.563,226.242z M31.38,225.563c-0.773,0-1.429-0.593-1.494-1.377l-0.079-1.008
				c-0.062-0.826,0.558-1.546,1.384-1.608c0.82-0.067,1.546,0.558,1.607,1.384l0.078,0.986c0.068,0.825-0.546,1.55-1.372,1.618
				C31.462,225.562,31.421,225.563,31.38,225.563z M297.072,215c-0.002,0-0.004,0-0.006,0c-0.828,0-1.497-0.546-1.494-1.374
				l0.002-0.929c0-0.828,0.672-1.467,1.5-1.467s1.5,0.688,1.5,1.517l-0.002,0.883C298.569,214.456,297.898,215,297.072,215z
				 M30.926,214.539c-0.829,0-1.5-0.632-1.5-1.46l0.003-0.8c0.005-0.824,0.676-1.279,1.5-1.279c0.003,0,0.006,0,0.01,0
				c0.828,0,1.496,0.471,1.49,1.299l-0.003,0.807C32.426,213.934,31.754,214.539,30.926,214.539z M296.684,204.276
				c-0.776,0-1.434-0.599-1.494-1.386l-0.078-0.983c-0.071-0.826,0.541-1.552,1.366-1.622c0.831-0.082,1.552,0.541,1.622,1.366
				l0.082,1.011c0.063,0.826-0.556,1.547-1.382,1.61C296.761,204.275,296.723,204.276,296.684,204.276z M31.37,203.597
				c-0.041,0-0.081-0.002-0.123-0.005c-0.826-0.066-1.441-0.79-1.374-1.616l0.086-1.009c0.075-0.824,0.8-1.431,1.628-1.36
				c0.825,0.074,1.434,0.803,1.36,1.628l-0.084,0.983C32.8,203.002,32.144,203.597,31.37,203.597z M295.395,193.36
				c-0.724,0-1.361-0.525-1.479-1.263l-0.159-0.973c-0.139-0.816,0.411-1.591,1.228-1.729c0.823-0.14,1.592,0.412,1.729,1.228
				l0.165,1c0.131,0.818-0.426,1.587-1.244,1.719C295.554,193.354,295.474,193.36,295.395,193.36z M32.715,192.687
				c-0.082,0-0.165-0.007-0.248-0.021c-0.817-0.136-1.37-0.908-1.233-1.726l0.168-0.994c0.141-0.817,0.916-1.363,1.733-1.224
				c0.816,0.142,1.364,0.917,1.223,1.733l-0.166,0.977C34.071,192.166,33.435,192.687,32.715,192.687z M293.206,182.588
				c-0.674,0-1.286-0.456-1.455-1.14l-0.241-0.961c-0.203-0.803,0.282-1.619,1.085-1.823c0.804-0.203,1.619,0.282,1.823,1.085
				l0.245,0.979c0.199,0.804-0.291,1.617-1.096,1.816C293.446,182.574,293.325,182.588,293.206,182.588z M34.959,181.926
				c-0.121,0-0.245-0.015-0.368-0.046c-0.803-0.202-1.291-1.018-1.088-1.821l0.251-0.979c0.209-0.802,1.026-1.282,1.83-1.073
				c0.801,0.209,1.282,1.027,1.073,1.829l-0.246,0.958C36.241,181.473,35.63,181.926,34.959,181.926z M290.128,172.036
				c-0.627,0-1.211-0.396-1.422-1.021c-0.104-0.312-0.21-0.622-0.318-0.932c-0.271-0.783,0.142-1.638,0.924-1.91
				c0.783-0.272,1.638,0.143,1.91,0.924c0.11,0.319,0.22,0.64,0.328,0.961c0.264,0.785-0.158,1.636-0.943,1.9
				C290.447,172.011,290.286,172.036,290.128,172.036z M38.092,171.39c-0.162,0-0.327-0.026-0.488-0.082
				c-0.783-0.27-1.2-1.123-0.93-1.906l0.333-0.957c0.275-0.781,1.131-1.192,1.912-0.918c0.782,0.274,1.193,1.131,0.918,1.912
				l-0.326,0.939C39.296,170.999,38.714,171.39,38.092,171.39z M286.188,161.785c-0.579,0-1.13-0.336-1.376-0.9l-0.397-0.907
				c-0.334-0.758,0.01-1.644,0.769-1.978c0.758-0.331,1.643,0.011,1.978,0.769l0.401,0.917c0.331,0.76-0.017,1.644-0.775,1.975
				C286.591,161.745,286.388,161.785,286.188,161.785z M42.096,161.137c-0.202,0-0.407-0.041-0.604-0.128
				c-0.758-0.334-1.102-1.219-0.768-1.978l0.409-0.922c0.337-0.757,1.223-1.098,1.981-0.76c0.756,0.337,1.097,1.224,0.759,1.98
				l-0.404,0.912C43.222,160.803,42.672,161.137,42.096,161.137z M281.408,151.896c-0.536,0-1.055-0.288-1.324-0.794l-0.468-0.865
				c-0.396-0.728-0.128-1.639,0.6-2.035c0.726-0.395,1.639-0.129,2.035,0.6l0.479,0.889c0.391,0.731,0.113,1.64-0.617,2.029
				C281.889,151.84,281.646,151.896,281.408,151.896z M46.937,151.255c-0.241,0-0.486-0.058-0.713-0.181
				c-0.729-0.395-0.999-1.305-0.604-2.033l0.487-0.892c0.401-0.725,1.313-0.985,2.039-0.586c0.725,0.401,0.987,1.314,0.586,2.039
				l-0.475,0.866C47.985,150.971,47.469,151.255,46.937,151.255z M275.828,142.435c-0.491,0-0.974-0.242-1.261-0.686l-0.539-0.827
				c-0.455-0.692-0.263-1.622,0.43-2.077c0.692-0.453,1.623-0.264,2.078,0.43l0.551,0.845c0.449,0.695,0.251,1.624-0.445,2.074
				C276.39,142.356,276.107,142.435,275.828,142.435z M52.577,141.811c-0.281,0-0.566-0.079-0.819-0.244
				c-0.693-0.454-0.888-1.383-0.435-2.077l0.558-0.846c0.459-0.69,1.389-0.878,2.08-0.417c0.689,0.459,0.876,1.391,0.417,2.08
				l-0.544,0.825C53.546,141.571,53.066,141.811,52.577,141.811z M269.486,133.46c-0.449,0-0.894-0.201-1.189-0.584l-0.605-0.78
				c-0.511-0.653-0.395-1.596,0.258-2.106c0.652-0.509,1.595-0.396,2.105,0.257l0.619,0.798c0.506,0.656,0.383,1.598-0.273,2.104
				C270.128,133.358,269.806,133.46,269.486,133.46z M58.975,132.864c-0.322,0-0.647-0.104-0.921-0.317
				c-0.653-0.509-0.771-1.452-0.261-2.105l0.623-0.794c0.514-0.65,1.456-0.762,2.107-0.248c0.65,0.513,0.762,1.456,0.249,2.106
				l-0.612,0.78C59.864,132.666,59.421,132.864,58.975,132.864z M262.428,125.033c-0.407,0-0.813-0.165-1.109-0.49l-0.668-0.73
				c-0.562-0.609-0.523-1.558,0.086-2.12c0.606-0.563,1.556-0.524,2.119,0.085l0.682,0.744c0.558,0.613,0.513,1.562-0.1,2.119
				C263.15,124.904,262.789,125.033,262.428,125.033z M66.084,124.473c-0.363,0-0.727-0.131-1.015-0.396
				c-0.61-0.561-0.649-1.51-0.088-2.119l0.687-0.742c0.565-0.604,1.515-0.638,2.12-0.072s0.638,1.515,0.072,2.12l-0.672,0.725
				C66.893,124.31,66.489,124.473,66.084,124.473z M254.702,117.211c-0.366,0-0.732-0.133-1.021-0.401l-0.728-0.674
				c-0.609-0.561-0.649-1.51-0.088-2.119c0.562-0.61,1.51-0.649,2.119-0.088l0.739,0.684c0.606,0.564,0.641,1.514,0.077,2.12
				C255.505,117.05,255.104,117.211,254.702,117.211z M73.854,116.694c-0.404,0-0.808-0.163-1.103-0.483
				c-0.562-0.609-0.523-1.558,0.085-2.12l0.745-0.682c0.613-0.557,1.562-0.511,2.119,0.101c0.557,0.613,0.512,1.562-0.101,2.119
				l-0.729,0.667C74.583,116.563,74.218,116.694,73.854,116.694z M246.36,110.045c-0.327,0-0.656-0.106-0.932-0.325
				c-0.257-0.204-0.515-0.406-0.774-0.607c-0.654-0.508-0.773-1.45-0.266-2.104c0.509-0.655,1.451-0.773,2.105-0.266
				c0.268,0.208,0.535,0.417,0.8,0.627c0.648,0.515,0.757,1.459,0.242,2.107C247.24,109.851,246.802,110.045,246.36,110.045z
				 M82.233,109.579c-0.446,0-0.887-0.198-1.183-0.576c-0.51-0.653-0.395-1.596,0.257-2.106l0.799-0.62
				c0.656-0.505,1.598-0.382,2.104,0.275c0.505,0.657,0.381,1.599-0.275,2.104l-0.779,0.604
				C82.882,109.475,82.557,109.579,82.233,109.579z M237.459,103.587c-0.285,0-0.573-0.081-0.828-0.25l-0.828-0.545
				c-0.693-0.453-0.888-1.383-0.435-2.076c0.454-0.695,1.383-0.887,2.077-0.435l0.844,0.556c0.69,0.458,0.879,1.389,0.421,2.079
				C238.421,103.351,237.944,103.587,237.459,103.587z M91.166,103.175c-0.488,0-0.967-0.238-1.255-0.676
				c-0.455-0.692-0.263-1.622,0.43-2.077l0.847-0.551c0.697-0.45,1.625-0.249,2.073,0.447c0.449,0.696,0.249,1.625-0.447,2.073
				l-0.825,0.538C91.734,103.096,91.448,103.175,91.166,103.175z M228.053,97.883c-0.245,0-0.494-0.061-0.724-0.187l-0.868-0.475
				c-0.729-0.395-1-1.305-0.605-2.033s1.306-1,2.033-0.604l0.89,0.486c0.726,0.4,0.989,1.313,0.589,2.038
				C229.094,97.603,228.581,97.883,228.053,97.883z M100.59,97.53c-0.532,0-1.047-0.284-1.319-0.784
				c-0.396-0.728-0.126-1.639,0.602-2.034l0.886-0.478c0.731-0.388,1.639-0.115,2.03,0.615c0.391,0.73,0.115,1.639-0.615,2.03
				l-0.869,0.468C101.078,97.471,100.832,97.53,100.59,97.53z M218.207,92.973c-0.205,0-0.414-0.042-0.613-0.132l-0.904-0.401
				c-0.759-0.333-1.104-1.217-0.772-1.976c0.332-0.758,1.22-1.104,1.976-0.772l0.93,0.412c0.756,0.339,1.094,1.227,0.754,1.983
				C219.327,92.643,218.78,92.973,218.207,92.973z M110.445,92.683c-0.577,0-1.126-0.334-1.374-0.896
				c-0.334-0.758,0.01-1.643,0.768-1.977l0.921-0.402c0.761-0.329,1.644,0.021,1.972,0.781c0.329,0.76-0.021,1.644-0.781,1.972
				l-0.904,0.395C110.853,92.642,110.647,92.683,110.445,92.683z M207.984,88.897c-0.165,0-0.333-0.027-0.497-0.085l-0.938-0.325
				c-0.783-0.269-1.201-1.122-0.933-1.905c0.268-0.784,1.121-1.201,1.905-0.933l0.959,0.333c0.782,0.274,1.192,1.131,0.918,1.912
				C209.183,88.511,208.604,88.897,207.984,88.897z M120.664,88.671c-0.622,0-1.203-0.39-1.417-1.01
				c-0.271-0.783,0.145-1.637,0.927-1.908l0.958-0.327c0.784-0.268,1.636,0.158,1.9,0.942c0.265,0.785-0.157,1.636-0.942,1.9
				l-0.935,0.319C120.992,88.644,120.826,88.671,120.664,88.671z M197.467,85.689c-0.125,0-0.252-0.016-0.379-0.049l-0.958-0.245
				c-0.803-0.203-1.29-1.018-1.087-1.821c0.202-0.803,1.016-1.29,1.821-1.088l0.979,0.251c0.802,0.209,1.282,1.028,1.073,1.83
				C198.741,85.242,198.133,85.689,197.467,85.689z M131.194,85.519c-0.67,0-1.28-0.452-1.453-1.131
				c-0.204-0.803,0.281-1.619,1.084-1.823l0.981-0.246c0.807-0.198,1.617,0.294,1.814,1.099c0.198,0.804-0.294,1.617-1.099,1.814
				l-0.958,0.24C131.44,85.503,131.316,85.519,131.194,85.519z M186.724,83.368c-0.085,0-0.171-0.007-0.257-0.022l-0.976-0.165
				c-0.817-0.135-1.37-0.906-1.236-1.724c0.135-0.817,0.903-1.374,1.725-1.236l0.997,0.168c0.816,0.141,1.364,0.917,1.224,1.733
				C188.074,82.854,187.439,83.368,186.724,83.368z M141.949,83.253c-0.719,0-1.354-0.519-1.478-1.251
				c-0.137-0.817,0.414-1.591,1.231-1.728l0.998-0.163c0.811-0.135,1.587,0.425,1.718,1.244c0.131,0.818-0.426,1.587-1.244,1.718
				l-0.976,0.16C142.116,83.247,142.032,83.253,141.949,83.253z M175.823,81.948c-0.044,0-0.089-0.002-0.134-0.006l-0.985-0.083
				c-0.825-0.067-1.44-0.791-1.374-1.616c0.067-0.825,0.801-1.439,1.616-1.374l1.007,0.085c0.825,0.073,1.436,0.801,1.362,1.626
				C177.247,81.36,176.592,81.948,175.823,81.948z M152.856,81.889c-0.772,0-1.428-0.592-1.493-1.375
				c-0.069-0.826,0.544-1.551,1.369-1.62l1.01-0.08c0.827-0.065,1.546,0.558,1.607,1.384c0.062,0.826-0.558,1.546-1.384,1.607
				l-0.983,0.078C152.94,81.888,152.898,81.889,152.856,81.889z M164.842,81c-0.003,0-0.005,0-0.008,0l-0.992,0.212
				c-0.828,0-1.5-0.564-1.5-1.393s0.672-1.446,1.5-1.446l1.008,0.029c0.828,0.004,1.496,0.478,1.492,1.306
				C166.338,80.535,165.667,81,164.842,81z"/>
		</g>
		<g>
			<path fill="#E5F0D8" d="M164,410.572l-1.144-0.003l0.287-49l0.856,0.003V410.572z M173.757,410.333l-2.297-48.945l0.784-0.041
				l2.727,48.924C174.565,410.293,174.161,410.314,173.757,410.333z M151.506,410.182c-0.406-0.025-0.812-0.052-1.217-0.08
				l3.45-48.879l0.778,0.051L151.506,410.182z M186.366,409.313l-5.6-48.68l0.922-0.106l5.742,48.662L186.366,409.313z
				 M138.979,408.994l-1.133-0.147l6.457-48.572l0.851,0.11L138.979,408.994z M198.766,407.508l-8.639-48.232l0.857-0.156
				l8.891,48.188L198.766,407.508z M126.55,407.01l-1.064-0.208l9.485-48.073l0.899,0.176L126.55,407.01z M211.077,404.902
				l-11.75-47.57l0.887-0.221l11.918,47.529L211.077,404.902z M114.316,404.243l-1.043-0.273l12.491-47.381l0.892,0.233
				L114.316,404.243z M223.173,401.521l-14.762-46.723l0.867-0.275l14.934,46.668L223.173,401.521z M102.288,400.702
				c-0.386-0.127-0.771-0.255-1.156-0.385l15.709-46.414l0.749,0.25L102.288,400.702z M235.009,397.379l-17.676-45.701l0.807-0.314
				l17.926,45.604L235.009,397.379z M90.442,396.373l-1.028-0.417l18.494-45.375l0.831,0.337L90.442,396.373z M246.57,392.482
				l-20.58-44.469l0.817-0.38l20.752,44.389L246.57,392.482z M78.913,391.3l-0.975-0.471l21.339-44.109l0.831,0.4L78.913,391.3z
				 M257.712,386.904l-23.23-43.143l0.678-0.369l23.625,42.928C258.428,386.517,258.07,386.712,257.712,386.904z M67.775,385.521
				l-1.013-0.57l24.203-42.605l0.733,0.414L67.775,385.521z M268.623,380.547l-26.074-41.486l0.793-0.5l26.176,41.422
				L268.623,380.547z M56.983,379.022l-0.922-0.6l26.815-41.012l0.756,0.492L56.983,379.022z M279.003,373.578l-28.59-39.795
				l0.729-0.525l28.752,39.678L279.003,373.578z M46.693,371.899l-0.93-0.691l29.389-39.209l0.676,0.504L46.693,371.899z
				 M288.943,365.956l-31.029-37.924l0.693-0.57l31.186,37.795L288.943,365.956z M36.839,364.113l-0.84-0.712l31.734-37.335
				l0.686,0.582L36.839,364.113z M298.379,357.728l-33.332-35.918l0.618-0.577l33.557,35.707L298.379,357.728z M27.503,355.73
				l-0.794-0.764l34.032-35.254l0.648,0.623L27.503,355.73z M307.276,348.924l-35.496-33.779l0.545-0.578l35.779,33.48
				C307.83,348.34,307.555,348.632,307.276,348.924z M18.716,346.777l-0.744-0.811l36.192-33.033l0.606,0.662L18.716,346.777z
				 M315.605,339.576l-37.525-31.51l0.505-0.607l37.795,31.186C316.123,338.955,315.865,339.267,315.605,339.576z M10.526,337.308
				l-0.725-0.899l38.248-30.627l0.529,0.655L10.526,337.308z M323.372,329.665l-39.49-29.008l0.506-0.693l39.658,28.777
				L323.372,329.665z M2.928,327.313L2.3,326.427l40.048-28.234l0.525,0.742L2.928,327.313z M330.498,319.279l-41.293-26.381
				l0.485-0.762l41.398,26.215L330.498,319.279z M-3.997,316.902l-0.611-0.992l41.8-25.568l0.436,0.707L-3.997,316.902z
				 M336.911,308.529l-42.84-23.785l0.406-0.737l42.994,23.504L336.911,308.529z M-10.277,306.022l-0.529-0.994l43.327-22.887
				l0.408,0.766L-10.277,306.022z M342.67,297.309l-44.303-20.934l0.386-0.82l44.385,20.76L342.67,297.309z M-15.838,294.798
				l-0.464-1.024l44.684-20.107l0.358,0.79L-15.838,294.798z M347.69,285.77l-45.555-18.051l0.334-0.847l45.623,17.877
				L347.69,285.77z M-20.681,283.225l-0.398-1.054l45.88-17.205l0.309,0.817L-20.681,283.225z M351.951,273.957l-46.598-15.152
				l0.259-0.806l46.695,14.852L351.951,273.957z M-24.776,271.362l-0.339-1.107l46.897-14.199l0.247,0.806L-24.776,271.362z
				 M355.462,261.843l-47.494-12.053l0.228-0.902l47.529,11.918L355.462,261.843z M-28.105,259.249l-0.271-1.143l47.717-11.139
				l0.191,0.803L-28.105,259.249z M358.172,249.61l-48.156-9.057l0.154-0.831l48.212,8.752L358.172,249.61z M-30.653,246.945
				l-0.194-1.137l48.325-8.102l0.143,0.834L-30.653,246.945z M360.104,237.159l-48.646-5.883l0.111-0.923l48.662,5.742
				L360.104,237.159z M-32.409,234.516l-0.121-1.144l48.742-5.018l0.09,0.845L-32.409,234.516z M361.231,224.707l-48.916-2.877
				l0.048-0.851l48.932,2.582L361.231,224.707z M-33.371,222.016l-0.049-1.179l48.964-1.872l0.035,0.813L-33.371,222.016z
				 M312.572,212.422l-0.006-0.927l48.998-0.432l0.008,1.071L312.572,212.422z M15.449,210.335l-48.992-0.861l0.023-1.143
				l48.986,1.146L15.449,210.335z M312.238,202.938l-0.06-0.849l48.867-3.594l0.081,1.146L312.238,202.938z M15.913,200.899
				l-48.841-3.951l0.096-1.139l48.816,4.236L15.913,200.899z M311.312,193.573l-0.122-0.911l48.553-6.607l0.144,1.071
				L311.312,193.573z M16.973,191.515l-48.493-7.029l0.169-1.141l48.448,7.332L16.973,191.515z M309.782,184.236l-0.166-0.829
				l48.016-9.775l0.227,1.133L309.782,184.236z M18.626,182.235l-47.943-10.119l0.242-1.13l47.878,10.424L18.626,182.235z
				 M307.68,175.099l-0.236-0.881l47.301-12.795l0.281,1.051L307.68,175.099z M20.865,173.094l-47.189-13.195l0.305-1.081
				l47.123,13.434L20.865,173.094z M304.958,165.999l-0.269-0.796l46.385-15.797l0.37,1.099L304.958,165.999z M23.699,164.075
				l-46.267-16.137l0.395-1.118l46.146,16.48L23.699,164.075z M301.694,157.184l-0.317-0.772l45.273-18.744l0.438,1.07
				L301.694,157.184z M27.092,155.291l-45.115-19.121l0.446-1.044l45.012,19.363L27.092,155.291z M297.877,148.599l-0.373-0.765
				l43.984-21.596l0.5,1.026L297.877,148.599z M31.049,146.718l-43.798-21.971l0.509-1.009l43.683,22.199L31.049,146.718z
				 M293.504,140.242l-0.422-0.742l42.535-24.326l0.563,0.991L293.504,140.242z M35.551,138.403L-6.767,113.7l0.582-0.991
				l42.168,24.957L35.551,138.403z M288.626,132.204l-0.503-0.768l40.947-26.914l0.591,0.901L288.626,132.204z M40.573,130.391
				l-40.671-27.329l0.622-0.92l40.549,27.51L40.573,130.391z M283.221,124.449l-0.525-0.701l39.131-29.492l0.672,0.896
				L283.221,124.449z M46.094,122.709L7.224,92.875l0.704-0.912l38.686,30.073L46.094,122.709z M277.366,117.084l-0.598-0.701
				l37.203-31.889l0.699,0.819L277.366,117.084z M52.082,115.402L15.179,83.166l0.745-0.848l36.733,32.429L52.082,115.402z
				 M271.003,110.042l-0.607-0.627l35.111-34.179l0.783,0.809L271.003,110.042z M58.535,108.466L23.708,73.998l0.813-0.815
				l34.612,34.684L58.535,108.466z M264.238,103.444l-0.645-0.587l32.883-36.328l0.834,0.759L264.238,103.444z M65.373,101.988
				l-32.54-36.635l0.844-0.747l32.348,36.805L65.373,101.988z M257.076,97.286l-0.702-0.563l30.557-38.305l0.86,0.688
				L257.076,97.286z M72.636,95.927L42.449,57.33l0.89-0.693l29.983,38.756L72.636,95.927z M249.522,91.581l-0.713-0.501
				l28.051-40.176l0.926,0.649L249.522,91.581z M80.253,90.345L52.561,49.921l0.932-0.635l27.479,40.57L80.253,90.345z
				 M241.635,86.373l-0.745-0.455l25.453-41.871l0.965,0.59L241.635,86.373z M88.213,85.253l-25.104-42.08l0.997-0.59l24.828,42.244
				L88.213,85.253z M233.394,81.655l-0.718-0.378l22.713-43.418l1.056,0.557L233.394,81.655z M96.44,80.698L74.095,37.089
				l1.018-0.518l22.086,43.74L96.44,80.698z M224.945,77.509l-0.769-0.345l19.887-44.783l1.062,0.475L224.945,77.509z
				 M104.962,76.663L85.416,31.73l1.032-0.445l19.311,45.034L104.962,76.663z M216.248,73.908l-0.847-0.316l17.033-45.944
				l1.034,0.386L216.248,73.908z M113.712,73.185L97.059,27.102l1.08-0.387l16.376,46.183L113.712,73.185z M207.25,70.844
				l-0.778-0.235l13.988-46.961l1.146,0.346L207.25,70.844z M122.667,70.273l-13.651-47.06l1.08-0.31l13.414,47.128L122.667,70.273z
				 M198.172,68.39l-0.821-0.192l10.971-47.756l1.126,0.262L198.172,68.39z M131.808,67.936l-10.63-47.833l1.121-0.246
				l10.341,47.896L131.808,67.936z M188.901,66.512l-0.8-0.133l7.893-48.36l1.173,0.196L188.901,66.512z M141.068,66.192
				l-7.543-48.416l1.14-0.174l7.24,48.462L141.068,66.192z M179.59,65.238l-0.846-0.086l4.805-48.764l1.145,0.116L179.59,65.238z
				 M150.437,65.04l-4.456-48.797l1.181-0.104l4.087,48.829L150.437,65.04z M170.172,64.554l-0.855-0.033l1.723-48.97l1.143,0.043
				L170.172,64.554z M159.868,64.483l-1.368-48.98l1.178-0.029l1.007,48.989L159.868,64.483z"/>
		</g>
	</g>
</g>
</svg>
