<?xml version="1.0" encoding="utf-8"?>
<!-- Generator: Adobe Illustrator 15.0.0, SVG Export Plug-In . SVG Version: 6.00 Build 0)  -->
<!DOCTYPE svg PUBLIC "-//W3C//DTD SVG 1.1//EN" "http://www.w3.org/Graphics/SVG/1.1/DTD/svg11.dtd">
<svg version="1.1" id="Warstwa_1" xmlns="http://www.w3.org/2000/svg" xmlns:xlink="http://www.w3.org/1999/xlink" x="0px" y="0px"
	 width="178.667px" height="199.333px" viewBox="0 0 178.667 199.333" enable-background="new 0 0 178.667 199.333"
	 xml:space="preserve">
<g>
	<defs>
		<rect id="SVGID_1_" x="893.667" y="372.667" width="320" height="281"/>
	</defs>
	<clipPath id="SVGID_2_">
		<use xlink:href="#SVGID_1_"  overflow="visible"/>
	</clipPath>
	<linearGradient id="SVGID_3_" gradientUnits="userSpaceOnUse" x1="1053.6665" y1="667.6665" x2="1053.6665" y2="369.6665">
		<stop  offset="0" style="stop-color:#F9D7DD"/>
		<stop  offset="0.3262" style="stop-color:#FCEAED"/>
		<stop  offset="0.6998" style="stop-color:#FEFAFA"/>
		<stop  offset="1" style="stop-color:#FFFFFF"/>
	</linearGradient>
	<rect x="851.667" y="369.667" clip-path="url(#SVGID_2_)" fill="url(#SVGID_3_)" fill-opacity="0.55" width="404" height="298"/>
	<g clip-path="url(#SVGID_2_)">
		<g opacity="0.14">
			<path fill="#F06B95" d="M947.725,577.667l20.565,36l-20.506,36h-40.687l-20.535-36l20.535-36h40.568 M972.667,534.667h-90.458
				l-45.234,79l45.234,79h90.466l45.23-79l-45.238-78.875V534.667z"/>
		</g>
		<g>
			<polyline fill="none" stroke="#F9D7DD" stroke-width="3" stroke-linecap="round" stroke-linejoin="round" points="
				876.92,702.167 876.42,702.167 876.171,701.733 			"/>
			
				<line fill="none" stroke="#F9D7DD" stroke-width="3" stroke-linecap="round" stroke-linejoin="round" stroke-dasharray="1.0342,10.3418" x1="871.02" y1="692.765" x2="828.266" y2="618.333"/>
			<polyline fill="none" stroke="#F9D7DD" stroke-width="3" stroke-linecap="round" stroke-linejoin="round" points="
				825.691,613.85 825.442,613.417 825.691,612.983 			"/>
			
				<line fill="none" stroke="#F9D7DD" stroke-width="3" stroke-linecap="round" stroke-linejoin="round" stroke-dasharray="1.0342,10.3418" x1="830.842" y1="604.015" x2="873.596" y2="529.583"/>
			<polyline fill="none" stroke="#F9D7DD" stroke-width="3" stroke-linecap="round" stroke-linejoin="round" points="876.171,525.1 
				876.42,524.667 876.92,524.667 			"/>
			
				<line fill="none" stroke="#F9D7DD" stroke-width="3" stroke-linecap="round" stroke-linejoin="round" stroke-dasharray="1,10" x1="887.667" y1="525.167" x2="972.667" y2="525.167"/>
			<polyline fill="none" stroke="#F9D7DD" stroke-width="3" stroke-linecap="round" stroke-linejoin="round" points="
				977.962,524.667 978.462,524.667 978.711,525.1 			"/>
			
				<line fill="none" stroke="#F9D7DD" stroke-width="3" stroke-linecap="round" stroke-linejoin="round" stroke-dasharray="1.0342,10.3418" x1="983.863" y1="534.068" x2="1026.617" y2="608.5"/>
			<polyline fill="none" stroke="#F9D7DD" stroke-width="3" stroke-linecap="round" stroke-linejoin="round" points="
				1029.192,612.983 1029.441,613.417 1029.192,613.85 			"/>
			
				<line fill="none" stroke="#F9D7DD" stroke-width="3" stroke-linecap="round" stroke-linejoin="round" stroke-dasharray="1.0342,10.3418" x1="1024.041" y1="622.818" x2="981.287" y2="697.25"/>
			<polyline fill="none" stroke="#F9D7DD" stroke-width="3" stroke-linecap="round" stroke-linejoin="round" points="
				978.711,701.733 978.462,702.167 977.962,702.167 			"/>
			
				<line fill="none" stroke="#F9D7DD" stroke-width="3" stroke-linecap="round" stroke-linejoin="round" stroke-dasharray="1,10" x1="967.667" y1="702.167" x2="881.667" y2="702.167"/>
		</g>
		<polygon fill="none" stroke="#F9D7DD" stroke-width="49" stroke-miterlimit="10" stroke-dasharray="1,10" points="
			853.267,742.167 779.313,613.667 853.267,485.167 1001.616,485.167 1075.57,613.667 1001.616,742.167 		"/>
	</g>
	<g clip-path="url(#SVGID_2_)">
		<polygon opacity="0.14" fill="#F06B95" points="1183.42,522.831 1146.092,546.333 1147.587,590.419 1186.41,611.001 
			1223.739,587.5 1222.243,543.413 1183.42,522.831 		"/>
		<g>
			<polyline fill="none" stroke="#F9D7DD" stroke-width="3" stroke-linecap="round" stroke-linejoin="round" points="
				1138.231,596.778 1137.79,596.543 1137.773,596.043 			"/>
			
				<line fill="none" stroke="#F9D7DD" stroke-width="3" stroke-linecap="round" stroke-linejoin="round" stroke-dasharray="1.0119,10.1191" x1="1137.43" y1="585.93" x2="1136.092" y2="546.489"/>
			<polyline fill="none" stroke="#F9D7DD" stroke-width="3" stroke-linecap="round" stroke-linejoin="round" points="
				1135.92,541.432 1135.904,540.932 1136.327,540.666 			"/>
			
				<line fill="none" stroke="#F9D7DD" stroke-width="3" stroke-linecap="round" stroke-linejoin="round" stroke-dasharray="1.0119,10.1191" x1="1144.89" y1="535.274" x2="1178.286" y2="514.247"/>
			<polyline fill="none" stroke="#F9D7DD" stroke-width="3" stroke-linecap="round" stroke-linejoin="round" points="
				1182.568,511.551 1182.991,511.285 1183.432,511.519 			"/>
			
				<line fill="none" stroke="#F9D7DD" stroke-width="3" stroke-linecap="round" stroke-linejoin="round" stroke-dasharray="1.0096,10.0957" x1="1192.352" y1="516.248" x2="1227.139" y2="534.69"/>
			<polyline fill="none" stroke="#F9D7DD" stroke-width="3" stroke-linecap="round" stroke-linejoin="round" points="
				1231.599,537.054 1232.041,537.289 1232.057,537.789 			"/>
			
				<line fill="none" stroke="#F9D7DD" stroke-width="3" stroke-linecap="round" stroke-linejoin="round" stroke-dasharray="1.012,10.1195" x1="1232.401" y1="547.902" x2="1233.74" y2="587.345"/>
			<polyline fill="none" stroke="#F9D7DD" stroke-width="3" stroke-linecap="round" stroke-linejoin="round" points="
				1233.912,592.402 1233.928,592.902 1233.505,593.168 			"/>
			
				<line fill="none" stroke="#F9D7DD" stroke-width="3" stroke-linecap="round" stroke-linejoin="round" stroke-dasharray="1.0119,10.1192" x1="1224.942" y1="598.559" x2="1191.544" y2="619.585"/>
			<polyline fill="none" stroke="#F9D7DD" stroke-width="3" stroke-linecap="round" stroke-linejoin="round" points="
				1187.262,622.281 1186.839,622.547 1186.398,622.313 			"/>
			
				<line fill="none" stroke="#F9D7DD" stroke-width="3" stroke-linecap="round" stroke-linejoin="round" stroke-dasharray="1.0096,10.0957" x1="1177.478" y1="617.584" x2="1142.691" y2="599.142"/>
		</g>
		<polygon fill="none" stroke="#F9D7DD" stroke-width="49" stroke-miterlimit="10" stroke-dasharray="1,10" points="
			1098.597,621.039 1095.148,519.325 1181.271,465.099 1271.232,512.792 1274.684,614.509 1188.558,668.733 		"/>
	</g>
	<g opacity="0.54" clip-path="url(#SVGID_2_)">
		<polygon opacity="0.14" fill="#F06B95" points="1052.42,478.831 1015.092,502.333 1016.587,546.419 1055.41,567.001 
			1092.739,543.5 1091.243,499.413 1052.42,478.831 		"/>
		<g>
			<polyline fill="none" stroke="#F9D7DD" stroke-width="3" stroke-linecap="round" stroke-linejoin="round" points="
				1007.231,552.778 1006.79,552.543 1006.773,552.043 			"/>
			
				<line fill="none" stroke="#F9D7DD" stroke-width="3" stroke-linecap="round" stroke-linejoin="round" stroke-dasharray="1.0119,10.1191" x1="1006.43" y1="541.93" x2="1005.092" y2="502.489"/>
			<polyline fill="none" stroke="#F9D7DD" stroke-width="3" stroke-linecap="round" stroke-linejoin="round" points="
				1004.92,497.432 1004.904,496.932 1005.327,496.666 			"/>
			
				<line fill="none" stroke="#F9D7DD" stroke-width="3" stroke-linecap="round" stroke-linejoin="round" stroke-dasharray="1.0119,10.1191" x1="1013.89" y1="491.274" x2="1047.286" y2="470.247"/>
			<polyline fill="none" stroke="#F9D7DD" stroke-width="3" stroke-linecap="round" stroke-linejoin="round" points="
				1051.568,467.551 1051.991,467.285 1052.432,467.519 			"/>
			
				<line fill="none" stroke="#F9D7DD" stroke-width="3" stroke-linecap="round" stroke-linejoin="round" stroke-dasharray="1.0096,10.0957" x1="1061.352" y1="472.248" x2="1096.139" y2="490.69"/>
			<polyline fill="none" stroke="#F9D7DD" stroke-width="3" stroke-linecap="round" stroke-linejoin="round" points="
				1100.599,493.054 1101.041,493.289 1101.057,493.789 			"/>
			
				<line fill="none" stroke="#F9D7DD" stroke-width="3" stroke-linecap="round" stroke-linejoin="round" stroke-dasharray="1.012,10.1195" x1="1101.401" y1="503.902" x2="1102.74" y2="543.345"/>
			<polyline fill="none" stroke="#F9D7DD" stroke-width="3" stroke-linecap="round" stroke-linejoin="round" points="
				1102.912,548.402 1102.928,548.902 1102.505,549.168 			"/>
			
				<line fill="none" stroke="#F9D7DD" stroke-width="3" stroke-linecap="round" stroke-linejoin="round" stroke-dasharray="1.0119,10.1192" x1="1093.942" y1="554.559" x2="1060.544" y2="575.585"/>
			<polyline fill="none" stroke="#F9D7DD" stroke-width="3" stroke-linecap="round" stroke-linejoin="round" points="
				1056.262,578.281 1055.839,578.547 1055.398,578.313 			"/>
			
				<line fill="none" stroke="#F9D7DD" stroke-width="3" stroke-linecap="round" stroke-linejoin="round" stroke-dasharray="1.0096,10.0957" x1="1046.478" y1="573.584" x2="1011.691" y2="555.142"/>
		</g>
		<polygon fill="none" stroke="#F9D7DD" stroke-width="49" stroke-miterlimit="10" stroke-dasharray="1,10" points="
			967.597,577.039 964.148,475.325 1050.271,421.099 1140.232,468.792 1143.684,570.509 1057.558,624.733 		"/>
	</g>
</g>
<g>
	<path fill="#999999" d="M85.897,3.417c11.271-3.558,23.769,9.438,18.624,20.429c-3.246,11.05-19.624,13.947-26.526,4.829
		C70.41,20.628,74.999,5.611,85.897,3.417"/>
	<path fill="#999999" d="M61.09,39.839c10.265-4.063,21.536-2.118,32.298-2.558c9.284,0.16,20.016-1.25,27.67,5.21
		c5.819,4.597,6.056,12.649,6.123,19.454c-0.096,14.893,0.08,29.808-0.057,44.724c0.137,3.354-1.219,8.504-5.365,8.338
		c-4.891,1.208-8.146-4.062-7.986-8.338c-0.077-14.488,0.035-28.952-0.028-43.421c-1.215,0.018-3.639,0.052-4.854,0.077
		c-0.209,41.495,0.11,83-0.168,124.472c1.068,9.957-16.373,12.217-17.211,1.956c-0.369-24.925-0.027-49.898-0.134-74.822h-4.083
		c0.03,21.748-0.053,43.486,0.042,65.24c0.027,4.699-0.384,9.559-2.179,13.978c-5.653,4.663-16.4,2.339-16.046-6.143
		C68.757,146.517,69.194,105,68.906,63.509h-3.898c-0.25,13.756,0.026,27.513-0.099,41.269c0,4.515-2.233,11.574-8.011,10.229
		c-3.396,0.309-5.6-3.598-5.311-6.606c-0.164-17.444-0.099-34.906-0.012-52.344C51.366,49.426,54.637,42.366,61.09,39.839"/>
</g>
</svg>
